%TF.GenerationSoftware,KiCad,Pcbnew,8.0.5*%
%TF.CreationDate,2024-10-14T18:40:36+02:00*%
%TF.ProjectId,pcb,7063622e-6b69-4636-9164-5f7063625858,rev?*%
%TF.SameCoordinates,Original*%
%TF.FileFunction,Soldermask,Bot*%
%TF.FilePolarity,Negative*%
%FSLAX46Y46*%
G04 Gerber Fmt 4.6, Leading zero omitted, Abs format (unit mm)*
G04 Created by KiCad (PCBNEW 8.0.5) date 2024-10-14 18:40:36*
%MOMM*%
%LPD*%
G01*
G04 APERTURE LIST*
%ADD10C,3.200000*%
%ADD11C,2.000000*%
%ADD12R,2.000000X2.000000*%
%ADD13O,2.500000X1.500000*%
%ADD14O,1.500000X2.500000*%
G04 APERTURE END LIST*
D10*
%TO.C,keychain1*%
X133000000Y-33000000D03*
%TD*%
D11*
%TO.C,SBR1*%
X161000000Y-52500000D03*
X167500000Y-52500000D03*
X161000000Y-57000000D03*
X167500000Y-57000000D03*
%TD*%
%TO.C,STL1*%
X132500000Y-43000000D03*
X139000000Y-43000000D03*
X132500000Y-47500000D03*
X139000000Y-47500000D03*
%TD*%
%TO.C,SBL1*%
X132500000Y-52500000D03*
X139000000Y-52500000D03*
X132500000Y-57000000D03*
X139000000Y-57000000D03*
%TD*%
%TO.C,STR1*%
X161000000Y-43000000D03*
X167500000Y-43000000D03*
X161000000Y-47500000D03*
X167500000Y-47500000D03*
%TD*%
D12*
%TO.C,BZ1*%
X146200000Y-62500000D03*
D11*
X153800000Y-62500000D03*
%TD*%
D13*
%TO.C,U1*%
X158120000Y-33840000D03*
X158120000Y-36380000D03*
X158120000Y-38920000D03*
X158120000Y-41460000D03*
X158120000Y-44000000D03*
X158120000Y-46540000D03*
X158120000Y-49080000D03*
X158120000Y-51620000D03*
X158120000Y-54160000D03*
D14*
X155080000Y-54660000D03*
X152540000Y-54660000D03*
X150000000Y-54660000D03*
X147460000Y-54660000D03*
X144920000Y-54660000D03*
D13*
X141880000Y-54160000D03*
X141880000Y-51620000D03*
X141880000Y-49080000D03*
X141880000Y-46540000D03*
X141880000Y-44000000D03*
X141880000Y-41460000D03*
X141880000Y-38920000D03*
X141880000Y-36380000D03*
X141880000Y-33840000D03*
%TD*%
M02*
