%TF.GenerationSoftware,KiCad,Pcbnew,8.0.5*%
%TF.CreationDate,2024-10-14T18:40:36+02:00*%
%TF.ProjectId,pcb,7063622e-6b69-4636-9164-5f7063625858,rev?*%
%TF.SameCoordinates,Original*%
%TF.FileFunction,Legend,Bot*%
%TF.FilePolarity,Positive*%
%FSLAX46Y46*%
G04 Gerber Fmt 4.6, Leading zero omitted, Abs format (unit mm)*
G04 Created by KiCad (PCBNEW 8.0.5) date 2024-10-14 18:40:36*
%MOMM*%
%LPD*%
G01*
G04 APERTURE LIST*
%ADD10C,0.200000*%
%ADD11C,0.000000*%
G04 APERTURE END LIST*
D10*
G36*
X154704738Y-39860956D02*
G01*
X154704738Y-39562247D01*
X154505924Y-39603524D01*
X154454473Y-39613095D01*
X154408715Y-39616224D01*
X154392107Y-39587892D01*
X154414577Y-39544173D01*
X154462012Y-39527423D01*
X154513355Y-39515424D01*
X154518381Y-39514375D01*
X155023963Y-39409106D01*
X155074293Y-39399913D01*
X155122149Y-39396650D01*
X155142421Y-39426448D01*
X155120195Y-39466992D01*
X155073355Y-39484002D01*
X155023502Y-39495995D01*
X155007110Y-39499476D01*
X154861053Y-39529762D01*
X154861053Y-39828471D01*
X154913810Y-39817480D01*
X154965639Y-39806101D01*
X155021395Y-39792225D01*
X155070127Y-39778108D01*
X155118104Y-39761335D01*
X155161228Y-39741765D01*
X155205411Y-39711645D01*
X155242157Y-39675319D01*
X155272421Y-39635698D01*
X155290188Y-39607431D01*
X155314444Y-39558461D01*
X155331770Y-39506071D01*
X155341245Y-39457424D01*
X155345414Y-39406160D01*
X155345631Y-39391032D01*
X155343387Y-39338205D01*
X155335327Y-39284014D01*
X155321405Y-39236417D01*
X155298736Y-39190753D01*
X155265945Y-39150902D01*
X155221830Y-39121500D01*
X155174413Y-39107895D01*
X155169288Y-39107222D01*
X155116514Y-39105166D01*
X155066706Y-39108321D01*
X155017911Y-39114338D01*
X154963483Y-39123411D01*
X154924068Y-39131158D01*
X154604110Y-39197836D01*
X154555066Y-39208335D01*
X154505828Y-39219875D01*
X154454499Y-39233614D01*
X154425324Y-39242777D01*
X154380696Y-39262812D01*
X154337305Y-39291778D01*
X154309064Y-39316050D01*
X154273440Y-39355269D01*
X154245962Y-39396332D01*
X154223160Y-39442548D01*
X154221137Y-39447452D01*
X154204135Y-39498319D01*
X154194218Y-39546505D01*
X154189401Y-39596971D01*
X154188897Y-39620132D01*
X154191316Y-39673328D01*
X154200006Y-39727798D01*
X154215015Y-39775521D01*
X154239455Y-39821144D01*
X154273310Y-39860938D01*
X154316116Y-39890497D01*
X154364752Y-39905163D01*
X154419415Y-39907706D01*
X154474378Y-39903730D01*
X154530659Y-39895867D01*
X154584984Y-39885872D01*
X154594584Y-39883914D01*
X154704738Y-39860956D01*
G37*
G36*
X155180744Y-39884754D02*
G01*
X155226929Y-39903210D01*
X155254849Y-39921192D01*
X155289688Y-39956065D01*
X155316078Y-40000418D01*
X155317896Y-40004547D01*
X155334087Y-40052991D01*
X155342745Y-40101840D01*
X155345631Y-40155268D01*
X155345358Y-40172618D01*
X155341269Y-40222943D01*
X155330970Y-40275822D01*
X155314612Y-40325505D01*
X155310629Y-40335060D01*
X155287536Y-40380059D01*
X155259147Y-40420431D01*
X155225464Y-40456175D01*
X155188011Y-40486577D01*
X155144224Y-40513021D01*
X155097725Y-40532135D01*
X155068181Y-40540982D01*
X155018370Y-40554087D01*
X154965019Y-40566781D01*
X154912034Y-40578574D01*
X154862763Y-40589043D01*
X154675184Y-40627878D01*
X154644285Y-40634261D01*
X154587779Y-40645481D01*
X154538331Y-40654640D01*
X154489563Y-40662721D01*
X154436559Y-40669399D01*
X154402594Y-40670086D01*
X154353879Y-40662244D01*
X154307843Y-40643754D01*
X154279816Y-40625878D01*
X154244874Y-40591108D01*
X154218450Y-40546789D01*
X154216632Y-40542675D01*
X154200441Y-40494399D01*
X154191783Y-40445703D01*
X154188897Y-40392428D01*
X154189170Y-40374988D01*
X154190841Y-40354326D01*
X154392107Y-40354326D01*
X154409448Y-40377529D01*
X154450072Y-40374842D01*
X154501284Y-40365561D01*
X155001249Y-40261514D01*
X155018473Y-40257871D01*
X155070759Y-40245652D01*
X155119462Y-40229518D01*
X155142421Y-40193370D01*
X155124347Y-40169190D01*
X155112745Y-40169173D01*
X155063719Y-40176222D01*
X155012728Y-40186287D01*
X154504214Y-40292044D01*
X154455731Y-40303337D01*
X154407250Y-40322330D01*
X154392107Y-40354326D01*
X154190841Y-40354326D01*
X154193259Y-40324422D01*
X154203558Y-40271318D01*
X154219916Y-40221458D01*
X154223900Y-40211932D01*
X154247027Y-40167019D01*
X154275496Y-40126637D01*
X154309309Y-40090788D01*
X154346761Y-40060410D01*
X154390548Y-40034047D01*
X154437048Y-40015073D01*
X154466508Y-40006309D01*
X154516235Y-39993287D01*
X154569538Y-39980642D01*
X154622500Y-39968872D01*
X154671765Y-39958408D01*
X154859344Y-39919574D01*
X154890243Y-39913189D01*
X154946749Y-39901952D01*
X154996197Y-39892758D01*
X155044965Y-39884616D01*
X155097969Y-39877808D01*
X155131949Y-39877015D01*
X155180744Y-39884754D01*
G37*
G36*
X154204528Y-41127110D02*
G01*
X155095526Y-40941730D01*
X155095526Y-41113677D01*
X155330000Y-41065073D01*
X155330000Y-40594417D01*
X154204528Y-40828401D01*
X154204528Y-41127110D01*
G37*
G36*
X155180744Y-41160679D02*
G01*
X155226929Y-41179134D01*
X155254849Y-41197117D01*
X155289688Y-41231990D01*
X155316078Y-41276343D01*
X155317896Y-41280472D01*
X155334087Y-41328916D01*
X155342745Y-41377765D01*
X155345631Y-41431193D01*
X155345358Y-41448543D01*
X155341269Y-41498867D01*
X155330970Y-41551747D01*
X155314612Y-41601430D01*
X155310629Y-41610985D01*
X155287536Y-41655984D01*
X155259147Y-41696356D01*
X155225464Y-41732100D01*
X155188011Y-41762502D01*
X155144224Y-41788946D01*
X155097725Y-41808060D01*
X155068181Y-41816907D01*
X155018370Y-41830012D01*
X154965019Y-41842706D01*
X154912034Y-41854498D01*
X154862763Y-41864968D01*
X154675184Y-41903803D01*
X154644285Y-41910185D01*
X154587779Y-41921405D01*
X154538331Y-41930564D01*
X154489563Y-41938645D01*
X154436559Y-41945324D01*
X154402594Y-41946011D01*
X154353879Y-41938168D01*
X154307843Y-41919678D01*
X154279816Y-41901803D01*
X154244874Y-41867033D01*
X154218450Y-41822714D01*
X154216632Y-41818600D01*
X154200441Y-41770324D01*
X154191783Y-41721628D01*
X154188897Y-41668353D01*
X154189170Y-41650913D01*
X154190841Y-41630251D01*
X154392107Y-41630251D01*
X154409448Y-41653454D01*
X154450072Y-41650766D01*
X154501284Y-41641486D01*
X155001249Y-41537438D01*
X155018473Y-41533796D01*
X155070759Y-41521577D01*
X155119462Y-41505443D01*
X155142421Y-41469295D01*
X155124347Y-41445115D01*
X155112745Y-41445098D01*
X155063719Y-41452146D01*
X155012728Y-41462212D01*
X154504214Y-41567969D01*
X154455731Y-41579261D01*
X154407250Y-41598255D01*
X154392107Y-41630251D01*
X154190841Y-41630251D01*
X154193259Y-41600346D01*
X154203558Y-41547242D01*
X154219916Y-41497383D01*
X154223900Y-41487856D01*
X154247027Y-41442943D01*
X154275496Y-41402562D01*
X154309309Y-41366713D01*
X154346761Y-41336335D01*
X154390548Y-41309972D01*
X154437048Y-41290997D01*
X154466508Y-41282233D01*
X154516235Y-41269212D01*
X154569538Y-41256566D01*
X154622500Y-41244797D01*
X154671765Y-41234333D01*
X154859344Y-41195498D01*
X154890243Y-41189114D01*
X154946749Y-41177876D01*
X154996197Y-41168683D01*
X155044965Y-41160540D01*
X155097969Y-41153733D01*
X155131949Y-41152939D01*
X155180744Y-41160679D01*
G37*
G36*
X155330000Y-42169050D02*
G01*
X154829790Y-42273098D01*
X154829947Y-42281591D01*
X154847620Y-42328053D01*
X154851525Y-42329290D01*
X154900469Y-42327161D01*
X154951912Y-42317794D01*
X155330000Y-42239148D01*
X155330000Y-42517829D01*
X155031535Y-42579867D01*
X155023179Y-42581594D01*
X154970382Y-42592094D01*
X154917132Y-42601507D01*
X154864961Y-42606978D01*
X154840586Y-42603303D01*
X154795840Y-42583286D01*
X154771260Y-42563743D01*
X154747236Y-42520027D01*
X154745912Y-42530091D01*
X154728406Y-42577318D01*
X154695701Y-42616748D01*
X154667063Y-42637142D01*
X154622147Y-42657750D01*
X154570932Y-42673992D01*
X154517404Y-42686601D01*
X154508427Y-42688432D01*
X154457731Y-42696836D01*
X154405445Y-42701040D01*
X154354734Y-42698460D01*
X154304912Y-42684159D01*
X154274199Y-42665581D01*
X154240264Y-42628956D01*
X154220893Y-42581821D01*
X154212982Y-42532153D01*
X154208620Y-42479178D01*
X154206127Y-42423780D01*
X154204928Y-42370570D01*
X154204862Y-42360781D01*
X154407739Y-42360781D01*
X154407752Y-42363198D01*
X154421660Y-42412316D01*
X154435445Y-42418335D01*
X154485163Y-42414759D01*
X154546957Y-42401814D01*
X154585630Y-42392049D01*
X154630244Y-42367376D01*
X154633692Y-42360934D01*
X154642212Y-42311933D01*
X154407739Y-42360781D01*
X154204862Y-42360781D01*
X154204528Y-42310956D01*
X154204528Y-42104326D01*
X155330000Y-41870341D01*
X155330000Y-42169050D01*
G37*
G36*
X155423789Y-42539567D02*
G01*
X155423789Y-43331646D01*
X155501946Y-43315526D01*
X155501946Y-42523447D01*
X155423789Y-42539567D01*
G37*
G36*
X155330000Y-43695080D02*
G01*
X154829790Y-43799127D01*
X154829947Y-43807620D01*
X154847620Y-43854082D01*
X154851525Y-43855320D01*
X154900469Y-43853190D01*
X154951912Y-43843824D01*
X155330000Y-43765177D01*
X155330000Y-44043859D01*
X155031535Y-44105896D01*
X155023179Y-44107623D01*
X154970382Y-44118124D01*
X154917132Y-44127537D01*
X154864961Y-44133007D01*
X154840586Y-44129332D01*
X154795840Y-44109316D01*
X154771260Y-44089772D01*
X154747236Y-44046057D01*
X154745912Y-44056120D01*
X154728406Y-44103347D01*
X154695701Y-44142777D01*
X154667063Y-44163171D01*
X154622147Y-44183779D01*
X154570932Y-44200021D01*
X154517404Y-44212630D01*
X154508427Y-44214462D01*
X154457731Y-44222865D01*
X154405445Y-44227069D01*
X154354734Y-44224489D01*
X154304912Y-44210188D01*
X154274199Y-44191610D01*
X154240264Y-44154985D01*
X154220893Y-44107850D01*
X154212982Y-44058183D01*
X154208620Y-44005207D01*
X154206127Y-43949809D01*
X154204928Y-43896599D01*
X154204862Y-43886810D01*
X154407739Y-43886810D01*
X154407752Y-43889227D01*
X154421660Y-43938346D01*
X154435445Y-43944364D01*
X154485163Y-43940788D01*
X154546957Y-43927843D01*
X154585630Y-43918078D01*
X154630244Y-43893405D01*
X154633692Y-43886964D01*
X154642212Y-43837962D01*
X154407739Y-43886810D01*
X154204862Y-43886810D01*
X154204528Y-43836985D01*
X154204528Y-43630355D01*
X155330000Y-43396371D01*
X155330000Y-43695080D01*
G37*
G36*
X154204528Y-44383600D02*
G01*
X154204528Y-44871353D01*
X154439002Y-44822505D01*
X154439002Y-44633461D01*
X154626580Y-44594382D01*
X154626580Y-44771214D01*
X154861053Y-44722609D01*
X154861053Y-44545778D01*
X155095526Y-44496929D01*
X155095526Y-44704535D01*
X155330000Y-44655931D01*
X155330000Y-44149616D01*
X154204528Y-44383600D01*
G37*
G36*
X155330000Y-45029623D02*
G01*
X154876685Y-45123900D01*
X154876685Y-45193510D01*
X154876582Y-45205178D01*
X154873568Y-45254805D01*
X154865325Y-45304416D01*
X154850307Y-45352267D01*
X154841421Y-45371707D01*
X154813015Y-45414881D01*
X154773859Y-45449476D01*
X154760460Y-45457490D01*
X154714521Y-45477798D01*
X154667018Y-45492524D01*
X154617299Y-45504187D01*
X154521556Y-45524214D01*
X154467241Y-45534645D01*
X154416770Y-45542020D01*
X154366706Y-45544975D01*
X154324965Y-45539445D01*
X154279267Y-45518597D01*
X154276979Y-45516990D01*
X154243495Y-45479167D01*
X154223579Y-45433112D01*
X154218091Y-45412888D01*
X154209905Y-45364211D01*
X154205719Y-45311021D01*
X154204528Y-45256280D01*
X154204528Y-45221353D01*
X154407739Y-45221353D01*
X154407863Y-45229529D01*
X154421905Y-45278018D01*
X154439706Y-45283794D01*
X154489071Y-45278750D01*
X154579685Y-45259944D01*
X154609531Y-45252669D01*
X154656133Y-45230390D01*
X154660198Y-45225769D01*
X154673475Y-45177390D01*
X154673230Y-45166154D01*
X154407739Y-45221353D01*
X154204528Y-45221353D01*
X154204528Y-44964898D01*
X155330000Y-44730914D01*
X155330000Y-45029623D01*
G37*
G36*
X154204528Y-45667341D02*
G01*
X154204528Y-46155094D01*
X154439002Y-46106245D01*
X154439002Y-45917201D01*
X154626580Y-45878122D01*
X154626580Y-46054954D01*
X154861053Y-46006350D01*
X154861053Y-45829518D01*
X155095526Y-45780669D01*
X155095526Y-45988276D01*
X155330000Y-45939672D01*
X155330000Y-45433356D01*
X154204528Y-45667341D01*
G37*
G36*
X154204528Y-46815771D02*
G01*
X154439002Y-46766922D01*
X154439002Y-46598883D01*
X155330000Y-46413747D01*
X155330000Y-46115038D01*
X154439002Y-46300174D01*
X154439002Y-46132868D01*
X154204528Y-46181716D01*
X154204528Y-46815771D01*
G37*
G36*
X154204528Y-46874877D02*
G01*
X154204528Y-47362630D01*
X154439002Y-47313782D01*
X154439002Y-47124738D01*
X154626580Y-47085659D01*
X154626580Y-47262491D01*
X154861053Y-47213886D01*
X154861053Y-47037055D01*
X155095526Y-46988206D01*
X155095526Y-47195812D01*
X155330000Y-47147208D01*
X155330000Y-46640893D01*
X154204528Y-46874877D01*
G37*
G36*
X155330000Y-47520900D02*
G01*
X154829790Y-47624947D01*
X154829947Y-47633440D01*
X154847620Y-47679902D01*
X154851525Y-47681140D01*
X154900469Y-47679010D01*
X154951912Y-47669644D01*
X155330000Y-47590997D01*
X155330000Y-47869678D01*
X155031535Y-47931716D01*
X155023179Y-47933443D01*
X154970382Y-47943944D01*
X154917132Y-47953357D01*
X154864961Y-47958827D01*
X154840586Y-47955152D01*
X154795840Y-47935136D01*
X154771260Y-47915592D01*
X154747236Y-47871877D01*
X154745912Y-47881940D01*
X154728406Y-47929167D01*
X154695701Y-47968597D01*
X154667063Y-47988991D01*
X154622147Y-48009599D01*
X154570932Y-48025841D01*
X154517404Y-48038450D01*
X154508427Y-48040282D01*
X154457731Y-48048685D01*
X154405445Y-48052889D01*
X154354734Y-48050309D01*
X154304912Y-48036008D01*
X154274199Y-48017430D01*
X154240264Y-47980805D01*
X154220893Y-47933670D01*
X154212982Y-47884003D01*
X154208620Y-47831027D01*
X154206127Y-47775629D01*
X154204928Y-47722419D01*
X154204862Y-47712630D01*
X154407739Y-47712630D01*
X154407752Y-47715047D01*
X154421660Y-47764166D01*
X154435445Y-47770184D01*
X154485163Y-47766608D01*
X154546957Y-47753663D01*
X154585630Y-47743898D01*
X154630244Y-47719225D01*
X154633692Y-47712784D01*
X154642212Y-47663782D01*
X154407739Y-47712630D01*
X154204862Y-47712630D01*
X154204528Y-47662805D01*
X154204528Y-47456175D01*
X155330000Y-47222191D01*
X155330000Y-47520900D01*
G37*
G36*
X145580662Y-34976117D02*
G01*
X145637116Y-34982343D01*
X145684313Y-34996259D01*
X145726918Y-35021580D01*
X145760397Y-35062073D01*
X145765958Y-35072684D01*
X145784612Y-35119136D01*
X145797526Y-35171999D01*
X145804118Y-35223514D01*
X145806315Y-35279938D01*
X145805707Y-35313096D01*
X145802203Y-35362479D01*
X145794540Y-35412634D01*
X145781402Y-35461654D01*
X145769416Y-35491990D01*
X145743810Y-35536978D01*
X145708862Y-35575716D01*
X145705890Y-35578262D01*
X145665285Y-35606792D01*
X145618492Y-35623587D01*
X145581965Y-35627194D01*
X145532573Y-35629297D01*
X145483337Y-35630186D01*
X145433600Y-35630426D01*
X144727739Y-35630426D01*
X144727739Y-35358584D01*
X144789288Y-35340998D01*
X144761209Y-35313174D01*
X144756215Y-35305339D01*
X144884054Y-35305339D01*
X144897976Y-35330740D01*
X144923682Y-35335137D01*
X144972958Y-35336602D01*
X145255059Y-35336602D01*
X145300528Y-35335765D01*
X145349825Y-35329519D01*
X145368632Y-35300454D01*
X145353733Y-35275297D01*
X145329769Y-35270914D01*
X145278995Y-35269191D01*
X144972958Y-35269191D01*
X144950465Y-35269588D01*
X144900662Y-35277495D01*
X144884054Y-35305339D01*
X144756215Y-35305339D01*
X144734577Y-35271389D01*
X144733195Y-35268601D01*
X144717044Y-35221401D01*
X144712107Y-35172715D01*
X144712336Y-35160516D01*
X144719034Y-35110486D01*
X144737352Y-35064233D01*
X144770725Y-35024704D01*
X144804568Y-35003439D01*
X144853480Y-34986779D01*
X144906591Y-34978425D01*
X144960502Y-34976100D01*
X145286810Y-34976100D01*
X145329706Y-34977260D01*
X145380411Y-34982644D01*
X145427983Y-34994662D01*
X145437249Y-34998424D01*
X145478558Y-35025668D01*
X145509560Y-35063783D01*
X145523131Y-35090710D01*
X145536913Y-35141501D01*
X145540579Y-35191277D01*
X145537259Y-35229806D01*
X145523237Y-35277007D01*
X145511841Y-35300935D01*
X145483914Y-35341487D01*
X145539357Y-35341487D01*
X145567232Y-35340937D01*
X145617515Y-35332694D01*
X145634368Y-35297035D01*
X145620629Y-35271089D01*
X145571842Y-35260887D01*
X145571842Y-34975855D01*
X145580662Y-34976117D01*
G37*
G36*
X145087264Y-35973832D02*
G01*
X144986147Y-35973832D01*
X144949804Y-35974276D01*
X144898709Y-35979449D01*
X144884054Y-36008026D01*
X144902128Y-36036846D01*
X144938072Y-36044351D01*
X144987613Y-36046127D01*
X145220132Y-36046127D01*
X145397452Y-36046127D01*
X145428548Y-36045715D01*
X145480251Y-36039533D01*
X145493684Y-36011933D01*
X145475610Y-35981647D01*
X145435259Y-35975121D01*
X145386217Y-35973832D01*
X145340571Y-35975484D01*
X145291695Y-35983846D01*
X145253184Y-36008481D01*
X145220132Y-36046127D01*
X144987613Y-36046127D01*
X145009250Y-36045718D01*
X145057711Y-36037579D01*
X145063713Y-36031849D01*
X145087635Y-35988317D01*
X145108327Y-35940972D01*
X145126831Y-35895185D01*
X145139238Y-35864258D01*
X145160123Y-35817335D01*
X145185431Y-35770469D01*
X145216468Y-35731543D01*
X145255154Y-35711003D01*
X145307090Y-35700503D01*
X145361304Y-35697837D01*
X145436775Y-35697837D01*
X145486844Y-35700070D01*
X145536381Y-35708318D01*
X145586022Y-35727852D01*
X145622644Y-35761340D01*
X145645313Y-35802175D01*
X145660552Y-35849737D01*
X145665631Y-35900070D01*
X145665606Y-35903673D01*
X145659220Y-35953987D01*
X145639986Y-35999966D01*
X145627346Y-36019078D01*
X145591625Y-36053699D01*
X145650000Y-36053699D01*
X145650000Y-36339219D01*
X145187648Y-36339219D01*
X145146709Y-36339088D01*
X145096266Y-36338506D01*
X145039866Y-36337124D01*
X144990860Y-36335014D01*
X144941813Y-36331522D01*
X144888206Y-36324320D01*
X144840040Y-36307261D01*
X144797300Y-36276233D01*
X144763154Y-36235904D01*
X144756972Y-36226412D01*
X144734091Y-36176968D01*
X144720532Y-36123773D01*
X144713902Y-36070089D01*
X144712107Y-36018772D01*
X144713653Y-35975530D01*
X144720522Y-35922682D01*
X144734819Y-35869797D01*
X144756071Y-35823866D01*
X144781882Y-35785375D01*
X144816368Y-35749086D01*
X144857676Y-35722994D01*
X144868896Y-35718498D01*
X144917088Y-35705797D01*
X144970516Y-35699409D01*
X145019853Y-35697837D01*
X145087264Y-35697837D01*
X145087264Y-35973832D01*
G37*
G36*
X145366223Y-36408522D02*
G01*
X145416856Y-36412529D01*
X145468771Y-36422017D01*
X145482189Y-36426112D01*
X145526989Y-36446275D01*
X145568422Y-36475506D01*
X145587363Y-36493934D01*
X145617576Y-36535785D01*
X145639741Y-36583217D01*
X145641334Y-36587542D01*
X145655518Y-36637760D01*
X145663103Y-36687620D01*
X145665631Y-36741487D01*
X145665606Y-36747212D01*
X145663079Y-36796079D01*
X145655422Y-36844756D01*
X145639497Y-36895360D01*
X145628787Y-36917777D01*
X145599336Y-36961162D01*
X145561339Y-36997453D01*
X145554832Y-37002405D01*
X145510720Y-37030548D01*
X145463398Y-37048744D01*
X145430955Y-37054540D01*
X145382137Y-37058662D01*
X145333217Y-37059735D01*
X145259211Y-37059735D01*
X145259211Y-36781054D01*
X145386706Y-36781054D01*
X145423485Y-36780148D01*
X145473168Y-36771773D01*
X145493684Y-36735869D01*
X145478785Y-36707781D01*
X145452346Y-36702286D01*
X145403314Y-36700454D01*
X145212316Y-36700454D01*
X145212316Y-37059735D01*
X145084577Y-37059735D01*
X145076315Y-37059705D01*
X145021685Y-37057766D01*
X144972664Y-37052812D01*
X144923511Y-37043459D01*
X144876971Y-37028228D01*
X144867774Y-37024138D01*
X144825222Y-36998220D01*
X144788395Y-36963192D01*
X144757292Y-36919051D01*
X144735450Y-36871979D01*
X144722035Y-36824688D01*
X144714269Y-36772267D01*
X144712666Y-36735137D01*
X144884054Y-36735137D01*
X144902372Y-36759317D01*
X144943413Y-36764823D01*
X144993719Y-36765911D01*
X145056001Y-36765911D01*
X145056001Y-36700454D01*
X144993719Y-36700454D01*
X144950509Y-36701003D01*
X144899441Y-36706072D01*
X144884054Y-36735137D01*
X144712666Y-36735137D01*
X144712107Y-36722192D01*
X144712695Y-36698172D01*
X144718315Y-36646639D01*
X144729885Y-36598584D01*
X144749720Y-36549268D01*
X144776320Y-36506225D01*
X144813073Y-36468409D01*
X144857676Y-36440580D01*
X144896083Y-36426047D01*
X144946736Y-36414661D01*
X144998378Y-36408952D01*
X145048674Y-36407363D01*
X145312700Y-36407363D01*
X145366223Y-36408522D01*
G37*
G36*
X144602686Y-37439044D02*
G01*
X144743370Y-37439044D01*
X144743370Y-37513783D01*
X144899685Y-37513783D01*
X144899685Y-37439044D01*
X145388904Y-37439044D01*
X145440334Y-37439881D01*
X145485624Y-37446127D01*
X145493298Y-37496997D01*
X145493684Y-37525506D01*
X145650000Y-37525506D01*
X145650000Y-37405827D01*
X145649362Y-37356340D01*
X145646851Y-37307348D01*
X145641939Y-37268319D01*
X145624329Y-37221704D01*
X145603349Y-37193580D01*
X145564253Y-37163616D01*
X145534228Y-37153036D01*
X145481481Y-37147693D01*
X145427527Y-37145839D01*
X145374717Y-37145251D01*
X145357885Y-37145220D01*
X144899685Y-37145220D01*
X144899685Y-37085381D01*
X144743370Y-37085381D01*
X144743370Y-37145220D01*
X144602686Y-37145220D01*
X144602686Y-37439044D01*
G37*
G36*
X145087264Y-37820307D02*
G01*
X144986147Y-37820307D01*
X144949804Y-37820752D01*
X144898709Y-37825925D01*
X144884054Y-37854501D01*
X144902128Y-37883322D01*
X144938072Y-37890827D01*
X144987613Y-37892603D01*
X145220132Y-37892603D01*
X145397452Y-37892603D01*
X145428548Y-37892191D01*
X145480251Y-37886009D01*
X145493684Y-37858409D01*
X145475610Y-37828123D01*
X145435259Y-37821597D01*
X145386217Y-37820307D01*
X145340571Y-37821960D01*
X145291695Y-37830321D01*
X145253184Y-37854957D01*
X145220132Y-37892603D01*
X144987613Y-37892603D01*
X145009250Y-37892194D01*
X145057711Y-37884055D01*
X145063713Y-37878324D01*
X145087635Y-37834793D01*
X145108327Y-37787448D01*
X145126831Y-37741661D01*
X145139238Y-37710734D01*
X145160123Y-37663811D01*
X145185431Y-37616945D01*
X145216468Y-37578019D01*
X145255154Y-37557479D01*
X145307090Y-37546979D01*
X145361304Y-37544313D01*
X145436775Y-37544313D01*
X145486844Y-37546546D01*
X145536381Y-37554794D01*
X145586022Y-37574328D01*
X145622644Y-37607816D01*
X145645313Y-37648651D01*
X145660552Y-37696213D01*
X145665631Y-37746546D01*
X145665606Y-37750149D01*
X145659220Y-37800463D01*
X145639986Y-37846441D01*
X145627346Y-37865553D01*
X145591625Y-37900175D01*
X145650000Y-37900175D01*
X145650000Y-38185695D01*
X145187648Y-38185695D01*
X145146709Y-38185564D01*
X145096266Y-38184982D01*
X145039866Y-38183600D01*
X144990860Y-38181490D01*
X144941813Y-38177998D01*
X144888206Y-38170796D01*
X144840040Y-38153737D01*
X144797300Y-38122709D01*
X144763154Y-38082380D01*
X144756972Y-38072888D01*
X144734091Y-38023444D01*
X144720532Y-37970249D01*
X144713902Y-37916565D01*
X144712107Y-37865248D01*
X144713653Y-37822006D01*
X144720522Y-37769158D01*
X144734819Y-37716272D01*
X144756071Y-37670342D01*
X144781882Y-37631851D01*
X144816368Y-37595562D01*
X144857676Y-37569470D01*
X144868896Y-37564974D01*
X144917088Y-37552273D01*
X144970516Y-37545885D01*
X145019853Y-37544313D01*
X145087264Y-37544313D01*
X145087264Y-37820307D01*
G37*
G36*
X144727739Y-38560363D02*
G01*
X144787334Y-38556944D01*
X144753289Y-38592081D01*
X144737508Y-38617516D01*
X144719276Y-38663058D01*
X144712206Y-38714503D01*
X144712107Y-38721808D01*
X144717053Y-38773717D01*
X144733574Y-38821425D01*
X144747278Y-38843441D01*
X144783939Y-38880403D01*
X144828436Y-38902445D01*
X144834961Y-38904257D01*
X144883825Y-38912592D01*
X144932915Y-38916319D01*
X144985503Y-38917815D01*
X145007397Y-38917935D01*
X145650000Y-38917935D01*
X145650000Y-38624843D01*
X145011549Y-38624843D01*
X144960911Y-38624319D01*
X144910551Y-38621296D01*
X144901395Y-38619470D01*
X144884054Y-38592115D01*
X144904570Y-38561585D01*
X144957317Y-38556282D01*
X145008111Y-38555290D01*
X145026448Y-38555234D01*
X145650000Y-38555234D01*
X145650000Y-38262143D01*
X144727739Y-38262143D01*
X144727739Y-38560363D01*
G37*
G36*
X145087264Y-39622820D02*
G01*
X145087264Y-39345604D01*
X144972226Y-39345604D01*
X144923050Y-39343208D01*
X144901151Y-39338033D01*
X144884054Y-39311410D01*
X144898220Y-39285520D01*
X144947486Y-39279009D01*
X144971004Y-39278682D01*
X145403314Y-39278682D01*
X145452315Y-39282879D01*
X145472191Y-39289428D01*
X145493684Y-39319714D01*
X145470969Y-39351222D01*
X145420540Y-39358975D01*
X145377669Y-39360014D01*
X145259211Y-39360014D01*
X145259211Y-39622820D01*
X145313998Y-39622041D01*
X145366473Y-39620180D01*
X145417438Y-39616488D01*
X145432379Y-39614760D01*
X145481713Y-39602084D01*
X145528612Y-39579095D01*
X145546929Y-39567377D01*
X145586874Y-39534083D01*
X145618782Y-39493921D01*
X145635589Y-39463329D01*
X145652693Y-39415675D01*
X145662081Y-39366292D01*
X145665514Y-39316912D01*
X145665631Y-39305304D01*
X145663668Y-39255282D01*
X145656615Y-39203838D01*
X145642550Y-39153263D01*
X145624598Y-39114795D01*
X145595628Y-39074580D01*
X145556432Y-39039711D01*
X145509560Y-39014655D01*
X145457463Y-38999328D01*
X145407370Y-38991153D01*
X145357403Y-38986981D01*
X145301709Y-38985590D01*
X145044521Y-38985590D01*
X144989658Y-38987086D01*
X144936331Y-38992345D01*
X144887501Y-39002630D01*
X144867201Y-39009526D01*
X144823661Y-39035286D01*
X144787068Y-39072296D01*
X144759490Y-39112108D01*
X144736585Y-39158817D01*
X144721176Y-39210743D01*
X144713773Y-39261278D01*
X144712107Y-39301885D01*
X144715053Y-39355221D01*
X144723892Y-39404589D01*
X144740878Y-39455383D01*
X144759246Y-39491417D01*
X144787713Y-39531738D01*
X144823920Y-39566705D01*
X144869313Y-39593212D01*
X144878192Y-39596686D01*
X144929464Y-39610467D01*
X144979686Y-39617818D01*
X145030343Y-39621569D01*
X145087264Y-39622820D01*
G37*
G36*
X145087264Y-39949128D02*
G01*
X144986147Y-39949128D01*
X144949804Y-39949573D01*
X144898709Y-39954746D01*
X144884054Y-39983322D01*
X144902128Y-40012143D01*
X144938072Y-40019648D01*
X144987613Y-40021424D01*
X145220132Y-40021424D01*
X145397452Y-40021424D01*
X145428548Y-40021012D01*
X145480251Y-40014829D01*
X145493684Y-39987230D01*
X145475610Y-39956944D01*
X145435259Y-39950418D01*
X145386217Y-39949128D01*
X145340571Y-39950781D01*
X145291695Y-39959142D01*
X145253184Y-39983777D01*
X145220132Y-40021424D01*
X144987613Y-40021424D01*
X145009250Y-40021015D01*
X145057711Y-40012876D01*
X145063713Y-40007145D01*
X145087635Y-39963614D01*
X145108327Y-39916269D01*
X145126831Y-39870482D01*
X145139238Y-39839555D01*
X145160123Y-39792631D01*
X145185431Y-39745765D01*
X145216468Y-39706839D01*
X145255154Y-39686300D01*
X145307090Y-39675800D01*
X145361304Y-39673134D01*
X145436775Y-39673134D01*
X145486844Y-39675366D01*
X145536381Y-39683614D01*
X145586022Y-39703149D01*
X145622644Y-39736637D01*
X145645313Y-39777471D01*
X145660552Y-39825034D01*
X145665631Y-39875367D01*
X145665606Y-39878969D01*
X145659220Y-39929283D01*
X145639986Y-39975262D01*
X145627346Y-39994374D01*
X145591625Y-40028996D01*
X145650000Y-40028996D01*
X145650000Y-40314515D01*
X145187648Y-40314515D01*
X145146709Y-40314385D01*
X145096266Y-40313803D01*
X145039866Y-40312420D01*
X144990860Y-40310311D01*
X144941813Y-40306819D01*
X144888206Y-40299617D01*
X144840040Y-40282557D01*
X144797300Y-40251529D01*
X144763154Y-40211201D01*
X144756972Y-40201709D01*
X144734091Y-40152264D01*
X144720532Y-40099069D01*
X144713902Y-40045386D01*
X144712107Y-39994069D01*
X144713653Y-39950826D01*
X144720522Y-39897978D01*
X144734819Y-39845093D01*
X144756071Y-39799163D01*
X144781882Y-39760671D01*
X144816368Y-39724383D01*
X144857676Y-39698291D01*
X144868896Y-39693795D01*
X144917088Y-39681094D01*
X144970516Y-39674706D01*
X145019853Y-39673134D01*
X145087264Y-39673134D01*
X145087264Y-39949128D01*
G37*
G36*
X144727739Y-40689184D02*
G01*
X144787334Y-40685765D01*
X144753289Y-40720901D01*
X144737508Y-40746337D01*
X144719276Y-40791878D01*
X144712206Y-40843323D01*
X144712107Y-40850629D01*
X144717053Y-40902538D01*
X144733574Y-40950246D01*
X144747278Y-40972261D01*
X144783939Y-41009223D01*
X144828436Y-41031266D01*
X144834961Y-41033078D01*
X144883825Y-41041413D01*
X144932915Y-41045139D01*
X144985503Y-41046635D01*
X145007397Y-41046756D01*
X145650000Y-41046756D01*
X145650000Y-40753664D01*
X145011549Y-40753664D01*
X144960911Y-40753139D01*
X144910551Y-40750117D01*
X144901395Y-40748291D01*
X144884054Y-40720936D01*
X144904570Y-40690405D01*
X144957317Y-40685103D01*
X145008111Y-40684111D01*
X145026448Y-40684055D01*
X145650000Y-40684055D01*
X145650000Y-40390963D01*
X144727739Y-40390963D01*
X144727739Y-40689184D01*
G37*
G36*
X144602686Y-41430950D02*
G01*
X144743370Y-41430950D01*
X144743370Y-41505688D01*
X144899685Y-41505688D01*
X144899685Y-41430950D01*
X145388904Y-41430950D01*
X145440334Y-41431786D01*
X145485624Y-41438033D01*
X145493298Y-41488903D01*
X145493684Y-41517411D01*
X145650000Y-41517411D01*
X145650000Y-41397732D01*
X145649362Y-41348245D01*
X145646851Y-41299253D01*
X145641939Y-41260224D01*
X145624329Y-41213609D01*
X145603349Y-41185485D01*
X145564253Y-41155521D01*
X145534228Y-41144941D01*
X145481481Y-41139598D01*
X145427527Y-41137744D01*
X145374717Y-41137156D01*
X145357885Y-41137125D01*
X144899685Y-41137125D01*
X144899685Y-41077286D01*
X144743370Y-41077286D01*
X144743370Y-41137125D01*
X144602686Y-41137125D01*
X144602686Y-41430950D01*
G37*
G36*
X145366223Y-41541530D02*
G01*
X145416856Y-41545537D01*
X145468771Y-41555025D01*
X145482189Y-41559120D01*
X145526989Y-41579282D01*
X145568422Y-41608514D01*
X145587363Y-41626942D01*
X145617576Y-41668792D01*
X145639741Y-41716225D01*
X145641334Y-41720550D01*
X145655518Y-41770768D01*
X145663103Y-41820628D01*
X145665631Y-41874495D01*
X145665606Y-41880220D01*
X145663079Y-41929087D01*
X145655422Y-41977763D01*
X145639497Y-42028368D01*
X145628787Y-42050784D01*
X145599336Y-42094170D01*
X145561339Y-42130461D01*
X145554832Y-42135413D01*
X145510720Y-42163556D01*
X145463398Y-42181752D01*
X145430955Y-42187548D01*
X145382137Y-42191670D01*
X145333217Y-42192743D01*
X145259211Y-42192743D01*
X145259211Y-41914062D01*
X145386706Y-41914062D01*
X145423485Y-41913155D01*
X145473168Y-41904781D01*
X145493684Y-41868877D01*
X145478785Y-41840789D01*
X145452346Y-41835294D01*
X145403314Y-41833462D01*
X145212316Y-41833462D01*
X145212316Y-42192743D01*
X145084577Y-42192743D01*
X145076315Y-42192712D01*
X145021685Y-42190774D01*
X144972664Y-42185820D01*
X144923511Y-42176466D01*
X144876971Y-42161236D01*
X144867774Y-42157146D01*
X144825222Y-42131228D01*
X144788395Y-42096199D01*
X144757292Y-42052059D01*
X144735450Y-42004987D01*
X144722035Y-41957695D01*
X144714269Y-41905275D01*
X144712666Y-41868144D01*
X144884054Y-41868144D01*
X144902372Y-41892324D01*
X144943413Y-41897830D01*
X144993719Y-41898919D01*
X145056001Y-41898919D01*
X145056001Y-41833462D01*
X144993719Y-41833462D01*
X144950509Y-41834010D01*
X144899441Y-41839079D01*
X144884054Y-41868144D01*
X144712666Y-41868144D01*
X144712107Y-41855199D01*
X144712695Y-41831180D01*
X144718315Y-41779647D01*
X144729885Y-41731591D01*
X144749720Y-41682275D01*
X144776320Y-41639232D01*
X144813073Y-41601417D01*
X144857676Y-41573587D01*
X144896083Y-41559055D01*
X144946736Y-41547669D01*
X144998378Y-41541960D01*
X145048674Y-41540370D01*
X145312700Y-41540370D01*
X145366223Y-41541530D01*
G37*
G36*
X144524528Y-42565213D02*
G01*
X145650000Y-42565213D01*
X145650000Y-42263818D01*
X144524528Y-42263818D01*
X144524528Y-42565213D01*
G37*
G36*
X145327158Y-42638621D02*
G01*
X145379036Y-42640304D01*
X145428860Y-42644497D01*
X145481228Y-42653873D01*
X145495684Y-42658110D01*
X145542193Y-42678105D01*
X145582344Y-42706141D01*
X145594954Y-42718294D01*
X145624740Y-42759808D01*
X145645115Y-42808235D01*
X145647599Y-42816526D01*
X145658398Y-42866014D01*
X145664008Y-42916714D01*
X145665631Y-42966993D01*
X145663270Y-43017645D01*
X145655218Y-43069064D01*
X145641451Y-43115981D01*
X145627682Y-43147122D01*
X145600731Y-43188338D01*
X145566224Y-43222959D01*
X145550099Y-43235366D01*
X145506555Y-43260869D01*
X145457048Y-43277425D01*
X145428424Y-43282374D01*
X145376827Y-43287335D01*
X145326483Y-43289518D01*
X145275819Y-43290126D01*
X145054047Y-43290126D01*
X145013951Y-43289460D01*
X144960341Y-43285721D01*
X144908722Y-43276204D01*
X144899635Y-43273429D01*
X144854970Y-43253243D01*
X144814445Y-43224913D01*
X144795209Y-43207068D01*
X144764012Y-43165990D01*
X144740439Y-43118912D01*
X144735376Y-43105811D01*
X144722095Y-43058795D01*
X144714348Y-43006626D01*
X144712533Y-42965039D01*
X144884054Y-42965039D01*
X144899197Y-42990684D01*
X144933235Y-42995819D01*
X144983217Y-42997035D01*
X145406245Y-42997035D01*
X145429418Y-42996719D01*
X145478785Y-42990440D01*
X145493684Y-42964306D01*
X145477320Y-42938416D01*
X145446438Y-42933080D01*
X145397208Y-42931578D01*
X144983217Y-42931578D01*
X144948842Y-42932119D01*
X144899441Y-42938416D01*
X144884054Y-42965039D01*
X144712533Y-42965039D01*
X144712107Y-42955269D01*
X144713661Y-42914170D01*
X144720569Y-42863727D01*
X144734945Y-42812926D01*
X144756315Y-42768423D01*
X144786759Y-42726888D01*
X144826750Y-42691392D01*
X144873551Y-42666574D01*
X144913363Y-42654286D01*
X144966326Y-42644658D01*
X145020670Y-42639830D01*
X145073831Y-42638486D01*
X145305861Y-42638486D01*
X145327158Y-42638621D01*
G37*
G36*
X145650000Y-43635485D02*
G01*
X145588695Y-43650873D01*
X145616773Y-43679413D01*
X145643405Y-43720970D01*
X145660075Y-43766461D01*
X145665631Y-43815492D01*
X145664317Y-43841209D01*
X145652457Y-43892393D01*
X145628262Y-43937370D01*
X145621139Y-43946746D01*
X145584835Y-43981701D01*
X145540334Y-44003071D01*
X145490875Y-44012085D01*
X145441692Y-44015892D01*
X145389148Y-44016993D01*
X144981263Y-44016993D01*
X144951428Y-44016879D01*
X144897670Y-44015833D01*
X144848639Y-44012352D01*
X144826440Y-44006968D01*
X144782937Y-43984508D01*
X144756223Y-43960279D01*
X144730669Y-43917586D01*
X144729527Y-43914839D01*
X144716186Y-43866998D01*
X144712107Y-43815492D01*
X144716669Y-43769192D01*
X144732868Y-43720482D01*
X144747579Y-43693022D01*
X144751940Y-43687753D01*
X144884054Y-43687753D01*
X144902616Y-43716330D01*
X144939728Y-43722452D01*
X144991032Y-43723901D01*
X145377180Y-43723901D01*
X145424955Y-43723093D01*
X145475610Y-43717063D01*
X145493684Y-43689707D01*
X145476099Y-43662108D01*
X145435928Y-43656194D01*
X145386217Y-43655025D01*
X144991032Y-43655025D01*
X144949812Y-43655645D01*
X144899930Y-43661375D01*
X144884054Y-43687753D01*
X144751940Y-43687753D01*
X144779030Y-43655025D01*
X144524528Y-43655025D01*
X144524528Y-43361933D01*
X145650000Y-43361933D01*
X145650000Y-43635485D01*
G37*
G36*
X144727739Y-44382624D02*
G01*
X144866224Y-44363085D01*
X144816361Y-44386260D01*
X144776133Y-44414571D01*
X144741376Y-44454089D01*
X144719733Y-44500596D01*
X144711618Y-44546023D01*
X145056001Y-44546023D01*
X145058223Y-44495346D01*
X145068416Y-44444753D01*
X145074808Y-44430496D01*
X145109665Y-44395869D01*
X145127564Y-44389463D01*
X145180039Y-44384028D01*
X145231566Y-44382365D01*
X145282034Y-44381899D01*
X145289986Y-44381892D01*
X145650000Y-44381892D01*
X145650000Y-44088800D01*
X144727739Y-44088800D01*
X144727739Y-44382624D01*
G37*
G36*
X145366223Y-44582841D02*
G01*
X145416856Y-44586849D01*
X145468771Y-44596337D01*
X145482189Y-44600432D01*
X145526989Y-44620594D01*
X145568422Y-44649826D01*
X145587363Y-44668254D01*
X145617576Y-44710104D01*
X145639741Y-44757537D01*
X145641334Y-44761862D01*
X145655518Y-44812080D01*
X145663103Y-44861939D01*
X145665631Y-44915806D01*
X145665606Y-44921532D01*
X145663079Y-44970399D01*
X145655422Y-45019075D01*
X145639497Y-45069679D01*
X145628787Y-45092096D01*
X145599336Y-45135482D01*
X145561339Y-45171773D01*
X145554832Y-45176725D01*
X145510720Y-45204868D01*
X145463398Y-45223064D01*
X145430955Y-45228860D01*
X145382137Y-45232982D01*
X145333217Y-45234055D01*
X145259211Y-45234055D01*
X145259211Y-44955374D01*
X145386706Y-44955374D01*
X145423485Y-44954467D01*
X145473168Y-44946093D01*
X145493684Y-44910189D01*
X145478785Y-44882101D01*
X145452346Y-44876605D01*
X145403314Y-44874774D01*
X145212316Y-44874774D01*
X145212316Y-45234055D01*
X145084577Y-45234055D01*
X145076315Y-45234024D01*
X145021685Y-45232086D01*
X144972664Y-45227132D01*
X144923511Y-45217778D01*
X144876971Y-45202548D01*
X144867774Y-45198457D01*
X144825222Y-45172540D01*
X144788395Y-45137511D01*
X144757292Y-45093371D01*
X144735450Y-45046299D01*
X144722035Y-44999007D01*
X144714269Y-44946587D01*
X144712666Y-44909456D01*
X144884054Y-44909456D01*
X144902372Y-44933636D01*
X144943413Y-44939142D01*
X144993719Y-44940231D01*
X145056001Y-44940231D01*
X145056001Y-44874774D01*
X144993719Y-44874774D01*
X144950509Y-44875322D01*
X144899441Y-44880391D01*
X144884054Y-44909456D01*
X144712666Y-44909456D01*
X144712107Y-44896511D01*
X144712695Y-44872492D01*
X144718315Y-44820959D01*
X144729885Y-44772903D01*
X144749720Y-44723587D01*
X144776320Y-44680544D01*
X144813073Y-44642729D01*
X144857676Y-44614899D01*
X144896083Y-44600367D01*
X144946736Y-44588981D01*
X144998378Y-44583272D01*
X145048674Y-44581682D01*
X145312700Y-44581682D01*
X145366223Y-44582841D01*
G37*
G36*
X145192536Y-45282716D02*
G01*
X145253364Y-45290215D01*
X145311025Y-45302714D01*
X145365518Y-45320212D01*
X145416843Y-45342709D01*
X145465001Y-45370205D01*
X145509991Y-45402701D01*
X145551814Y-45440196D01*
X145589481Y-45481400D01*
X145622125Y-45525024D01*
X145649748Y-45571068D01*
X145672348Y-45619531D01*
X145689926Y-45670414D01*
X145702481Y-45723716D01*
X145710015Y-45779438D01*
X145712526Y-45837579D01*
X145712291Y-45854871D01*
X145708770Y-45906516D01*
X145701025Y-45957819D01*
X145689055Y-46008778D01*
X145672861Y-46059393D01*
X145652442Y-46109665D01*
X145636330Y-46142604D01*
X145608068Y-46190051D01*
X145574895Y-46235145D01*
X145536810Y-46277887D01*
X145501321Y-46311708D01*
X145462421Y-46343894D01*
X145462421Y-46181229D01*
X145481402Y-46156420D01*
X145511602Y-46110984D01*
X145536700Y-46064543D01*
X145556699Y-46017097D01*
X145565564Y-45990227D01*
X145577736Y-45940689D01*
X145585039Y-45889643D01*
X145587473Y-45837090D01*
X145586984Y-45813360D01*
X145581478Y-45756362D01*
X145569853Y-45702692D01*
X145552111Y-45652349D01*
X145528251Y-45605334D01*
X145498273Y-45561645D01*
X145462177Y-45521284D01*
X145429402Y-45492319D01*
X145384528Y-45461543D01*
X145335312Y-45436801D01*
X145281755Y-45418094D01*
X145223857Y-45405422D01*
X145174413Y-45399629D01*
X145122191Y-45397698D01*
X145067965Y-45399678D01*
X145016540Y-45405620D01*
X144967917Y-45415523D01*
X144911077Y-45433473D01*
X144858614Y-45457612D01*
X144810527Y-45487941D01*
X144766817Y-45524460D01*
X144750728Y-45540602D01*
X144715046Y-45583286D01*
X144685851Y-45629297D01*
X144663144Y-45678636D01*
X144646925Y-45731302D01*
X144637193Y-45787295D01*
X144633949Y-45846616D01*
X144634866Y-45877552D01*
X144640467Y-45926575D01*
X144653911Y-45981215D01*
X144674688Y-46031286D01*
X144702798Y-46076790D01*
X144738241Y-46117726D01*
X144758369Y-46136145D01*
X144802063Y-46167550D01*
X144850343Y-46191707D01*
X144903209Y-46208617D01*
X144960659Y-46218280D01*
X145012037Y-46220796D01*
X145036793Y-46220243D01*
X145089565Y-46214951D01*
X145138279Y-46204057D01*
X145187648Y-46185381D01*
X145222697Y-46167078D01*
X145263312Y-46139568D01*
X145300000Y-46103559D01*
X145324195Y-46066986D01*
X145337369Y-46018319D01*
X145317829Y-46000733D01*
X145294382Y-46003420D01*
X144727739Y-46091836D01*
X144727739Y-45939672D01*
X144810537Y-45930635D01*
X144784257Y-45909832D01*
X144753628Y-45870307D01*
X144734211Y-45826283D01*
X144730544Y-45798500D01*
X144852791Y-45798500D01*
X144856774Y-45824580D01*
X144886496Y-45863469D01*
X144925881Y-45881604D01*
X144976622Y-45887649D01*
X145017873Y-45886281D01*
X145072182Y-45880505D01*
X145121656Y-45871575D01*
X145172260Y-45859072D01*
X145218896Y-45844662D01*
X145264782Y-45825962D01*
X145305861Y-45798500D01*
X145325061Y-45773164D01*
X145337369Y-45724983D01*
X145330838Y-45693709D01*
X145297801Y-45657572D01*
X145295294Y-45655994D01*
X145249987Y-45637561D01*
X145198639Y-45631926D01*
X145166998Y-45632613D01*
X145113040Y-45637121D01*
X145060883Y-45645837D01*
X145010525Y-45658760D01*
X144961967Y-45675890D01*
X144942456Y-45684480D01*
X144899809Y-45710324D01*
X144865692Y-45748639D01*
X144852791Y-45798500D01*
X144730544Y-45798500D01*
X144727739Y-45777251D01*
X144732453Y-45730740D01*
X144749868Y-45679993D01*
X144780117Y-45633033D01*
X144816258Y-45595796D01*
X144861828Y-45561340D01*
X144878704Y-45550693D01*
X144922173Y-45527080D01*
X144967467Y-45507760D01*
X145014585Y-45492733D01*
X145063528Y-45482000D01*
X145114295Y-45475560D01*
X145166887Y-45473413D01*
X145183411Y-45473662D01*
X145237983Y-45478455D01*
X145287482Y-45489350D01*
X145337842Y-45509271D01*
X145381577Y-45537160D01*
X145409051Y-45562560D01*
X145439605Y-45606261D01*
X145457368Y-45656687D01*
X145462421Y-45707153D01*
X145459116Y-45744942D01*
X145442393Y-45791906D01*
X145417419Y-45827992D01*
X145382554Y-45864934D01*
X145424671Y-45883357D01*
X145454621Y-45925489D01*
X145462421Y-45977286D01*
X145462301Y-45984856D01*
X145454773Y-46037766D01*
X145435534Y-46090537D01*
X145409722Y-46135657D01*
X145375307Y-46180674D01*
X145340055Y-46218109D01*
X145308063Y-46246216D01*
X145264134Y-46276080D01*
X145215828Y-46300088D01*
X145163146Y-46318241D01*
X145106086Y-46330537D01*
X145057287Y-46336159D01*
X145005687Y-46338033D01*
X144995784Y-46337967D01*
X144938459Y-46334807D01*
X144884724Y-46326907D01*
X144834578Y-46314268D01*
X144788021Y-46296888D01*
X144738241Y-46270622D01*
X144711935Y-46253250D01*
X144669482Y-46220351D01*
X144631586Y-46184274D01*
X144598249Y-46145018D01*
X144569469Y-46102582D01*
X144545867Y-46055811D01*
X144528062Y-46003547D01*
X144517415Y-45954377D01*
X144511026Y-45901171D01*
X144508897Y-45843929D01*
X144511706Y-45779373D01*
X144520132Y-45718450D01*
X144534176Y-45661159D01*
X144553838Y-45607502D01*
X144579117Y-45557478D01*
X144610013Y-45511087D01*
X144646528Y-45468330D01*
X144688660Y-45429205D01*
X144734856Y-45394286D01*
X144783563Y-45364023D01*
X144834782Y-45338415D01*
X144888511Y-45317464D01*
X144944752Y-45301168D01*
X145003504Y-45289529D01*
X145064767Y-45282545D01*
X145128541Y-45280217D01*
X145192536Y-45282716D01*
G37*
G36*
X145580662Y-46381281D02*
G01*
X145637116Y-46387507D01*
X145684313Y-46401423D01*
X145726918Y-46426744D01*
X145760397Y-46467237D01*
X145765958Y-46477848D01*
X145784612Y-46524300D01*
X145797526Y-46577163D01*
X145804118Y-46628678D01*
X145806315Y-46685102D01*
X145805707Y-46718260D01*
X145802203Y-46767643D01*
X145794540Y-46817798D01*
X145781402Y-46866818D01*
X145769416Y-46897154D01*
X145743810Y-46942142D01*
X145708862Y-46980880D01*
X145705890Y-46983426D01*
X145665285Y-47011956D01*
X145618492Y-47028751D01*
X145581965Y-47032358D01*
X145532573Y-47034461D01*
X145483337Y-47035350D01*
X145433600Y-47035590D01*
X144727739Y-47035590D01*
X144727739Y-46763748D01*
X144789288Y-46746162D01*
X144761209Y-46718338D01*
X144756215Y-46710503D01*
X144884054Y-46710503D01*
X144897976Y-46735904D01*
X144923682Y-46740301D01*
X144972958Y-46741766D01*
X145255059Y-46741766D01*
X145300528Y-46740929D01*
X145349825Y-46734683D01*
X145368632Y-46705618D01*
X145353733Y-46680461D01*
X145329769Y-46676078D01*
X145278995Y-46674355D01*
X144972958Y-46674355D01*
X144950465Y-46674752D01*
X144900662Y-46682659D01*
X144884054Y-46710503D01*
X144756215Y-46710503D01*
X144734577Y-46676553D01*
X144733195Y-46673765D01*
X144717044Y-46626565D01*
X144712107Y-46577879D01*
X144712336Y-46565680D01*
X144719034Y-46515650D01*
X144737352Y-46469397D01*
X144770725Y-46429868D01*
X144804568Y-46408603D01*
X144853480Y-46391943D01*
X144906591Y-46383589D01*
X144960502Y-46381264D01*
X145286810Y-46381264D01*
X145329706Y-46382424D01*
X145380411Y-46387808D01*
X145427983Y-46399826D01*
X145437249Y-46403588D01*
X145478558Y-46430832D01*
X145509560Y-46468947D01*
X145523131Y-46495874D01*
X145536913Y-46546665D01*
X145540579Y-46596441D01*
X145537259Y-46634970D01*
X145523237Y-46682171D01*
X145511841Y-46706099D01*
X145483914Y-46746651D01*
X145539357Y-46746651D01*
X145567232Y-46746101D01*
X145617515Y-46737858D01*
X145634368Y-46702199D01*
X145620629Y-46676253D01*
X145571842Y-46666051D01*
X145571842Y-46381019D01*
X145580662Y-46381281D01*
G37*
G36*
X144524528Y-47416853D02*
G01*
X144680844Y-47416853D01*
X144680844Y-47115458D01*
X144524528Y-47115458D01*
X144524528Y-47416853D01*
G37*
G36*
X144727739Y-47416853D02*
G01*
X145650000Y-47416853D01*
X145650000Y-47115458D01*
X144727739Y-47115458D01*
X144727739Y-47416853D01*
G37*
G36*
X144602686Y-47806665D02*
G01*
X144743370Y-47806665D01*
X144743370Y-47881403D01*
X144899685Y-47881403D01*
X144899685Y-47806665D01*
X145388904Y-47806665D01*
X145440334Y-47807502D01*
X145485624Y-47813748D01*
X145493298Y-47864618D01*
X145493684Y-47893127D01*
X145650000Y-47893127D01*
X145650000Y-47773448D01*
X145649362Y-47723961D01*
X145646851Y-47674968D01*
X145641939Y-47635939D01*
X145624329Y-47589324D01*
X145603349Y-47561201D01*
X145564253Y-47531236D01*
X145534228Y-47520656D01*
X145481481Y-47515314D01*
X145427527Y-47513459D01*
X145374717Y-47512871D01*
X145357885Y-47512841D01*
X144899685Y-47512841D01*
X144899685Y-47453001D01*
X144743370Y-47453001D01*
X144743370Y-47512841D01*
X144602686Y-47512841D01*
X144602686Y-47806665D01*
G37*
G36*
X144524528Y-48217481D02*
G01*
X144769260Y-48217481D01*
X144741008Y-48258957D01*
X144729692Y-48283915D01*
X144715971Y-48331243D01*
X144712107Y-48375751D01*
X144716667Y-48424872D01*
X144732043Y-48472533D01*
X144750697Y-48504222D01*
X144783788Y-48540789D01*
X144826779Y-48565852D01*
X144839113Y-48569435D01*
X144887576Y-48576728D01*
X144938485Y-48579989D01*
X144994214Y-48581298D01*
X145017655Y-48581403D01*
X145650000Y-48581403D01*
X145650000Y-48288312D01*
X145001046Y-48288312D01*
X144950557Y-48287350D01*
X144903349Y-48281473D01*
X144884054Y-48252896D01*
X144904326Y-48225053D01*
X144954491Y-48218221D01*
X144992254Y-48217481D01*
X145650000Y-48217481D01*
X145650000Y-47924390D01*
X144524528Y-47924390D01*
X144524528Y-48217481D01*
G37*
G36*
X144727739Y-49308026D02*
G01*
X145650000Y-49308026D01*
X145650000Y-49009561D01*
X145595533Y-49012980D01*
X145629514Y-48975519D01*
X145641451Y-48955339D01*
X145659586Y-48908139D01*
X145665607Y-48858011D01*
X145665631Y-48854467D01*
X145661882Y-48805583D01*
X145648240Y-48757895D01*
X145642916Y-48746756D01*
X145612374Y-48705505D01*
X145582100Y-48683252D01*
X145536283Y-48664400D01*
X145503942Y-48657851D01*
X145453954Y-48654512D01*
X145400215Y-48653272D01*
X145346406Y-48652966D01*
X144727739Y-48652966D01*
X144727739Y-48946058D01*
X145355198Y-48946058D01*
X145407399Y-48946483D01*
X145458037Y-48948597D01*
X145477076Y-48951431D01*
X145493684Y-48980252D01*
X145476587Y-49010049D01*
X145427480Y-49013999D01*
X145374620Y-49014858D01*
X145348360Y-49014934D01*
X144727739Y-49014934D01*
X144727739Y-49308026D01*
G37*
G36*
X145650000Y-49661445D02*
G01*
X145588695Y-49676832D01*
X145616773Y-49705372D01*
X145643405Y-49746930D01*
X145660075Y-49792420D01*
X145665631Y-49841452D01*
X145664317Y-49867169D01*
X145652457Y-49918353D01*
X145628262Y-49963329D01*
X145621139Y-49972705D01*
X145584835Y-50007660D01*
X145540334Y-50029030D01*
X145490875Y-50038044D01*
X145441692Y-50041851D01*
X145389148Y-50042952D01*
X144981263Y-50042952D01*
X144951428Y-50042839D01*
X144897670Y-50041792D01*
X144848639Y-50038312D01*
X144826440Y-50032928D01*
X144782937Y-50010468D01*
X144756223Y-49986238D01*
X144730669Y-49943545D01*
X144729527Y-49940799D01*
X144716186Y-49892958D01*
X144712107Y-49841452D01*
X144716669Y-49795152D01*
X144732868Y-49746441D01*
X144747579Y-49718982D01*
X144751940Y-49713713D01*
X144884054Y-49713713D01*
X144902616Y-49742289D01*
X144939728Y-49748412D01*
X144991032Y-49749861D01*
X145377180Y-49749861D01*
X145424955Y-49749053D01*
X145475610Y-49743022D01*
X145493684Y-49715667D01*
X145476099Y-49688067D01*
X145435928Y-49682153D01*
X145386217Y-49680984D01*
X144991032Y-49680984D01*
X144949812Y-49681605D01*
X144899930Y-49687335D01*
X144884054Y-49713713D01*
X144751940Y-49713713D01*
X144779030Y-49680984D01*
X144524528Y-49680984D01*
X144524528Y-49387893D01*
X145650000Y-49387893D01*
X145650000Y-49661445D01*
G37*
G36*
X146204528Y-41388939D02*
G01*
X147330000Y-41388939D01*
X147330000Y-41095603D01*
X146719637Y-41095603D01*
X146668040Y-41095323D01*
X146616505Y-41094138D01*
X146567622Y-41090102D01*
X146566008Y-41089741D01*
X146529616Y-41058967D01*
X146519544Y-41008718D01*
X146517269Y-40956401D01*
X146517159Y-40939288D01*
X146517159Y-40904117D01*
X146381849Y-40904117D01*
X146369568Y-40953725D01*
X146354463Y-41000211D01*
X146331611Y-41053929D01*
X146304346Y-41102769D01*
X146272668Y-41146732D01*
X146236578Y-41185817D01*
X146204528Y-41213572D01*
X146204528Y-41388939D01*
G37*
G36*
X146994835Y-41477991D02*
G01*
X147046588Y-41479835D01*
X147095431Y-41484426D01*
X147145108Y-41494696D01*
X147162015Y-41500535D01*
X147208150Y-41522975D01*
X147249399Y-41551849D01*
X147269841Y-41570884D01*
X147301167Y-41613119D01*
X147322428Y-41660048D01*
X147327866Y-41677477D01*
X147338289Y-41725558D01*
X147343796Y-41774337D01*
X147345631Y-41828332D01*
X147343873Y-41870587D01*
X147336949Y-41919083D01*
X147323405Y-41968039D01*
X147312207Y-41994624D01*
X147284154Y-42039346D01*
X147249888Y-42075261D01*
X147230488Y-42090940D01*
X147186687Y-42117489D01*
X147140467Y-42133879D01*
X147111703Y-42139399D01*
X147059419Y-42144933D01*
X147008113Y-42147368D01*
X146956308Y-42148046D01*
X146589699Y-42148046D01*
X146566709Y-42147932D01*
X146511217Y-42146516D01*
X146458896Y-42142989D01*
X146405785Y-42135101D01*
X146391370Y-42131487D01*
X146343746Y-42112887D01*
X146300516Y-42085031D01*
X146275179Y-42061368D01*
X146245063Y-42020742D01*
X146221137Y-41974389D01*
X146215375Y-41960433D01*
X146200263Y-41911432D01*
X146191447Y-41858614D01*
X146189204Y-41813921D01*
X146360844Y-41813921D01*
X146380383Y-41847627D01*
X146386352Y-41849344D01*
X146435902Y-41854088D01*
X146488827Y-41854954D01*
X147050586Y-41854954D01*
X147103365Y-41853752D01*
X147153168Y-41846406D01*
X147173684Y-41812700D01*
X147156587Y-41778750D01*
X147145179Y-41775705D01*
X147094993Y-41771698D01*
X147042037Y-41770935D01*
X146488827Y-41770935D01*
X146483517Y-41770943D01*
X146433483Y-41772137D01*
X146381849Y-41779483D01*
X146360844Y-41813921D01*
X146189204Y-41813921D01*
X146188897Y-41807815D01*
X146191129Y-41759503D01*
X146199147Y-41708181D01*
X146212997Y-41661012D01*
X146235547Y-41612909D01*
X146244565Y-41598265D01*
X146274863Y-41559947D01*
X146314237Y-41527251D01*
X146359623Y-41504954D01*
X146385655Y-41497144D01*
X146434946Y-41487401D01*
X146485789Y-41481656D01*
X146535100Y-41478796D01*
X146589699Y-41477843D01*
X146973405Y-41477843D01*
X146994835Y-41477991D01*
G37*
G36*
X146173265Y-42744731D02*
G01*
X147345631Y-42410607D01*
X147345631Y-42184438D01*
X146173265Y-42520516D01*
X146173265Y-42744731D01*
G37*
G36*
X147158053Y-43394905D02*
G01*
X147330000Y-43394905D01*
X147330000Y-42768667D01*
X147194933Y-42768667D01*
X147137896Y-42801842D01*
X147083654Y-42833284D01*
X147032207Y-42862994D01*
X146983556Y-42890971D01*
X146937701Y-42917216D01*
X146894640Y-42941728D01*
X146835292Y-42975247D01*
X146782232Y-43004869D01*
X146735463Y-43030591D01*
X146682888Y-43058824D01*
X146632893Y-43084370D01*
X146617787Y-43091556D01*
X146572075Y-43111351D01*
X146525642Y-43128020D01*
X146476316Y-43139927D01*
X146447550Y-43142358D01*
X146398764Y-43136468D01*
X146381605Y-43128681D01*
X146360844Y-43087648D01*
X146383558Y-43046615D01*
X146431396Y-43034861D01*
X146479057Y-43032937D01*
X146595317Y-43032937D01*
X146595317Y-42768667D01*
X146547934Y-42768667D01*
X146494105Y-42769621D01*
X146443489Y-42772874D01*
X146401877Y-42778436D01*
X146354927Y-42792715D01*
X146311833Y-42815853D01*
X146295387Y-42827285D01*
X146256795Y-42862667D01*
X146226749Y-42905709D01*
X146215764Y-42928157D01*
X146199392Y-42978235D01*
X146191022Y-43030053D01*
X146188897Y-43076657D01*
X146191014Y-43127336D01*
X146199142Y-43182909D01*
X146213368Y-43232763D01*
X146237669Y-43283698D01*
X146270269Y-43326850D01*
X146275603Y-43332379D01*
X146315627Y-43366354D01*
X146360046Y-43391985D01*
X146408860Y-43409271D01*
X146462067Y-43418211D01*
X146494445Y-43419574D01*
X146544942Y-43416551D01*
X146596782Y-43407484D01*
X146649966Y-43392371D01*
X146697604Y-43374189D01*
X146704494Y-43371214D01*
X146754001Y-43346919D01*
X146807786Y-43317124D01*
X146859014Y-43287036D01*
X146902219Y-43260824D01*
X146949523Y-43231486D01*
X147000928Y-43199023D01*
X147056433Y-43163434D01*
X147116038Y-43124719D01*
X147158053Y-43097173D01*
X147158053Y-43394905D01*
G37*
G36*
X147126789Y-43743684D02*
G01*
X147330000Y-43743684D01*
X147330000Y-44036776D01*
X147126789Y-44036776D01*
X147126789Y-44115666D01*
X146923579Y-44115666D01*
X146923579Y-44036776D01*
X146204528Y-44036776D01*
X146204528Y-43751500D01*
X146458053Y-43751500D01*
X146923579Y-43743684D01*
X146923579Y-43639148D01*
X146458053Y-43751500D01*
X146204528Y-43751500D01*
X146204528Y-43655757D01*
X146930174Y-43413956D01*
X147126789Y-43413956D01*
X147126789Y-43743684D01*
G37*
D11*
%TO.C,G\u002A\u002A\u002A*%
G36*
X153704466Y-64818770D02*
G01*
X154377966Y-65205110D01*
X154615248Y-65367124D01*
X155062361Y-65742535D01*
X155260395Y-66022919D01*
X155185807Y-66159818D01*
X154815058Y-66104778D01*
X154739918Y-66089640D01*
X154505326Y-66176180D01*
X154256189Y-66505188D01*
X153962927Y-67124655D01*
X153595958Y-68082567D01*
X153537770Y-68232433D01*
X153355044Y-68504899D01*
X153157135Y-68437134D01*
X153133344Y-68409868D01*
X153070711Y-68145229D01*
X153169524Y-67670219D01*
X153443166Y-66913546D01*
X153957199Y-65617959D01*
X153457219Y-65290360D01*
X153131643Y-64997539D01*
X153163022Y-64756978D01*
X153290347Y-64705206D01*
X153704466Y-64818770D01*
G37*
G36*
X150499824Y-65432551D02*
G01*
X150400541Y-65798989D01*
X150320495Y-65991096D01*
X150223964Y-66448380D01*
X150205687Y-66905898D01*
X150265449Y-67232773D01*
X150403031Y-67298127D01*
X150436100Y-67272032D01*
X150657058Y-66961898D01*
X150898840Y-66471930D01*
X150991845Y-66267551D01*
X151233685Y-65926630D01*
X151409649Y-65952083D01*
X151494265Y-66319775D01*
X151462059Y-67005571D01*
X151425268Y-67444876D01*
X151461597Y-67886886D01*
X151608840Y-67953492D01*
X151852293Y-67645548D01*
X152177249Y-66963913D01*
X152436742Y-66403518D01*
X152653311Y-66122747D01*
X152830855Y-66150854D01*
X152882750Y-66266620D01*
X152861448Y-66694651D01*
X152706393Y-67273123D01*
X152458250Y-67869189D01*
X152157687Y-68350000D01*
X151811007Y-68571070D01*
X151353996Y-68528207D01*
X150993089Y-68187086D01*
X150959887Y-68127044D01*
X150744332Y-67900008D01*
X150486053Y-68011575D01*
X150366350Y-68090755D01*
X150047710Y-68091302D01*
X149798102Y-67811344D01*
X149638711Y-67338615D01*
X149590721Y-66760850D01*
X149675318Y-66165785D01*
X149913685Y-65641155D01*
X150079390Y-65447725D01*
X150358467Y-65304341D01*
X150499824Y-65432551D01*
G37*
G36*
X162670619Y-58368689D02*
G01*
X163374490Y-59091812D01*
X164393607Y-59783285D01*
X164463861Y-59823379D01*
X165071633Y-60196674D01*
X165506833Y-60510314D01*
X165679279Y-60700000D01*
X165658761Y-60735935D01*
X165362742Y-60839543D01*
X164781552Y-60933503D01*
X164000000Y-61002538D01*
X163466712Y-61043376D01*
X162319642Y-61233053D01*
X161464079Y-61587889D01*
X160828613Y-62164119D01*
X160341833Y-63017976D01*
X159932329Y-64205693D01*
X159712195Y-64818648D01*
X159258218Y-65605444D01*
X158549629Y-66455693D01*
X157915133Y-67078962D01*
X157324450Y-67510123D01*
X156919166Y-67620734D01*
X156718648Y-67415557D01*
X156742264Y-66899356D01*
X157009379Y-66076893D01*
X157255406Y-65306491D01*
X157298667Y-64584529D01*
X157098775Y-63867358D01*
X156631746Y-63071254D01*
X155873591Y-62112491D01*
X154757152Y-60804672D01*
X154251605Y-61202336D01*
X154245988Y-61206742D01*
X153818575Y-61484636D01*
X153496767Y-61600000D01*
X153422579Y-61619480D01*
X153106077Y-61856460D01*
X152731603Y-62276344D01*
X152684532Y-62336463D01*
X152074837Y-62888933D01*
X151426407Y-63124363D01*
X150821070Y-63011276D01*
X150807636Y-63004190D01*
X150448104Y-62940364D01*
X150094176Y-63206435D01*
X149951596Y-63335229D01*
X149415637Y-63562706D01*
X148841708Y-63555509D01*
X148403051Y-63303675D01*
X148297676Y-63188637D01*
X148075123Y-63113589D01*
X147734061Y-63303675D01*
X147377315Y-63484192D01*
X146835741Y-63600000D01*
X146808559Y-63599276D01*
X146316081Y-63412859D01*
X145786923Y-62972950D01*
X145328667Y-62389563D01*
X145048891Y-61772714D01*
X144897125Y-61187027D01*
X143950932Y-62312403D01*
X143451875Y-62971380D01*
X143023351Y-63659263D01*
X142774292Y-64206941D01*
X142702327Y-64473397D01*
X142654030Y-64926398D01*
X142746855Y-65414940D01*
X142999993Y-66099981D01*
X143240291Y-66803276D01*
X143284291Y-67326121D01*
X143076918Y-67555829D01*
X142614799Y-67504696D01*
X142353642Y-67367887D01*
X141831715Y-66912192D01*
X141260943Y-66256740D01*
X140717751Y-65501929D01*
X140278564Y-64748153D01*
X140019808Y-64095808D01*
X139953416Y-63844220D01*
X139560742Y-62766799D01*
X139030704Y-61991353D01*
X138301663Y-61470450D01*
X137311976Y-61156656D01*
X136000000Y-61002538D01*
X135707194Y-60982025D01*
X134986535Y-60902468D01*
X134496108Y-60803367D01*
X134320722Y-60700000D01*
X134323813Y-60687797D01*
X134528129Y-60482053D01*
X134985716Y-60159116D01*
X135606394Y-59783285D01*
X136102149Y-59478895D01*
X136966629Y-58780879D01*
X144657047Y-58780879D01*
X144686688Y-59499376D01*
X144782011Y-59907948D01*
X144912690Y-60085588D01*
X145116651Y-59986181D01*
X145189666Y-59929917D01*
X145476982Y-59853178D01*
X145621316Y-60137604D01*
X145627804Y-60791283D01*
X145632454Y-61227577D01*
X145822502Y-62001590D01*
X146203197Y-62603199D01*
X146718281Y-62922459D01*
X147018984Y-62953388D01*
X147373106Y-62875971D01*
X147551751Y-62713542D01*
X147443494Y-62526880D01*
X147410340Y-62493304D01*
X147346676Y-62153212D01*
X147404233Y-61576853D01*
X147426091Y-61438658D01*
X147461112Y-60743835D01*
X147389121Y-60162065D01*
X147371044Y-60096740D01*
X147324093Y-59668035D01*
X147501378Y-59471796D01*
X147756051Y-59416181D01*
X147991975Y-59559328D01*
X148085450Y-60004653D01*
X148053831Y-60793675D01*
X148017616Y-61471194D01*
X148080398Y-62054240D01*
X148277414Y-62493597D01*
X148463218Y-62716682D01*
X148945961Y-62977303D01*
X149438119Y-62931508D01*
X149814534Y-62572844D01*
X149900707Y-62302085D01*
X149970855Y-61665181D01*
X149962092Y-60872844D01*
X149936385Y-60379189D01*
X149946415Y-59889900D01*
X150031252Y-59658373D01*
X150207189Y-59600000D01*
X150493683Y-59634754D01*
X150681560Y-59851588D01*
X150561492Y-60304648D01*
X150473006Y-60546961D01*
X150415004Y-61195570D01*
X150569095Y-61792656D01*
X150884182Y-62251119D01*
X151309166Y-62483859D01*
X151792950Y-62403773D01*
X151802183Y-62398725D01*
X152174219Y-62000502D01*
X152435349Y-61375854D01*
X152539195Y-60689599D01*
X152439377Y-60106552D01*
X152315598Y-59701144D01*
X152437883Y-59476587D01*
X152590943Y-59450815D01*
X152872755Y-59648134D01*
X153104051Y-60049994D01*
X153200000Y-60538225D01*
X153204116Y-60667076D01*
X153304229Y-60949549D01*
X153573665Y-60924824D01*
X154059564Y-60596075D01*
X154498312Y-60042753D01*
X154811169Y-59128213D01*
X154860036Y-58902024D01*
X154947969Y-58293899D01*
X154898209Y-57830098D01*
X154699351Y-57326879D01*
X154618334Y-57169571D01*
X154074230Y-56416751D01*
X153353348Y-55727060D01*
X152573145Y-55199252D01*
X151851078Y-54932087D01*
X151312073Y-54906221D01*
X150454406Y-54960771D01*
X149466589Y-55085492D01*
X148481116Y-55259875D01*
X147630480Y-55463415D01*
X147047174Y-55675605D01*
X146864304Y-55788435D01*
X146306114Y-56266389D01*
X145700825Y-56919912D01*
X145156695Y-57625506D01*
X144781983Y-58259674D01*
X144657047Y-58780879D01*
X136966629Y-58780879D01*
X136981494Y-58768876D01*
X137539032Y-58042935D01*
X137760152Y-57336091D01*
X137630247Y-56683364D01*
X137134708Y-56119774D01*
X137040436Y-56052761D01*
X136697353Y-55872175D01*
X136259938Y-55764854D01*
X135626483Y-55713296D01*
X134695276Y-55700000D01*
X134235322Y-55696511D01*
X133308535Y-55650789D01*
X132749981Y-55541876D01*
X132538590Y-55356876D01*
X132653292Y-55082890D01*
X133073015Y-54707022D01*
X133080800Y-54701063D01*
X133821720Y-53904430D01*
X134380408Y-52835356D01*
X134701233Y-51600000D01*
X134732456Y-51354758D01*
X134733381Y-50843486D01*
X134573426Y-50396876D01*
X134200935Y-49832427D01*
X133572033Y-48964855D01*
X132436017Y-49032427D01*
X132096620Y-49043101D01*
X131506671Y-48980666D01*
X131276529Y-48808600D01*
X131418642Y-48547565D01*
X131945459Y-48218222D01*
X132031845Y-48174229D01*
X132430867Y-47925773D01*
X132595459Y-47741460D01*
X132708193Y-47512194D01*
X133000230Y-47062061D01*
X133408212Y-46488884D01*
X133840870Y-45869347D01*
X134643246Y-44426823D01*
X135214654Y-42861583D01*
X135606889Y-41045397D01*
X135701308Y-40202850D01*
X135635123Y-39525356D01*
X135355199Y-38987096D01*
X134824329Y-38465403D01*
X134531551Y-38202828D01*
X134450355Y-38020091D01*
X134640394Y-37897691D01*
X134715300Y-37877761D01*
X135194846Y-37943938D01*
X135822783Y-38220053D01*
X136493498Y-38641767D01*
X137101374Y-39144738D01*
X137540797Y-39664625D01*
X137723267Y-39948012D01*
X137965656Y-40247923D01*
X138158158Y-40281224D01*
X138401448Y-40098690D01*
X138615421Y-39940947D01*
X138948137Y-39868997D01*
X139086300Y-40065157D01*
X138941041Y-40468519D01*
X138921808Y-40499275D01*
X138693369Y-41015755D01*
X138523704Y-41636181D01*
X138499491Y-42129432D01*
X138723859Y-42719238D01*
X139214947Y-43056783D01*
X139916585Y-43083693D01*
X140459741Y-43074260D01*
X140748381Y-43296788D01*
X140715356Y-43732102D01*
X140574909Y-43927607D01*
X140318071Y-43814997D01*
X140202972Y-43740569D01*
X139951512Y-43774619D01*
X139620438Y-44119444D01*
X139592156Y-44155866D01*
X139314258Y-44574280D01*
X139200000Y-44861223D01*
X139145093Y-45042444D01*
X138907578Y-45391627D01*
X138772250Y-45608315D01*
X138717744Y-46055279D01*
X138877245Y-46437826D01*
X139211523Y-46600000D01*
X139301919Y-46603124D01*
X139643352Y-46746813D01*
X139687709Y-47121608D01*
X139439615Y-47750841D01*
X139005073Y-48635908D01*
X138679654Y-49380490D01*
X138496216Y-49906170D01*
X138480909Y-50147574D01*
X138519587Y-50158769D01*
X138812075Y-50066222D01*
X139263087Y-49822813D01*
X139396602Y-49742891D01*
X139871780Y-49498440D01*
X140179884Y-49400000D01*
X140270224Y-49409685D01*
X140496452Y-49622525D01*
X140490006Y-50035243D01*
X140244913Y-50542901D01*
X140213061Y-50588759D01*
X139810089Y-51348832D01*
X139648955Y-52038764D01*
X139709498Y-52597723D01*
X139971556Y-52964872D01*
X140414969Y-53079378D01*
X141019575Y-52880406D01*
X141434132Y-52677722D01*
X141788771Y-52641925D01*
X141959548Y-52918981D01*
X142007088Y-53550000D01*
X142011708Y-53889567D01*
X142039823Y-54246491D01*
X142115806Y-54281628D01*
X142266294Y-54045946D01*
X142341096Y-53939383D01*
X142714621Y-53594213D01*
X143241536Y-53228528D01*
X143805759Y-52910365D01*
X144291211Y-52707762D01*
X144581810Y-52688757D01*
X144621983Y-52743933D01*
X144678604Y-53100797D01*
X144655803Y-53646840D01*
X144627876Y-54150101D01*
X144741572Y-54613206D01*
X145081196Y-55061578D01*
X145602363Y-55623157D01*
X146471993Y-54998636D01*
X147434717Y-54476832D01*
X148670812Y-54146435D01*
X149542207Y-54044342D01*
X151037883Y-54090651D01*
X152396193Y-54413961D01*
X153528008Y-54998636D01*
X154397638Y-55623157D01*
X154918805Y-55061578D01*
X155204772Y-54706671D01*
X155363216Y-54264714D01*
X155344198Y-53646840D01*
X155325384Y-53425453D01*
X155334272Y-52934086D01*
X155418191Y-52688757D01*
X155493450Y-52670150D01*
X155867895Y-52763386D01*
X156395224Y-53015622D01*
X156959356Y-53358820D01*
X157444210Y-53724940D01*
X157733707Y-54045946D01*
X157824867Y-54202255D01*
X157932300Y-54299829D01*
X157979436Y-54099400D01*
X157992913Y-53550000D01*
X158018490Y-53048878D01*
X158151001Y-52682764D01*
X158451437Y-52640309D01*
X158980426Y-52880406D01*
X159016437Y-52899931D01*
X159610018Y-53077221D01*
X160044380Y-52944290D01*
X160298442Y-52563374D01*
X160351125Y-51996712D01*
X160181347Y-51306541D01*
X159768029Y-50555100D01*
X159677228Y-50415626D01*
X159488204Y-49919583D01*
X159537371Y-49546944D01*
X159820117Y-49400000D01*
X159876441Y-49407628D01*
X160245150Y-49552366D01*
X160736914Y-49822813D01*
X160890702Y-49913920D01*
X161305224Y-50114924D01*
X161519092Y-50147574D01*
X161505190Y-49911545D01*
X161323878Y-49389317D01*
X161000227Y-48647291D01*
X160560386Y-47750841D01*
X160496214Y-47621653D01*
X160298835Y-47038514D01*
X160394715Y-46705740D01*
X160788478Y-46600000D01*
X160991528Y-46547452D01*
X161234579Y-46244828D01*
X161281287Y-45807567D01*
X161092423Y-45391627D01*
X160922357Y-45164786D01*
X160800000Y-44861223D01*
X160799052Y-44846074D01*
X160666958Y-44541137D01*
X160379563Y-44119444D01*
X160253545Y-43967619D01*
X159949429Y-43730764D01*
X159697369Y-43802184D01*
X159685231Y-43811998D01*
X159400141Y-43884486D01*
X159239363Y-43668238D01*
X159284390Y-43268560D01*
X159314204Y-43204805D01*
X159559884Y-43044321D01*
X160062624Y-43079792D01*
X160554567Y-43102680D01*
X161132052Y-42869788D01*
X161457194Y-42362677D01*
X161476297Y-41636181D01*
X161466450Y-41585573D01*
X161287945Y-40963469D01*
X161058960Y-40468519D01*
X160944577Y-40242519D01*
X160953691Y-39936283D01*
X161201305Y-39868037D01*
X161598553Y-40098690D01*
X161739580Y-40218923D01*
X161943491Y-40293744D01*
X162149807Y-40125903D01*
X162459204Y-39664625D01*
X162535816Y-39552389D01*
X163021239Y-39030704D01*
X163651945Y-38540051D01*
X164322318Y-38144770D01*
X164926744Y-37909203D01*
X165359607Y-37897691D01*
X165535140Y-37996991D01*
X165503526Y-38162442D01*
X165175672Y-38465403D01*
X164681115Y-38942056D01*
X164380485Y-39473902D01*
X164296886Y-40134127D01*
X164393112Y-41045397D01*
X164544470Y-41871766D01*
X165008018Y-43563419D01*
X165673194Y-45059716D01*
X166591789Y-46488884D01*
X166998989Y-47060916D01*
X167291345Y-47511421D01*
X167404542Y-47741460D01*
X167410944Y-47765525D01*
X167627369Y-47968488D01*
X168054542Y-48218222D01*
X168315636Y-48358860D01*
X168684748Y-48662959D01*
X168674211Y-48890361D01*
X168296474Y-49020404D01*
X167563984Y-49032427D01*
X166427968Y-48964855D01*
X165799066Y-49832427D01*
X165631425Y-50069156D01*
X165344564Y-50568108D01*
X165250897Y-51017556D01*
X165298768Y-51600000D01*
X165300535Y-51612266D01*
X165623898Y-52846535D01*
X166184592Y-53913507D01*
X166926986Y-54707022D01*
X167123526Y-54864768D01*
X167428192Y-55199843D01*
X167419715Y-55438007D01*
X167077025Y-55592156D01*
X166379052Y-55675188D01*
X165304725Y-55700000D01*
X165004324Y-55700902D01*
X164167940Y-55723277D01*
X163600447Y-55788879D01*
X163200135Y-55915210D01*
X162865293Y-56119774D01*
X162596579Y-56359619D01*
X162267055Y-56967574D01*
X162296605Y-57648937D01*
X162631755Y-58293899D01*
X162670619Y-58368689D01*
G37*
G36*
X149173304Y-66083648D02*
G01*
X149269111Y-66304997D01*
X149074775Y-66710429D01*
X149070536Y-66716917D01*
X148887017Y-67058323D01*
X148888802Y-67200000D01*
X148931058Y-67216820D01*
X148893476Y-67410557D01*
X148718090Y-67546974D01*
X148429026Y-67478838D01*
X148241600Y-67165957D01*
X148237605Y-67139541D01*
X148323667Y-66770887D01*
X148579573Y-66385740D01*
X148896440Y-66112260D01*
X149165387Y-66078607D01*
X149173304Y-66083648D01*
G37*
G36*
X146083790Y-63986805D02*
G01*
X146200000Y-64413498D01*
X146206003Y-64563047D01*
X146305118Y-64697322D01*
X146612181Y-64551694D01*
X146687973Y-64506934D01*
X147013238Y-64407672D01*
X147262181Y-64600000D01*
X147424987Y-64757861D01*
X147750000Y-64900000D01*
X147835997Y-64900245D01*
X147968403Y-64926885D01*
X148006199Y-65046515D01*
X147936386Y-65328928D01*
X147745964Y-65843918D01*
X147421931Y-66661277D01*
X147400270Y-66713754D01*
X147169065Y-67068911D01*
X146975501Y-67072402D01*
X146869254Y-66768130D01*
X146900000Y-66200000D01*
X146938461Y-65671846D01*
X146849810Y-65358749D01*
X146665246Y-65361462D01*
X146426376Y-65721981D01*
X146282440Y-65970764D01*
X146006293Y-66139033D01*
X145758603Y-65937408D01*
X145584739Y-65384101D01*
X145469477Y-64700000D01*
X145247075Y-65230572D01*
X145008220Y-65677268D01*
X144730836Y-65917894D01*
X144505647Y-65809135D01*
X144485493Y-65578541D01*
X144648847Y-65115689D01*
X144964962Y-64589331D01*
X145366922Y-64129935D01*
X145778007Y-63891121D01*
X146083790Y-63986805D01*
G37*
G36*
X149758819Y-64713636D02*
G01*
X149732834Y-65086556D01*
X149651375Y-65240415D01*
X149439611Y-65400000D01*
X149312626Y-65385130D01*
X149116096Y-65171852D01*
X149225565Y-64752231D01*
X149329732Y-64609331D01*
X149582964Y-64527217D01*
X149758819Y-64713636D01*
G37*
G36*
X151281135Y-56003565D02*
G01*
X151653912Y-56222665D01*
X152016021Y-56692413D01*
X152290216Y-57287908D01*
X152399253Y-57884251D01*
X152316403Y-58362937D01*
X152069003Y-58834251D01*
X151687296Y-59128949D01*
X151209708Y-59136668D01*
X150662891Y-58765137D01*
X150443169Y-58494415D01*
X150220375Y-57886033D01*
X150210483Y-57223798D01*
X150391066Y-56616312D01*
X150739693Y-56172178D01*
X151233938Y-56000000D01*
X151281135Y-56003565D01*
G37*
G36*
X147871203Y-56278490D02*
G01*
X148337110Y-56634862D01*
X148347654Y-56644850D01*
X148730403Y-57245054D01*
X148736622Y-57902377D01*
X148365138Y-58537109D01*
X148262757Y-58644106D01*
X147893924Y-58941106D01*
X147587072Y-58923845D01*
X147200000Y-58600000D01*
X146894045Y-58119469D01*
X146833659Y-57421047D01*
X147123002Y-56692963D01*
X147193029Y-56589861D01*
X147523367Y-56261885D01*
X147871203Y-56278490D01*
G37*
G36*
X154027124Y-56947123D02*
G01*
X154076436Y-57171449D01*
X153769843Y-57478612D01*
X153600976Y-57605840D01*
X153424806Y-57865803D01*
X153541218Y-58180195D01*
X153659520Y-58436075D01*
X153654896Y-58678437D01*
X153483783Y-58774744D01*
X153167619Y-58686116D01*
X152907834Y-58352411D01*
X152800000Y-57864610D01*
X152804658Y-57794930D01*
X152982852Y-57393379D01*
X153328898Y-57056242D01*
X153718440Y-56876498D01*
X154027124Y-56947123D01*
G37*
%TD*%
M02*
