%TF.GenerationSoftware,KiCad,Pcbnew,8.0.5*%
%TF.CreationDate,2024-10-15T22:02:10+02:00*%
%TF.ProjectId,_autosave-pcb,5f617574-6f73-4617-9665-2d7063622e6b,rev?*%
%TF.SameCoordinates,Original*%
%TF.FileFunction,Copper,L2,Bot*%
%TF.FilePolarity,Positive*%
%FSLAX46Y46*%
G04 Gerber Fmt 4.6, Leading zero omitted, Abs format (unit mm)*
G04 Created by KiCad (PCBNEW 8.0.5) date 2024-10-15 22:02:10*
%MOMM*%
%LPD*%
G01*
G04 APERTURE LIST*
%TA.AperFunction,ComponentPad*%
%ADD10C,2.000000*%
%TD*%
%TA.AperFunction,ComponentPad*%
%ADD11R,2.000000X2.000000*%
%TD*%
%TA.AperFunction,ComponentPad*%
%ADD12O,2.500000X1.500000*%
%TD*%
%TA.AperFunction,ComponentPad*%
%ADD13O,1.500000X2.500000*%
%TD*%
%TA.AperFunction,ViaPad*%
%ADD14C,0.600000*%
%TD*%
%TA.AperFunction,Conductor*%
%ADD15C,0.200000*%
%TD*%
G04 APERTURE END LIST*
D10*
%TO.P,SBR1,1,1*%
%TO.N,Net-(U1-12)*%
X161000000Y-52500000D03*
X167500000Y-52500000D03*
%TO.P,SBR1,2,2*%
%TO.N,GND*%
X161000000Y-57000000D03*
X167500000Y-57000000D03*
%TD*%
%TO.P,STL1,1,1*%
%TO.N,Net-(U1-11)*%
X132500000Y-43000000D03*
X139000000Y-43000000D03*
%TO.P,STL1,2,2*%
%TO.N,GND*%
X132500000Y-47500000D03*
X139000000Y-47500000D03*
%TD*%
%TO.P,SBL1,1,1*%
%TO.N,Net-(U1-13)*%
X132500000Y-52500000D03*
X139000000Y-52500000D03*
%TO.P,SBL1,2,2*%
%TO.N,GND*%
X132500000Y-57000000D03*
X139000000Y-57000000D03*
%TD*%
%TO.P,STR1,1,1*%
%TO.N,Net-(U1-10)*%
X161000000Y-43000000D03*
X167500000Y-43000000D03*
%TO.P,STR1,2,2*%
%TO.N,GND*%
X161000000Y-47500000D03*
X167500000Y-47500000D03*
%TD*%
D11*
%TO.P,BZ1,1,+*%
%TO.N,Net-(BZ1-+)*%
X146200000Y-62500000D03*
D10*
%TO.P,BZ1,2,-*%
%TO.N,GND*%
X153800000Y-62500000D03*
%TD*%
D12*
%TO.P,U1,1,0*%
%TO.N,unconnected-(U1-0-Pad1)*%
X158120000Y-33840000D03*
%TO.P,U1,2,1*%
%TO.N,unconnected-(U1-1-Pad2)*%
X158120000Y-36380000D03*
%TO.P,U1,3,2*%
%TO.N,Net-(U1-2)*%
X158120000Y-38920000D03*
%TO.P,U1,4,3*%
%TO.N,Net-(U1-3)*%
X158120000Y-41460000D03*
%TO.P,U1,5,4*%
%TO.N,Net-(U1-4)*%
X158120000Y-44000000D03*
%TO.P,U1,6,5*%
%TO.N,Net-(U1-5)*%
X158120000Y-46540000D03*
%TO.P,U1,7,6*%
%TO.N,Net-(U1-6)*%
X158120000Y-49080000D03*
%TO.P,U1,8,7*%
%TO.N,unconnected-(U1-7-Pad8)*%
X158120000Y-51620000D03*
%TO.P,U1,9,8*%
%TO.N,unconnected-(U1-8-Pad9)*%
X158120000Y-54160000D03*
D13*
%TO.P,U1,10,9*%
%TO.N,unconnected-(U1-9-Pad10)*%
X155080000Y-54660000D03*
%TO.P,U1,11,10*%
%TO.N,Net-(U1-10)*%
X152540000Y-54660000D03*
%TO.P,U1,12,11*%
%TO.N,Net-(U1-11)*%
X150000000Y-54660000D03*
%TO.P,U1,13,12*%
%TO.N,Net-(U1-12)*%
X147460000Y-54660000D03*
%TO.P,U1,14,13*%
%TO.N,Net-(U1-13)*%
X144920000Y-54660000D03*
D12*
%TO.P,U1,15,14*%
%TO.N,unconnected-(U1-14-Pad15)*%
X141880000Y-54160000D03*
%TO.P,U1,16,15*%
%TO.N,unconnected-(U1-15-Pad16)*%
X141880000Y-51620000D03*
%TO.P,U1,17,26*%
%TO.N,unconnected-(U1-26-Pad17)*%
X141880000Y-49080000D03*
%TO.P,U1,18,27*%
%TO.N,unconnected-(U1-27-Pad18)*%
X141880000Y-46540000D03*
%TO.P,U1,19,28*%
%TO.N,unconnected-(U1-28-Pad19)*%
X141880000Y-44000000D03*
%TO.P,U1,20,29*%
%TO.N,unconnected-(U1-29-Pad20)*%
X141880000Y-41460000D03*
%TO.P,U1,21,3V3*%
%TO.N,unconnected-(U1-3V3-Pad21)*%
X141880000Y-38920000D03*
%TO.P,U1,22,GND*%
%TO.N,unconnected-(U1-GND-Pad22)*%
X141880000Y-36380000D03*
%TO.P,U1,23,5V*%
%TO.N,unconnected-(U1-5V-Pad23)*%
X141880000Y-33840000D03*
%TD*%
D14*
%TO.N,GND*%
X135000000Y-41500000D03*
X159000000Y-60500000D03*
X163500000Y-43000000D03*
X134000000Y-59000000D03*
%TO.N,Net-(U1-3)*%
X157500000Y-57100000D03*
%TO.N,Net-(U1-2)*%
X156500000Y-59000000D03*
%TO.N,Net-(U1-13)*%
X136000000Y-52500000D03*
X133900000Y-52500000D03*
%TO.N,Net-(U1-12)*%
X157500000Y-58000000D03*
X151000000Y-57500000D03*
%TO.N,Net-(U1-10)*%
X152500000Y-59000000D03*
X162000000Y-45500000D03*
X162500000Y-44000000D03*
%TO.N,Net-(U1-6)*%
X153500000Y-60500000D03*
X153547423Y-55900001D03*
X157099999Y-50483294D03*
%TD*%
D15*
%TO.N,GND*%
X136000000Y-44000000D02*
X136000000Y-42000000D01*
X135000000Y-41500000D02*
X135500000Y-41500000D01*
X139000000Y-47500000D02*
X139000000Y-47000000D01*
X132500000Y-47500000D02*
X132500000Y-48000000D01*
X139000000Y-47000000D02*
X136000000Y-44000000D01*
X167500000Y-47500000D02*
X167500000Y-49500000D01*
X135500000Y-41500000D02*
X136000000Y-42000000D01*
X139000000Y-57000000D02*
X148300000Y-57000000D01*
X134500000Y-57000000D02*
X139000000Y-57000000D01*
X132500000Y-48000000D02*
X134500000Y-50000000D01*
X167500000Y-49500000D02*
X169000000Y-51000000D01*
X134500000Y-57000000D02*
X132500000Y-57000000D01*
X155800000Y-60500000D02*
X153800000Y-62500000D01*
X134500000Y-50000000D02*
X134500000Y-57000000D01*
X139000000Y-47500000D02*
X132500000Y-47500000D01*
X167500000Y-47500000D02*
X161000000Y-47500000D01*
X163500000Y-45000000D02*
X161000000Y-47500000D01*
X161000000Y-57000000D02*
X157500000Y-60500000D01*
X134500000Y-58500000D02*
X134500000Y-57000000D01*
X134000000Y-59000000D02*
X134500000Y-58500000D01*
X169000000Y-51000000D02*
X169000000Y-55500000D01*
X157500000Y-60500000D02*
X155800000Y-60500000D01*
X169000000Y-55500000D02*
X167500000Y-57000000D01*
X159000000Y-60500000D02*
X157500000Y-60500000D01*
X148300000Y-57000000D02*
X153800000Y-62500000D01*
X161000000Y-57000000D02*
X167500000Y-57000000D01*
X163500000Y-43000000D02*
X163500000Y-45000000D01*
%TO.N,Net-(U1-3)*%
X159670000Y-54930000D02*
X159670000Y-43510000D01*
X159670000Y-43510000D02*
X157620000Y-41460000D01*
X157500000Y-57100000D02*
X159670000Y-54930000D01*
%TO.N,Net-(U1-2)*%
X156500000Y-48715076D02*
X156500000Y-59000000D01*
X156602593Y-48612483D02*
X156500000Y-48715076D01*
X157346409Y-38920000D02*
X157346409Y-39992502D01*
X156420200Y-42240889D02*
X156602593Y-42423282D01*
X156420200Y-40918711D02*
X156420200Y-42240889D01*
X156602593Y-43663816D02*
X156541006Y-43725403D01*
X156541006Y-43725403D02*
X156541006Y-46532538D01*
X156602593Y-46842159D02*
X156602593Y-48612483D01*
X156602593Y-42423282D02*
X156602593Y-43663816D01*
X157620000Y-38920000D02*
X157346409Y-38920000D01*
X157346409Y-39992502D02*
X156420200Y-40918711D01*
X156541006Y-46532538D02*
X156602593Y-46842159D01*
%TO.N,Net-(U1-13)*%
X139170000Y-52670000D02*
X143430000Y-52670000D01*
X139000000Y-52500000D02*
X139170000Y-52670000D01*
X136000000Y-52500000D02*
X139000000Y-52500000D01*
X143430000Y-52670000D02*
X144920000Y-54160000D01*
X132500000Y-52500000D02*
X133900000Y-52500000D01*
%TO.N,Net-(U1-12)*%
X167500000Y-52500000D02*
X161000000Y-52500000D01*
X161000000Y-52500000D02*
X161000000Y-54500000D01*
X151000000Y-57500000D02*
X150500000Y-57000000D01*
X161000000Y-54500000D02*
X157500000Y-58000000D01*
X150300000Y-57000000D02*
X147460000Y-54160000D01*
X150500000Y-57000000D02*
X150300000Y-57000000D01*
%TO.N,Net-(U1-11)*%
X140000000Y-40000000D02*
X139000000Y-41000000D01*
X148940000Y-53100000D02*
X150000000Y-54160000D01*
X143458994Y-46532538D02*
X143397407Y-46842159D01*
X139000000Y-41000000D02*
X139000000Y-43000000D01*
X140000000Y-39500000D02*
X140000000Y-40000000D01*
X142388911Y-45050000D02*
X143458994Y-46120083D01*
X139000000Y-43000000D02*
X139000000Y-44414213D01*
X143458994Y-46120083D02*
X143458994Y-46532538D01*
X146040315Y-53100000D02*
X148940000Y-53100000D01*
X135934315Y-39500000D02*
X140000000Y-39500000D01*
X139635787Y-45050000D02*
X142388911Y-45050000D01*
X132500000Y-42934315D02*
X135934315Y-39500000D01*
X143397407Y-46842159D02*
X143397407Y-48612483D01*
X143397407Y-48612483D02*
X143887146Y-49102222D01*
X139000000Y-44414213D02*
X139635787Y-45050000D01*
X132500000Y-43000000D02*
X132500000Y-42934315D01*
X143887146Y-50946831D02*
X146040315Y-53100000D01*
X143887146Y-49102222D02*
X143887146Y-50946831D01*
%TO.N,Net-(U1-10)*%
X161000000Y-43000000D02*
X161500000Y-43000000D01*
X152500000Y-59000000D02*
X152500000Y-58000000D01*
X152540000Y-57960000D02*
X152540000Y-54160000D01*
X161000000Y-44500000D02*
X162000000Y-45500000D01*
X152500000Y-58000000D02*
X152540000Y-57960000D01*
X161500000Y-43000000D02*
X162500000Y-44000000D01*
X161000000Y-43000000D02*
X161000000Y-44500000D01*
%TO.N,Net-(U1-6)*%
X153547423Y-60452577D02*
X153547423Y-55900001D01*
X153500000Y-60500000D02*
X153547423Y-60452577D01*
X157620000Y-49080000D02*
X157620000Y-49963293D01*
X157620000Y-49963293D02*
X157099999Y-50483294D01*
%TD*%
%TA.AperFunction,NonConductor*%
G36*
X140164055Y-40787694D02*
G01*
X140219988Y-40829566D01*
X140244405Y-40895030D01*
X140231207Y-40960169D01*
X140221118Y-40979970D01*
X140160290Y-41167173D01*
X140129500Y-41361577D01*
X140129500Y-41558422D01*
X140156130Y-41726560D01*
X140147175Y-41795854D01*
X140102179Y-41849306D01*
X140035427Y-41869945D01*
X139968114Y-41851220D01*
X139957499Y-41843815D01*
X139823509Y-41739526D01*
X139823507Y-41739525D01*
X139823506Y-41739524D01*
X139665482Y-41654006D01*
X139615892Y-41604786D01*
X139600500Y-41544951D01*
X139600500Y-41300097D01*
X139620185Y-41233058D01*
X139636819Y-41212416D01*
X140033040Y-40816195D01*
X140094363Y-40782710D01*
X140164055Y-40787694D01*
G37*
%TD.AperFunction*%
%TA.AperFunction,NonConductor*%
G36*
X140622046Y-42457033D02*
G01*
X140639219Y-42467494D01*
X140724595Y-42529524D01*
X140830571Y-42583521D01*
X140901213Y-42619515D01*
X140952009Y-42667489D01*
X140968804Y-42735310D01*
X140946267Y-42801445D01*
X140901213Y-42840485D01*
X140724591Y-42930477D01*
X140690906Y-42954951D01*
X140625099Y-42978430D01*
X140557045Y-42962603D01*
X140508351Y-42912497D01*
X140494446Y-42864875D01*
X140485108Y-42752179D01*
X140477815Y-42723380D01*
X140446129Y-42598254D01*
X140448753Y-42528433D01*
X140488709Y-42471116D01*
X140553310Y-42444499D01*
X140622046Y-42457033D01*
G37*
%TD.AperFunction*%
%TA.AperFunction,NonConductor*%
G36*
X160475703Y-44806531D02*
G01*
X160501888Y-44838245D01*
X160519479Y-44868714D01*
X160519481Y-44868717D01*
X160638349Y-44987585D01*
X160638355Y-44987590D01*
X161169298Y-45518533D01*
X161202783Y-45579856D01*
X161204837Y-45592330D01*
X161214630Y-45679249D01*
X161270044Y-45837615D01*
X161273605Y-45907394D01*
X161238876Y-45968021D01*
X161176882Y-46000248D01*
X161132593Y-46000878D01*
X161124335Y-45999500D01*
X160875665Y-45999500D01*
X160630383Y-46040429D01*
X160434763Y-46107586D01*
X160364964Y-46110736D01*
X160304543Y-46075650D01*
X160272682Y-46013467D01*
X160270500Y-45990305D01*
X160270500Y-44900244D01*
X160290185Y-44833205D01*
X160342989Y-44787450D01*
X160412147Y-44777506D01*
X160475703Y-44806531D01*
G37*
%TD.AperFunction*%
%TA.AperFunction,NonConductor*%
G36*
X138817941Y-40120185D02*
G01*
X138863696Y-40172989D01*
X138873640Y-40242147D01*
X138844615Y-40305703D01*
X138838583Y-40312181D01*
X138519481Y-40631282D01*
X138519481Y-40631283D01*
X138519480Y-40631284D01*
X138487355Y-40686927D01*
X138440423Y-40768215D01*
X138399499Y-40920943D01*
X138399499Y-40920945D01*
X138399499Y-41089046D01*
X138399500Y-41089059D01*
X138399500Y-41544951D01*
X138379815Y-41611990D01*
X138334518Y-41654006D01*
X138176493Y-41739524D01*
X137980257Y-41892261D01*
X137811833Y-42075217D01*
X137675826Y-42283393D01*
X137575936Y-42511118D01*
X137514892Y-42752175D01*
X137514890Y-42752187D01*
X137494357Y-42999994D01*
X137494357Y-43000005D01*
X137514890Y-43247812D01*
X137514892Y-43247824D01*
X137575936Y-43488881D01*
X137675826Y-43716606D01*
X137811833Y-43924782D01*
X137811836Y-43924785D01*
X137980256Y-44107738D01*
X138176491Y-44260474D01*
X138176493Y-44260475D01*
X138176496Y-44260477D01*
X138334516Y-44345993D01*
X138384107Y-44395213D01*
X138399499Y-44455048D01*
X138399499Y-44493267D01*
X138399498Y-44493267D01*
X138440423Y-44645998D01*
X138460794Y-44681280D01*
X138460795Y-44681284D01*
X138519475Y-44782922D01*
X138519481Y-44782930D01*
X138638349Y-44901798D01*
X138638354Y-44901802D01*
X139267071Y-45530520D01*
X139267073Y-45530521D01*
X139267077Y-45530524D01*
X139352524Y-45579856D01*
X139404003Y-45609577D01*
X139556730Y-45650501D01*
X139556732Y-45650501D01*
X139722441Y-45650501D01*
X139722457Y-45650500D01*
X140237192Y-45650500D01*
X140304231Y-45670185D01*
X140349986Y-45722989D01*
X140359930Y-45792147D01*
X140337510Y-45847385D01*
X140310478Y-45884591D01*
X140221117Y-46059970D01*
X140160291Y-46247171D01*
X140157270Y-46266246D01*
X140127339Y-46329380D01*
X140068026Y-46366310D01*
X139998164Y-46365310D01*
X139958635Y-46344699D01*
X139938953Y-46329380D01*
X139823509Y-46239526D01*
X139823507Y-46239525D01*
X139823506Y-46239524D01*
X139604811Y-46121172D01*
X139604802Y-46121169D01*
X139369616Y-46040429D01*
X139124335Y-45999500D01*
X138900098Y-45999500D01*
X138833059Y-45979815D01*
X138812417Y-45963181D01*
X136636819Y-43787583D01*
X136603334Y-43726260D01*
X136600500Y-43699902D01*
X136600500Y-42089060D01*
X136600501Y-42089047D01*
X136600501Y-41920944D01*
X136600501Y-41920943D01*
X136559577Y-41768216D01*
X136543013Y-41739526D01*
X136480524Y-41631290D01*
X136480518Y-41631282D01*
X135868717Y-41019481D01*
X135868709Y-41019475D01*
X135766936Y-40960717D01*
X135766934Y-40960716D01*
X135731790Y-40940425D01*
X135731789Y-40940424D01*
X135717316Y-40936546D01*
X135632712Y-40913876D01*
X135573054Y-40877511D01*
X135542525Y-40814664D01*
X135550820Y-40745289D01*
X135577124Y-40706424D01*
X136146731Y-40136819D01*
X136208054Y-40103334D01*
X136234412Y-40100500D01*
X138750902Y-40100500D01*
X138817941Y-40120185D01*
G37*
%TD.AperFunction*%
%TA.AperFunction,NonConductor*%
G36*
X140687781Y-47582777D02*
G01*
X140704285Y-47594768D01*
X140724593Y-47609523D01*
X140901213Y-47699515D01*
X140952009Y-47747489D01*
X140968804Y-47815310D01*
X140946267Y-47881445D01*
X140901213Y-47920485D01*
X140724591Y-48010478D01*
X140626806Y-48081523D01*
X140561000Y-48105003D01*
X140492946Y-48089177D01*
X140444251Y-48039072D01*
X140430376Y-47970594D01*
X140433713Y-47950770D01*
X140485108Y-47747821D01*
X140491319Y-47672853D01*
X140516473Y-47607671D01*
X140572874Y-47566432D01*
X140642618Y-47562234D01*
X140687781Y-47582777D01*
G37*
%TD.AperFunction*%
%TA.AperFunction,NonConductor*%
G36*
X143223620Y-50102377D02*
G01*
X143272315Y-50152482D01*
X143286646Y-50210350D01*
X143286646Y-50489649D01*
X143266961Y-50556688D01*
X143214157Y-50602443D01*
X143144999Y-50612387D01*
X143089761Y-50589967D01*
X143035406Y-50550476D01*
X142858787Y-50460485D01*
X142807990Y-50412511D01*
X142791195Y-50344690D01*
X142813732Y-50278555D01*
X142858787Y-50239515D01*
X142890118Y-50223550D01*
X143035405Y-50149524D01*
X143065588Y-50127594D01*
X143089760Y-50110033D01*
X143155566Y-50086552D01*
X143223620Y-50102377D01*
G37*
%TD.AperFunction*%
%TA.AperFunction,NonConductor*%
G36*
X166110923Y-48120185D02*
G01*
X166156678Y-48172989D01*
X166157440Y-48174689D01*
X166175827Y-48216608D01*
X166311833Y-48424782D01*
X166311836Y-48424785D01*
X166480256Y-48607738D01*
X166667211Y-48753251D01*
X166676494Y-48760476D01*
X166676496Y-48760477D01*
X166725828Y-48787174D01*
X166834517Y-48845993D01*
X166884108Y-48895212D01*
X166899500Y-48955048D01*
X166899500Y-49413330D01*
X166899499Y-49413348D01*
X166899499Y-49579054D01*
X166899498Y-49579054D01*
X166899499Y-49579057D01*
X166940423Y-49731785D01*
X166940424Y-49731787D01*
X166940423Y-49731787D01*
X166955270Y-49757501D01*
X166955272Y-49757503D01*
X166955273Y-49757505D01*
X166998077Y-49831645D01*
X167019479Y-49868715D01*
X167138349Y-49987585D01*
X167138355Y-49987590D01*
X167981904Y-50831139D01*
X168015389Y-50892462D01*
X168010405Y-50962154D01*
X167968533Y-51018087D01*
X167903069Y-51042504D01*
X167873814Y-51041129D01*
X167624335Y-50999500D01*
X167375665Y-50999500D01*
X167130383Y-51040429D01*
X166895197Y-51121169D01*
X166895188Y-51121172D01*
X166676493Y-51239524D01*
X166480257Y-51392261D01*
X166311833Y-51575217D01*
X166175827Y-51783391D01*
X166157440Y-51825311D01*
X166112483Y-51878796D01*
X166045747Y-51899486D01*
X166043884Y-51899500D01*
X162456116Y-51899500D01*
X162389077Y-51879815D01*
X162343322Y-51827011D01*
X162342560Y-51825311D01*
X162324172Y-51783391D01*
X162188166Y-51575217D01*
X162106958Y-51487002D01*
X162019744Y-51392262D01*
X161823509Y-51239526D01*
X161823507Y-51239525D01*
X161823506Y-51239524D01*
X161604811Y-51121172D01*
X161604802Y-51121169D01*
X161369616Y-51040429D01*
X161124335Y-50999500D01*
X160875665Y-50999500D01*
X160630383Y-51040429D01*
X160434763Y-51107586D01*
X160364964Y-51110736D01*
X160304543Y-51075650D01*
X160272682Y-51013467D01*
X160270500Y-50990305D01*
X160270500Y-49009694D01*
X160290185Y-48942655D01*
X160342989Y-48896900D01*
X160412147Y-48886956D01*
X160434758Y-48892411D01*
X160630386Y-48959571D01*
X160875665Y-49000500D01*
X161124335Y-49000500D01*
X161369614Y-48959571D01*
X161604810Y-48878828D01*
X161823509Y-48760474D01*
X162019744Y-48607738D01*
X162188164Y-48424785D01*
X162324173Y-48216607D01*
X162342560Y-48174689D01*
X162387517Y-48121204D01*
X162454253Y-48100514D01*
X162456116Y-48100500D01*
X166043884Y-48100500D01*
X166110923Y-48120185D01*
G37*
%TD.AperFunction*%
%TA.AperFunction,NonConductor*%
G36*
X137610923Y-48120185D02*
G01*
X137656678Y-48172989D01*
X137657440Y-48174689D01*
X137675827Y-48216608D01*
X137811833Y-48424782D01*
X137811836Y-48424785D01*
X137980256Y-48607738D01*
X138176491Y-48760474D01*
X138395190Y-48878828D01*
X138630386Y-48959571D01*
X138875665Y-49000500D01*
X139124335Y-49000500D01*
X139369614Y-48959571D01*
X139604810Y-48878828D01*
X139823509Y-48760474D01*
X139966888Y-48648876D01*
X140031880Y-48623235D01*
X140100420Y-48636801D01*
X140150745Y-48685270D01*
X140166877Y-48753251D01*
X140160984Y-48785036D01*
X140160293Y-48787160D01*
X140160291Y-48787172D01*
X140129500Y-48981577D01*
X140129500Y-49178422D01*
X140160290Y-49372826D01*
X140221117Y-49560029D01*
X140288710Y-49692687D01*
X140310476Y-49735405D01*
X140426172Y-49894646D01*
X140565354Y-50033828D01*
X140724595Y-50149524D01*
X140843974Y-50210350D01*
X140901213Y-50239515D01*
X140952009Y-50287489D01*
X140968804Y-50355310D01*
X140946267Y-50421445D01*
X140901213Y-50460485D01*
X140724594Y-50550476D01*
X140653069Y-50602443D01*
X140565354Y-50666172D01*
X140565352Y-50666174D01*
X140565351Y-50666174D01*
X140426174Y-50805351D01*
X140426174Y-50805352D01*
X140426172Y-50805354D01*
X140407438Y-50831139D01*
X140310476Y-50964594D01*
X140221117Y-51139970D01*
X140169659Y-51298342D01*
X140130221Y-51356017D01*
X140065862Y-51383215D01*
X139997016Y-51371300D01*
X139975566Y-51357877D01*
X139936119Y-51327174D01*
X139823509Y-51239526D01*
X139823507Y-51239525D01*
X139823506Y-51239524D01*
X139604811Y-51121172D01*
X139604802Y-51121169D01*
X139369616Y-51040429D01*
X139124335Y-50999500D01*
X138875665Y-50999500D01*
X138630383Y-51040429D01*
X138395197Y-51121169D01*
X138395188Y-51121172D01*
X138176493Y-51239524D01*
X137980257Y-51392261D01*
X137811833Y-51575217D01*
X137675827Y-51783391D01*
X137657440Y-51825311D01*
X137612483Y-51878796D01*
X137545747Y-51899486D01*
X137543884Y-51899500D01*
X136582412Y-51899500D01*
X136515373Y-51879815D01*
X136505097Y-51872445D01*
X136502263Y-51870185D01*
X136502262Y-51870184D01*
X136430847Y-51825311D01*
X136349523Y-51774211D01*
X136179254Y-51714631D01*
X136179249Y-51714630D01*
X136000004Y-51694435D01*
X135999996Y-51694435D01*
X135820750Y-51714630D01*
X135820745Y-51714631D01*
X135650476Y-51774211D01*
X135497737Y-51870184D01*
X135370182Y-51997739D01*
X135329493Y-52062496D01*
X135277158Y-52108787D01*
X135208105Y-52119434D01*
X135144257Y-52091059D01*
X135105885Y-52032669D01*
X135100500Y-51996523D01*
X135100500Y-49920945D01*
X135100500Y-49920943D01*
X135059577Y-49768216D01*
X135059577Y-49768215D01*
X135015970Y-49692686D01*
X134980520Y-49631284D01*
X134868716Y-49519480D01*
X134868715Y-49519479D01*
X134864385Y-49515149D01*
X134864374Y-49515139D01*
X133793293Y-48444058D01*
X133759808Y-48382735D01*
X133764792Y-48313043D01*
X133777161Y-48288561D01*
X133824173Y-48216607D01*
X133842560Y-48174689D01*
X133887517Y-48121204D01*
X133954253Y-48100514D01*
X133956116Y-48100500D01*
X137543884Y-48100500D01*
X137610923Y-48120185D01*
G37*
%TD.AperFunction*%
%TA.AperFunction,NonConductor*%
G36*
X143776007Y-51705193D02*
G01*
X143827058Y-51735978D01*
X144804020Y-52712941D01*
X144837505Y-52774264D01*
X144832521Y-52843956D01*
X144790649Y-52899889D01*
X144735737Y-52923095D01*
X144622545Y-52941023D01*
X144553252Y-52932068D01*
X144515466Y-52906231D01*
X143917590Y-52308355D01*
X143917588Y-52308352D01*
X143798717Y-52189481D01*
X143798709Y-52189475D01*
X143697918Y-52131284D01*
X143697916Y-52131283D01*
X143661788Y-52110423D01*
X143656383Y-52108185D01*
X143601979Y-52064343D01*
X143579915Y-51998049D01*
X143585905Y-51955309D01*
X143599709Y-51912826D01*
X143616904Y-51804261D01*
X143646833Y-51741126D01*
X143706144Y-51704195D01*
X143776007Y-51705193D01*
G37*
%TD.AperFunction*%
%TA.AperFunction,NonConductor*%
G36*
X150001374Y-30000529D02*
G01*
X150869659Y-30019475D01*
X150875022Y-30019709D01*
X151740420Y-30076430D01*
X151745735Y-30076895D01*
X152607808Y-30171307D01*
X152613086Y-30172002D01*
X153470219Y-30303927D01*
X153475537Y-30304866D01*
X154315206Y-30471887D01*
X154326030Y-30474040D01*
X154331309Y-30475210D01*
X155173625Y-30681323D01*
X155178833Y-30682718D01*
X155818957Y-30869298D01*
X156011376Y-30925383D01*
X156016532Y-30927009D01*
X156837671Y-31205747D01*
X156842734Y-31207590D01*
X157650942Y-31521885D01*
X157655933Y-31523952D01*
X157841800Y-31605735D01*
X158449690Y-31873213D01*
X158454593Y-31875500D01*
X159071639Y-32179794D01*
X159232310Y-32259028D01*
X159237104Y-32261523D01*
X159923715Y-32638211D01*
X159997379Y-32678624D01*
X160002058Y-32681325D01*
X160743425Y-33131198D01*
X160747961Y-33134087D01*
X161469016Y-33615882D01*
X161473411Y-33618959D01*
X161747885Y-33820212D01*
X162172736Y-34131726D01*
X162177028Y-34135019D01*
X162853319Y-34677799D01*
X162857464Y-34681277D01*
X163509428Y-35253035D01*
X163513417Y-35256690D01*
X164139827Y-35856347D01*
X164143652Y-35860172D01*
X164743309Y-36486582D01*
X164746964Y-36490571D01*
X165318722Y-37142535D01*
X165322200Y-37146680D01*
X165864980Y-37822971D01*
X165868273Y-37827263D01*
X166381027Y-38526570D01*
X166384124Y-38530992D01*
X166677032Y-38969360D01*
X166865903Y-39252025D01*
X166868810Y-39256588D01*
X167318670Y-39997935D01*
X167321375Y-40002620D01*
X167738473Y-40762890D01*
X167740971Y-40767689D01*
X168040437Y-41374945D01*
X168052433Y-41443777D01*
X168025312Y-41508168D01*
X167967683Y-41547674D01*
X167897845Y-41549753D01*
X167888965Y-41547071D01*
X167869617Y-41540429D01*
X167624335Y-41499500D01*
X167375665Y-41499500D01*
X167130383Y-41540429D01*
X166895197Y-41621169D01*
X166895188Y-41621172D01*
X166676493Y-41739524D01*
X166480257Y-41892261D01*
X166311833Y-42075217D01*
X166175826Y-42283393D01*
X166075936Y-42511118D01*
X166014892Y-42752175D01*
X166014890Y-42752187D01*
X165994357Y-42999994D01*
X165994357Y-43000005D01*
X166014890Y-43247812D01*
X166014892Y-43247824D01*
X166075936Y-43488881D01*
X166175826Y-43716606D01*
X166311833Y-43924782D01*
X166311836Y-43924785D01*
X166480256Y-44107738D01*
X166676491Y-44260474D01*
X166676493Y-44260475D01*
X166876506Y-44368717D01*
X166895190Y-44378828D01*
X167130386Y-44459571D01*
X167375665Y-44500500D01*
X167624335Y-44500500D01*
X167869614Y-44459571D01*
X168104810Y-44378828D01*
X168323509Y-44260474D01*
X168519744Y-44107738D01*
X168688164Y-43924785D01*
X168788962Y-43770500D01*
X168842108Y-43725144D01*
X168911339Y-43715720D01*
X168974675Y-43745222D01*
X169010190Y-43798464D01*
X169072991Y-43983471D01*
X169074618Y-43988630D01*
X169317278Y-44821157D01*
X169318678Y-44826383D01*
X169524788Y-45668687D01*
X169525959Y-45673969D01*
X169695132Y-46524457D01*
X169696072Y-46529785D01*
X169827991Y-47386870D01*
X169828697Y-47392234D01*
X169923100Y-48254227D01*
X169923572Y-48259616D01*
X169980289Y-49124956D01*
X169980524Y-49130361D01*
X169999440Y-49997295D01*
X169999440Y-50002705D01*
X169980524Y-50869638D01*
X169980289Y-50875043D01*
X169923572Y-51740383D01*
X169923100Y-51745772D01*
X169847763Y-52433674D01*
X169820897Y-52498172D01*
X169763426Y-52537907D01*
X169693596Y-52540262D01*
X169633578Y-52504491D01*
X169602427Y-52441950D01*
X169600500Y-52420175D01*
X169600500Y-50920943D01*
X169599664Y-50917825D01*
X169599661Y-50917814D01*
X169587483Y-50872366D01*
X169569528Y-50805354D01*
X169559577Y-50768216D01*
X169500664Y-50666174D01*
X169480524Y-50631290D01*
X169480521Y-50631286D01*
X169480520Y-50631284D01*
X169368716Y-50519480D01*
X169368715Y-50519479D01*
X169364385Y-50515149D01*
X169364374Y-50515139D01*
X168136819Y-49287584D01*
X168103334Y-49226261D01*
X168100500Y-49199903D01*
X168100500Y-48955048D01*
X168120185Y-48888009D01*
X168165481Y-48845993D01*
X168323509Y-48760474D01*
X168519744Y-48607738D01*
X168688164Y-48424785D01*
X168824173Y-48216607D01*
X168924063Y-47988881D01*
X168985108Y-47747821D01*
X168998784Y-47582778D01*
X169005643Y-47500005D01*
X169005643Y-47499994D01*
X168985109Y-47252187D01*
X168985107Y-47252175D01*
X168924063Y-47011118D01*
X168824173Y-46783393D01*
X168688166Y-46575217D01*
X168627033Y-46508809D01*
X168519744Y-46392262D01*
X168323509Y-46239526D01*
X168323507Y-46239525D01*
X168323506Y-46239524D01*
X168104811Y-46121172D01*
X168104802Y-46121169D01*
X167869616Y-46040429D01*
X167624335Y-45999500D01*
X167375665Y-45999500D01*
X167130383Y-46040429D01*
X166895197Y-46121169D01*
X166895188Y-46121172D01*
X166676493Y-46239524D01*
X166480257Y-46392261D01*
X166311833Y-46575217D01*
X166175827Y-46783391D01*
X166157440Y-46825311D01*
X166112483Y-46878796D01*
X166045747Y-46899486D01*
X166043884Y-46899500D01*
X162749097Y-46899500D01*
X162682058Y-46879815D01*
X162636303Y-46827011D01*
X162626359Y-46757853D01*
X162655384Y-46694297D01*
X162661416Y-46687819D01*
X162956974Y-46392261D01*
X163858506Y-45490727D01*
X163858511Y-45490724D01*
X163868714Y-45480520D01*
X163868716Y-45480520D01*
X163980520Y-45368716D01*
X164038543Y-45268216D01*
X164059577Y-45231785D01*
X164100501Y-45079057D01*
X164100501Y-44920943D01*
X164100501Y-44913348D01*
X164100500Y-44913330D01*
X164100500Y-43582412D01*
X164120185Y-43515373D01*
X164127555Y-43505097D01*
X164129810Y-43502267D01*
X164129816Y-43502262D01*
X164225789Y-43349522D01*
X164285368Y-43179255D01*
X164292557Y-43115449D01*
X164305565Y-43000003D01*
X164305565Y-42999996D01*
X164285369Y-42820750D01*
X164285368Y-42820745D01*
X164273862Y-42787862D01*
X164225789Y-42650478D01*
X164129816Y-42497738D01*
X164002262Y-42370184D01*
X163922309Y-42319946D01*
X163849523Y-42274211D01*
X163679254Y-42214631D01*
X163679249Y-42214630D01*
X163500004Y-42194435D01*
X163499996Y-42194435D01*
X163320750Y-42214630D01*
X163320745Y-42214631D01*
X163150476Y-42274211D01*
X162997737Y-42370184D01*
X162870184Y-42497737D01*
X162774209Y-42650480D01*
X162726137Y-42787862D01*
X162685416Y-42844638D01*
X162620463Y-42870385D01*
X162551901Y-42856929D01*
X162501499Y-42808541D01*
X162485519Y-42757145D01*
X162485108Y-42752179D01*
X162464808Y-42672018D01*
X162424063Y-42511118D01*
X162324173Y-42283393D01*
X162188166Y-42075217D01*
X162121006Y-42002262D01*
X162019744Y-41892262D01*
X161823509Y-41739526D01*
X161823507Y-41739525D01*
X161823506Y-41739524D01*
X161604811Y-41621172D01*
X161604802Y-41621169D01*
X161369616Y-41540429D01*
X161124335Y-41499500D01*
X160875665Y-41499500D01*
X160630383Y-41540429D01*
X160395197Y-41621169D01*
X160395188Y-41621172D01*
X160200450Y-41726560D01*
X160176491Y-41739526D01*
X160104121Y-41795854D01*
X160042504Y-41843812D01*
X159977510Y-41869454D01*
X159908970Y-41855887D01*
X159858645Y-41807419D01*
X159842514Y-41739437D01*
X159843869Y-41726560D01*
X159870500Y-41558422D01*
X159870500Y-41361577D01*
X159839709Y-41167173D01*
X159778882Y-40979970D01*
X159689523Y-40804594D01*
X159573828Y-40645354D01*
X159434646Y-40506172D01*
X159341076Y-40438189D01*
X159275403Y-40390474D01*
X159098787Y-40300485D01*
X159047990Y-40252511D01*
X159031195Y-40184690D01*
X159053732Y-40118555D01*
X159098787Y-40079515D01*
X159275403Y-39989525D01*
X159275402Y-39989525D01*
X159275405Y-39989524D01*
X159434646Y-39873828D01*
X159573828Y-39734646D01*
X159689524Y-39575405D01*
X159778884Y-39400025D01*
X159839709Y-39212826D01*
X159852624Y-39131284D01*
X159870500Y-39018422D01*
X159870500Y-38821577D01*
X159839709Y-38627173D01*
X159808460Y-38531001D01*
X159778884Y-38439975D01*
X159778882Y-38439972D01*
X159778882Y-38439970D01*
X159689523Y-38264594D01*
X159573828Y-38105354D01*
X159434646Y-37966172D01*
X159355025Y-37908324D01*
X159275403Y-37850474D01*
X159098787Y-37760485D01*
X159047990Y-37712511D01*
X159031195Y-37644690D01*
X159053732Y-37578555D01*
X159098787Y-37539515D01*
X159275403Y-37449525D01*
X159275402Y-37449525D01*
X159275405Y-37449524D01*
X159434646Y-37333828D01*
X159573828Y-37194646D01*
X159689524Y-37035405D01*
X159778884Y-36860025D01*
X159839709Y-36672826D01*
X159870500Y-36478422D01*
X159870500Y-36281577D01*
X159839709Y-36087173D01*
X159778882Y-35899970D01*
X159689523Y-35724594D01*
X159573828Y-35565354D01*
X159434646Y-35426172D01*
X159355025Y-35368324D01*
X159275403Y-35310474D01*
X159098787Y-35220485D01*
X159047990Y-35172511D01*
X159031195Y-35104690D01*
X159053732Y-35038555D01*
X159098787Y-34999515D01*
X159275403Y-34909525D01*
X159275402Y-34909525D01*
X159275405Y-34909524D01*
X159434646Y-34793828D01*
X159573828Y-34654646D01*
X159689524Y-34495405D01*
X159778884Y-34320025D01*
X159839709Y-34132826D01*
X159839883Y-34131726D01*
X159870500Y-33938422D01*
X159870500Y-33741577D01*
X159839709Y-33547173D01*
X159778882Y-33359970D01*
X159689523Y-33184594D01*
X159573828Y-33025354D01*
X159434646Y-32886172D01*
X159275405Y-32770476D01*
X159100029Y-32681117D01*
X158912826Y-32620290D01*
X158718422Y-32589500D01*
X158718417Y-32589500D01*
X157521583Y-32589500D01*
X157521578Y-32589500D01*
X157327173Y-32620290D01*
X157139970Y-32681117D01*
X156964594Y-32770476D01*
X156873741Y-32836485D01*
X156805354Y-32886172D01*
X156805352Y-32886174D01*
X156805351Y-32886174D01*
X156666174Y-33025351D01*
X156666174Y-33025352D01*
X156666172Y-33025354D01*
X156616485Y-33093741D01*
X156550476Y-33184594D01*
X156461117Y-33359970D01*
X156400290Y-33547173D01*
X156369500Y-33741577D01*
X156369500Y-33938422D01*
X156400290Y-34132826D01*
X156461117Y-34320029D01*
X156498943Y-34394266D01*
X156550476Y-34495405D01*
X156666172Y-34654646D01*
X156805354Y-34793828D01*
X156964595Y-34909524D01*
X157087992Y-34972397D01*
X157141213Y-34999515D01*
X157192009Y-35047489D01*
X157208804Y-35115310D01*
X157186267Y-35181445D01*
X157141213Y-35220485D01*
X156964594Y-35310476D01*
X156873741Y-35376485D01*
X156805354Y-35426172D01*
X156805352Y-35426174D01*
X156805351Y-35426174D01*
X156666174Y-35565351D01*
X156666174Y-35565352D01*
X156666172Y-35565354D01*
X156616485Y-35633741D01*
X156550476Y-35724594D01*
X156461117Y-35899970D01*
X156400290Y-36087173D01*
X156369500Y-36281577D01*
X156369500Y-36478422D01*
X156400290Y-36672826D01*
X156461117Y-36860029D01*
X156550476Y-37035405D01*
X156666172Y-37194646D01*
X156805354Y-37333828D01*
X156964595Y-37449524D01*
X157087992Y-37512397D01*
X157141213Y-37539515D01*
X157192009Y-37587489D01*
X157208804Y-37655310D01*
X157186267Y-37721445D01*
X157141213Y-37760485D01*
X156964594Y-37850476D01*
X156873741Y-37916485D01*
X156805354Y-37966172D01*
X156805352Y-37966174D01*
X156805351Y-37966174D01*
X156666174Y-38105351D01*
X156666174Y-38105352D01*
X156666172Y-38105354D01*
X156616485Y-38173741D01*
X156550476Y-38264594D01*
X156461117Y-38439970D01*
X156400290Y-38627173D01*
X156369500Y-38821577D01*
X156369500Y-39018422D01*
X156400290Y-39212826D01*
X156461117Y-39400029D01*
X156550476Y-39575405D01*
X156641314Y-39700433D01*
X156664794Y-39766237D01*
X156648969Y-39834291D01*
X156628677Y-39860998D01*
X155939681Y-40549993D01*
X155939675Y-40550001D01*
X155892748Y-40631283D01*
X155892748Y-40631284D01*
X155860623Y-40686926D01*
X155819699Y-40839654D01*
X155819699Y-40839656D01*
X155819699Y-41007757D01*
X155819700Y-41007770D01*
X155819700Y-42154219D01*
X155819699Y-42154237D01*
X155819699Y-42319943D01*
X155819698Y-42319943D01*
X155860622Y-42472672D01*
X155887647Y-42519481D01*
X155939677Y-42609601D01*
X155939681Y-42609606D01*
X155965774Y-42635699D01*
X155999259Y-42697022D01*
X156002093Y-42723380D01*
X156002093Y-43424600D01*
X155985481Y-43486599D01*
X155981430Y-43493615D01*
X155981429Y-43493617D01*
X155981429Y-43493618D01*
X155940505Y-43646346D01*
X155940505Y-43646348D01*
X155940505Y-43814449D01*
X155940506Y-43814462D01*
X155940506Y-46508809D01*
X155940241Y-46516918D01*
X155936621Y-46572151D01*
X155938123Y-46579705D01*
X155940506Y-46603893D01*
X155940506Y-46611598D01*
X155954829Y-46665053D01*
X155956671Y-46672953D01*
X155999710Y-46889323D01*
X156002093Y-46913514D01*
X156002093Y-48343249D01*
X155985481Y-48405247D01*
X155974203Y-48424782D01*
X155974202Y-48424785D01*
X155940423Y-48483290D01*
X155940423Y-48483291D01*
X155899499Y-48636019D01*
X155899499Y-48636021D01*
X155899499Y-48804122D01*
X155899500Y-48804135D01*
X155899500Y-52971736D01*
X155879815Y-53038775D01*
X155827011Y-53084530D01*
X155757853Y-53094474D01*
X155719206Y-53082221D01*
X155560032Y-53001118D01*
X155372826Y-52940290D01*
X155178422Y-52909500D01*
X155178417Y-52909500D01*
X154981583Y-52909500D01*
X154981578Y-52909500D01*
X154787173Y-52940290D01*
X154599970Y-53001117D01*
X154424594Y-53090476D01*
X154370448Y-53129816D01*
X154265354Y-53206172D01*
X154265352Y-53206174D01*
X154265351Y-53206174D01*
X154126174Y-53345351D01*
X154126174Y-53345352D01*
X154126172Y-53345354D01*
X154091538Y-53393023D01*
X154010476Y-53504594D01*
X153920485Y-53681213D01*
X153872511Y-53732009D01*
X153804690Y-53748804D01*
X153738555Y-53726267D01*
X153699515Y-53681213D01*
X153669241Y-53621797D01*
X153609524Y-53504595D01*
X153493828Y-53345354D01*
X153354646Y-53206172D01*
X153195405Y-53090476D01*
X153179204Y-53082221D01*
X153020029Y-53001117D01*
X152832826Y-52940290D01*
X152638422Y-52909500D01*
X152638417Y-52909500D01*
X152441583Y-52909500D01*
X152441578Y-52909500D01*
X152247173Y-52940290D01*
X152059970Y-53001117D01*
X151884594Y-53090476D01*
X151830448Y-53129816D01*
X151725354Y-53206172D01*
X151725352Y-53206174D01*
X151725351Y-53206174D01*
X151586174Y-53345351D01*
X151586174Y-53345352D01*
X151586172Y-53345354D01*
X151551538Y-53393023D01*
X151470476Y-53504594D01*
X151380485Y-53681213D01*
X151332511Y-53732009D01*
X151264690Y-53748804D01*
X151198555Y-53726267D01*
X151159515Y-53681213D01*
X151129241Y-53621797D01*
X151069524Y-53504595D01*
X150953828Y-53345354D01*
X150814646Y-53206172D01*
X150655405Y-53090476D01*
X150639204Y-53082221D01*
X150480029Y-53001117D01*
X150292826Y-52940290D01*
X150098422Y-52909500D01*
X150098417Y-52909500D01*
X149901583Y-52909500D01*
X149901577Y-52909500D01*
X149702544Y-52941023D01*
X149633251Y-52932068D01*
X149595466Y-52906231D01*
X149427590Y-52738355D01*
X149427588Y-52738352D01*
X149308717Y-52619481D01*
X149308716Y-52619480D01*
X149221904Y-52569360D01*
X149221904Y-52569359D01*
X149221900Y-52569358D01*
X149171785Y-52540423D01*
X149019057Y-52499499D01*
X148860943Y-52499499D01*
X148853347Y-52499499D01*
X148853331Y-52499500D01*
X146340413Y-52499500D01*
X146273374Y-52479815D01*
X146252732Y-52463181D01*
X144523965Y-50734414D01*
X144490480Y-50673091D01*
X144487646Y-50646733D01*
X144487646Y-49191282D01*
X144487647Y-49191269D01*
X144487647Y-49023166D01*
X144484037Y-49009694D01*
X144446723Y-48870438D01*
X144432610Y-48845993D01*
X144367670Y-48733512D01*
X144367664Y-48733504D01*
X144034226Y-48400066D01*
X144000741Y-48338743D01*
X143997907Y-48312385D01*
X143997907Y-46913514D01*
X144000290Y-46889323D01*
X144002384Y-46878796D01*
X144043328Y-46672950D01*
X144045168Y-46665058D01*
X144059494Y-46611595D01*
X144059494Y-46603893D01*
X144061876Y-46579705D01*
X144063379Y-46572151D01*
X144059759Y-46516918D01*
X144059494Y-46508809D01*
X144059494Y-46209142D01*
X144059495Y-46209129D01*
X144059495Y-46041028D01*
X144059495Y-46041026D01*
X144018571Y-45888298D01*
X143970203Y-45804523D01*
X143939514Y-45751367D01*
X143827710Y-45639563D01*
X143827709Y-45639562D01*
X143823379Y-45635232D01*
X143823368Y-45635222D01*
X143255991Y-45067845D01*
X143222506Y-45006522D01*
X143227490Y-44936830D01*
X143255991Y-44892483D01*
X143279760Y-44868714D01*
X143333828Y-44814646D01*
X143449524Y-44655405D01*
X143538884Y-44480025D01*
X143599709Y-44292826D01*
X143629024Y-44107738D01*
X143630500Y-44098422D01*
X143630500Y-43901577D01*
X143599709Y-43707173D01*
X143538882Y-43519970D01*
X143490122Y-43424274D01*
X143449524Y-43344595D01*
X143333828Y-43185354D01*
X143194646Y-43046172D01*
X143069092Y-42954951D01*
X143035403Y-42930474D01*
X142858787Y-42840485D01*
X142807990Y-42792511D01*
X142791195Y-42724690D01*
X142813732Y-42658555D01*
X142858787Y-42619515D01*
X143035403Y-42529525D01*
X143035402Y-42529525D01*
X143035405Y-42529524D01*
X143194646Y-42413828D01*
X143333828Y-42274646D01*
X143449524Y-42115405D01*
X143538884Y-41940025D01*
X143599709Y-41752826D01*
X143630500Y-41558422D01*
X143630500Y-41361577D01*
X143599709Y-41167173D01*
X143538882Y-40979970D01*
X143449523Y-40804594D01*
X143333828Y-40645354D01*
X143194646Y-40506172D01*
X143101076Y-40438189D01*
X143035403Y-40390474D01*
X142858787Y-40300485D01*
X142807990Y-40252511D01*
X142791195Y-40184690D01*
X142813732Y-40118555D01*
X142858787Y-40079515D01*
X143035403Y-39989525D01*
X143035402Y-39989525D01*
X143035405Y-39989524D01*
X143194646Y-39873828D01*
X143333828Y-39734646D01*
X143449524Y-39575405D01*
X143538884Y-39400025D01*
X143599709Y-39212826D01*
X143612624Y-39131284D01*
X143630500Y-39018422D01*
X143630500Y-38821577D01*
X143599709Y-38627173D01*
X143568460Y-38531001D01*
X143538884Y-38439975D01*
X143538882Y-38439972D01*
X143538882Y-38439970D01*
X143449523Y-38264594D01*
X143333828Y-38105354D01*
X143194646Y-37966172D01*
X143115025Y-37908324D01*
X143035403Y-37850474D01*
X142858787Y-37760485D01*
X142807990Y-37712511D01*
X142791195Y-37644690D01*
X142813732Y-37578555D01*
X142858787Y-37539515D01*
X143035403Y-37449525D01*
X143035402Y-37449525D01*
X143035405Y-37449524D01*
X143194646Y-37333828D01*
X143333828Y-37194646D01*
X143449524Y-37035405D01*
X143538884Y-36860025D01*
X143599709Y-36672826D01*
X143630500Y-36478422D01*
X143630500Y-36281577D01*
X143599709Y-36087173D01*
X143538882Y-35899970D01*
X143449523Y-35724594D01*
X143333828Y-35565354D01*
X143194646Y-35426172D01*
X143115025Y-35368324D01*
X143035403Y-35310474D01*
X142858787Y-35220485D01*
X142807990Y-35172511D01*
X142791195Y-35104690D01*
X142813732Y-35038555D01*
X142858787Y-34999515D01*
X143035403Y-34909525D01*
X143035402Y-34909525D01*
X143035405Y-34909524D01*
X143194646Y-34793828D01*
X143333828Y-34654646D01*
X143449524Y-34495405D01*
X143538884Y-34320025D01*
X143599709Y-34132826D01*
X143599883Y-34131726D01*
X143630500Y-33938422D01*
X143630500Y-33741577D01*
X143599709Y-33547173D01*
X143538882Y-33359970D01*
X143449523Y-33184594D01*
X143333828Y-33025354D01*
X143194646Y-32886172D01*
X143035405Y-32770476D01*
X142860029Y-32681117D01*
X142672826Y-32620290D01*
X142478422Y-32589500D01*
X142478417Y-32589500D01*
X141281583Y-32589500D01*
X141281578Y-32589500D01*
X141087173Y-32620290D01*
X140899970Y-32681117D01*
X140724594Y-32770476D01*
X140633741Y-32836485D01*
X140565354Y-32886172D01*
X140565352Y-32886174D01*
X140565351Y-32886174D01*
X140426174Y-33025351D01*
X140426174Y-33025352D01*
X140426172Y-33025354D01*
X140376485Y-33093741D01*
X140310476Y-33184594D01*
X140221117Y-33359970D01*
X140160290Y-33547173D01*
X140129500Y-33741577D01*
X140129500Y-33938422D01*
X140160290Y-34132826D01*
X140221117Y-34320029D01*
X140258943Y-34394266D01*
X140310476Y-34495405D01*
X140426172Y-34654646D01*
X140565354Y-34793828D01*
X140724595Y-34909524D01*
X140847992Y-34972397D01*
X140901213Y-34999515D01*
X140952009Y-35047489D01*
X140968804Y-35115310D01*
X140946267Y-35181445D01*
X140901213Y-35220485D01*
X140724594Y-35310476D01*
X140633741Y-35376485D01*
X140565354Y-35426172D01*
X140565352Y-35426174D01*
X140565351Y-35426174D01*
X140426174Y-35565351D01*
X140426174Y-35565352D01*
X140426172Y-35565354D01*
X140376485Y-35633741D01*
X140310476Y-35724594D01*
X140221117Y-35899970D01*
X140160290Y-36087173D01*
X140129500Y-36281577D01*
X140129500Y-36478422D01*
X140160290Y-36672826D01*
X140221117Y-36860029D01*
X140310476Y-37035405D01*
X140426172Y-37194646D01*
X140565354Y-37333828D01*
X140724595Y-37449524D01*
X140847992Y-37512397D01*
X140901213Y-37539515D01*
X140952009Y-37587489D01*
X140968804Y-37655310D01*
X140946267Y-37721445D01*
X140901213Y-37760485D01*
X140724594Y-37850476D01*
X140633741Y-37916485D01*
X140565354Y-37966172D01*
X140565352Y-37966174D01*
X140565351Y-37966174D01*
X140426174Y-38105351D01*
X140426174Y-38105352D01*
X140426172Y-38105354D01*
X140376485Y-38173741D01*
X140310476Y-38264594D01*
X140221117Y-38439970D01*
X140160290Y-38627173D01*
X140133726Y-38794898D01*
X140103797Y-38858033D01*
X140044485Y-38894964D01*
X140011253Y-38899500D01*
X136020984Y-38899500D01*
X136020968Y-38899499D01*
X136013372Y-38899499D01*
X135855258Y-38899499D01*
X135747902Y-38928265D01*
X135702525Y-38940424D01*
X135702524Y-38940425D01*
X135652411Y-38969359D01*
X135652410Y-38969360D01*
X135609004Y-38994420D01*
X135565600Y-39019479D01*
X135565597Y-39019481D01*
X135453793Y-39131286D01*
X133054650Y-41530428D01*
X132993327Y-41563913D01*
X132926706Y-41560028D01*
X132869616Y-41540429D01*
X132624335Y-41499500D01*
X132375665Y-41499500D01*
X132130383Y-41540429D01*
X131895197Y-41621169D01*
X131895188Y-41621172D01*
X131676493Y-41739524D01*
X131480257Y-41892261D01*
X131311833Y-42075217D01*
X131175826Y-42283393D01*
X131075936Y-42511118D01*
X131014892Y-42752175D01*
X131014890Y-42752187D01*
X130994357Y-42999994D01*
X130994357Y-43000005D01*
X131014890Y-43247812D01*
X131014892Y-43247824D01*
X131075936Y-43488881D01*
X131175826Y-43716606D01*
X131311833Y-43924782D01*
X131311836Y-43924785D01*
X131480256Y-44107738D01*
X131676491Y-44260474D01*
X131676493Y-44260475D01*
X131876506Y-44368717D01*
X131895190Y-44378828D01*
X132130386Y-44459571D01*
X132375665Y-44500500D01*
X132624335Y-44500500D01*
X132869614Y-44459571D01*
X133104810Y-44378828D01*
X133323509Y-44260474D01*
X133519744Y-44107738D01*
X133688164Y-43924785D01*
X133824173Y-43716607D01*
X133924063Y-43488881D01*
X133985108Y-43247821D01*
X133985109Y-43247812D01*
X134005643Y-43000005D01*
X134005643Y-42999994D01*
X133985109Y-42752187D01*
X133985107Y-42752175D01*
X133959354Y-42650480D01*
X133924063Y-42511119D01*
X133911861Y-42483302D01*
X133902958Y-42414006D01*
X133932933Y-42350893D01*
X133937718Y-42345830D01*
X134238056Y-42045492D01*
X134299377Y-42012009D01*
X134369069Y-42016993D01*
X134413416Y-42045494D01*
X134497738Y-42129816D01*
X134536575Y-42154219D01*
X134632721Y-42214632D01*
X134650478Y-42225789D01*
X134788860Y-42274211D01*
X134820745Y-42285368D01*
X134820750Y-42285369D01*
X134999996Y-42305565D01*
X135000000Y-42305565D01*
X135000004Y-42305565D01*
X135179249Y-42285369D01*
X135179250Y-42285368D01*
X135179255Y-42285368D01*
X135234545Y-42266020D01*
X135304322Y-42262458D01*
X135364950Y-42297186D01*
X135397178Y-42359179D01*
X135399500Y-42383062D01*
X135399500Y-43913330D01*
X135399499Y-43913348D01*
X135399499Y-44079054D01*
X135399498Y-44079054D01*
X135404686Y-44098417D01*
X135440423Y-44231785D01*
X135456987Y-44260474D01*
X135519479Y-44368714D01*
X135519481Y-44368717D01*
X135638349Y-44487585D01*
X135638355Y-44487590D01*
X137706705Y-46555941D01*
X137740190Y-46617264D01*
X137735206Y-46686956D01*
X137722834Y-46711442D01*
X137675829Y-46783391D01*
X137675826Y-46783395D01*
X137657440Y-46825311D01*
X137612483Y-46878796D01*
X137545747Y-46899486D01*
X137543884Y-46899500D01*
X133956116Y-46899500D01*
X133889077Y-46879815D01*
X133843322Y-46827011D01*
X133842560Y-46825311D01*
X133824172Y-46783391D01*
X133688166Y-46575217D01*
X133627033Y-46508809D01*
X133519744Y-46392262D01*
X133323509Y-46239526D01*
X133323507Y-46239525D01*
X133323506Y-46239524D01*
X133104811Y-46121172D01*
X133104802Y-46121169D01*
X132869616Y-46040429D01*
X132624335Y-45999500D01*
X132375665Y-45999500D01*
X132130383Y-46040429D01*
X131895197Y-46121169D01*
X131895188Y-46121172D01*
X131676493Y-46239524D01*
X131480257Y-46392261D01*
X131311833Y-46575217D01*
X131175826Y-46783393D01*
X131075936Y-47011118D01*
X131014892Y-47252175D01*
X131014890Y-47252187D01*
X130994357Y-47499994D01*
X130994357Y-47500005D01*
X131014890Y-47747812D01*
X131014892Y-47747824D01*
X131075936Y-47988881D01*
X131175826Y-48216606D01*
X131311833Y-48424782D01*
X131311836Y-48424785D01*
X131480256Y-48607738D01*
X131676491Y-48760474D01*
X131895190Y-48878828D01*
X132130386Y-48959571D01*
X132375665Y-49000500D01*
X132599903Y-49000500D01*
X132666942Y-49020185D01*
X132687584Y-49036819D01*
X133863181Y-50212416D01*
X133896666Y-50273739D01*
X133899500Y-50300097D01*
X133899500Y-51487002D01*
X133879815Y-51554041D01*
X133827011Y-51599796D01*
X133757853Y-51609740D01*
X133694297Y-51580715D01*
X133684270Y-51570985D01*
X133606958Y-51487002D01*
X133519744Y-51392262D01*
X133323509Y-51239526D01*
X133323507Y-51239525D01*
X133323506Y-51239524D01*
X133104811Y-51121172D01*
X133104802Y-51121169D01*
X132869616Y-51040429D01*
X132624335Y-50999500D01*
X132375665Y-50999500D01*
X132130383Y-51040429D01*
X131895197Y-51121169D01*
X131895188Y-51121172D01*
X131676493Y-51239524D01*
X131480257Y-51392261D01*
X131311833Y-51575217D01*
X131175826Y-51783393D01*
X131075936Y-52011118D01*
X131014892Y-52252175D01*
X131014890Y-52252187D01*
X130994357Y-52499994D01*
X130994357Y-52500005D01*
X131014890Y-52747812D01*
X131014892Y-52747824D01*
X131075936Y-52988881D01*
X131175826Y-53216606D01*
X131311833Y-53424782D01*
X131311836Y-53424785D01*
X131480256Y-53607738D01*
X131676491Y-53760474D01*
X131895190Y-53878828D01*
X132130386Y-53959571D01*
X132375665Y-54000500D01*
X132624335Y-54000500D01*
X132869614Y-53959571D01*
X133104810Y-53878828D01*
X133323509Y-53760474D01*
X133519744Y-53607738D01*
X133684274Y-53429010D01*
X133744157Y-53393023D01*
X133813995Y-53395123D01*
X133871611Y-53434646D01*
X133898713Y-53499046D01*
X133899500Y-53512996D01*
X133899500Y-55987002D01*
X133879815Y-56054041D01*
X133827011Y-56099796D01*
X133757853Y-56109740D01*
X133694297Y-56080715D01*
X133684270Y-56070985D01*
X133644731Y-56028034D01*
X133519744Y-55892262D01*
X133323509Y-55739526D01*
X133323507Y-55739525D01*
X133323506Y-55739524D01*
X133104811Y-55621172D01*
X133104802Y-55621169D01*
X132869616Y-55540429D01*
X132624335Y-55499500D01*
X132375665Y-55499500D01*
X132130383Y-55540429D01*
X131895197Y-55621169D01*
X131895188Y-55621172D01*
X131676493Y-55739524D01*
X131480257Y-55892261D01*
X131311836Y-56075215D01*
X131211037Y-56229499D01*
X131157890Y-56274855D01*
X131088659Y-56284279D01*
X131025323Y-56254777D01*
X130989809Y-56201535D01*
X130960037Y-56113828D01*
X130927009Y-56016532D01*
X130925383Y-56011376D01*
X130914678Y-55974648D01*
X130682718Y-55178833D01*
X130681321Y-55173616D01*
X130632633Y-54974646D01*
X130475210Y-54331309D01*
X130474040Y-54326030D01*
X130382768Y-53867174D01*
X130304866Y-53475537D01*
X130303927Y-53470214D01*
X130276421Y-53291507D01*
X130172002Y-52613086D01*
X130171307Y-52607808D01*
X130076895Y-51745735D01*
X130076430Y-51740420D01*
X130019709Y-50875022D01*
X130019475Y-50869638D01*
X130018072Y-50805355D01*
X130000530Y-50001374D01*
X130000500Y-49998669D01*
X130000500Y-32878711D01*
X131149500Y-32878711D01*
X131149500Y-33121288D01*
X131181161Y-33361785D01*
X131243947Y-33596104D01*
X131304204Y-33741577D01*
X131336776Y-33820212D01*
X131458064Y-34030289D01*
X131458066Y-34030292D01*
X131458067Y-34030293D01*
X131605733Y-34222736D01*
X131605739Y-34222743D01*
X131777256Y-34394260D01*
X131777262Y-34394265D01*
X131969711Y-34541936D01*
X132179788Y-34663224D01*
X132403900Y-34756054D01*
X132638211Y-34818838D01*
X132818586Y-34842584D01*
X132878711Y-34850500D01*
X132878712Y-34850500D01*
X133121289Y-34850500D01*
X133169388Y-34844167D01*
X133361789Y-34818838D01*
X133596100Y-34756054D01*
X133820212Y-34663224D01*
X134030289Y-34541936D01*
X134222738Y-34394265D01*
X134394265Y-34222738D01*
X134541936Y-34030289D01*
X134663224Y-33820212D01*
X134756054Y-33596100D01*
X134818838Y-33361789D01*
X134850500Y-33121288D01*
X134850500Y-32878712D01*
X134818838Y-32638211D01*
X134756054Y-32403900D01*
X134663224Y-32179788D01*
X134541936Y-31969711D01*
X134394265Y-31777262D01*
X134394260Y-31777256D01*
X134222743Y-31605739D01*
X134222736Y-31605733D01*
X134030293Y-31458067D01*
X134030292Y-31458066D01*
X134030289Y-31458064D01*
X133820212Y-31336776D01*
X133820205Y-31336773D01*
X133596104Y-31243947D01*
X133460434Y-31207594D01*
X133361789Y-31181162D01*
X133361788Y-31181161D01*
X133361785Y-31181161D01*
X133121289Y-31149500D01*
X133121288Y-31149500D01*
X132878712Y-31149500D01*
X132878711Y-31149500D01*
X132638214Y-31181161D01*
X132403895Y-31243947D01*
X132179794Y-31336773D01*
X132179785Y-31336777D01*
X131969706Y-31458067D01*
X131777263Y-31605733D01*
X131777256Y-31605739D01*
X131605739Y-31777256D01*
X131605733Y-31777263D01*
X131458067Y-31969706D01*
X131336777Y-32179785D01*
X131336773Y-32179794D01*
X131243947Y-32403895D01*
X131181161Y-32638214D01*
X131149500Y-32878711D01*
X130000500Y-32878711D01*
X130000500Y-31504427D01*
X130000816Y-31495581D01*
X130015130Y-31295443D01*
X130017646Y-31277938D01*
X130059356Y-31086199D01*
X130064333Y-31069248D01*
X130132911Y-30885385D01*
X130140259Y-30869298D01*
X130202815Y-30754734D01*
X130234291Y-30697089D01*
X130243845Y-30682221D01*
X130361448Y-30525123D01*
X130373020Y-30511769D01*
X130511769Y-30373020D01*
X130525123Y-30361448D01*
X130682221Y-30243845D01*
X130697089Y-30234291D01*
X130869298Y-30140258D01*
X130885385Y-30132911D01*
X131069248Y-30064333D01*
X131086199Y-30059356D01*
X131277938Y-30017646D01*
X131295436Y-30015130D01*
X131495582Y-30000816D01*
X131504428Y-30000500D01*
X131565892Y-30000500D01*
X149934108Y-30000500D01*
X149998670Y-30000500D01*
X150001374Y-30000529D01*
G37*
%TD.AperFunction*%
%TA.AperFunction,NonConductor*%
G36*
X157262820Y-55358799D02*
G01*
X157327166Y-55379707D01*
X157327169Y-55379707D01*
X157327174Y-55379709D01*
X157417213Y-55393969D01*
X157521578Y-55410500D01*
X157521583Y-55410500D01*
X158040903Y-55410500D01*
X158107942Y-55430185D01*
X158153697Y-55482989D01*
X158163641Y-55552147D01*
X158134616Y-55615703D01*
X158128584Y-55622181D01*
X157481465Y-56269298D01*
X157420142Y-56302783D01*
X157407668Y-56304837D01*
X157320748Y-56314630D01*
X157265453Y-56333979D01*
X157195674Y-56337540D01*
X157135047Y-56302810D01*
X157102821Y-56240817D01*
X157100500Y-56216937D01*
X157100500Y-55476729D01*
X157120185Y-55409690D01*
X157172989Y-55363935D01*
X157242147Y-55353991D01*
X157262820Y-55358799D01*
G37*
%TD.AperFunction*%
%TA.AperFunction,NonConductor*%
G36*
X166110923Y-53120185D02*
G01*
X166156678Y-53172989D01*
X166157440Y-53174689D01*
X166175827Y-53216608D01*
X166311833Y-53424782D01*
X166311836Y-53424785D01*
X166480256Y-53607738D01*
X166676491Y-53760474D01*
X166895190Y-53878828D01*
X167130386Y-53959571D01*
X167375665Y-54000500D01*
X167624335Y-54000500D01*
X167869614Y-53959571D01*
X168104810Y-53878828D01*
X168104817Y-53878824D01*
X168104820Y-53878823D01*
X168216482Y-53818394D01*
X168284810Y-53803798D01*
X168350182Y-53828460D01*
X168391844Y-53884551D01*
X168399500Y-53927448D01*
X168399500Y-55199902D01*
X168379815Y-55266941D01*
X168363181Y-55287583D01*
X168103548Y-55547215D01*
X168042225Y-55580700D01*
X167975604Y-55576815D01*
X167869616Y-55540429D01*
X167624335Y-55499500D01*
X167375665Y-55499500D01*
X167130383Y-55540429D01*
X166895197Y-55621169D01*
X166895188Y-55621172D01*
X166676493Y-55739524D01*
X166480257Y-55892261D01*
X166311833Y-56075217D01*
X166175827Y-56283391D01*
X166157440Y-56325311D01*
X166112483Y-56378796D01*
X166045747Y-56399486D01*
X166043884Y-56399500D01*
X162456116Y-56399500D01*
X162389077Y-56379815D01*
X162343322Y-56327011D01*
X162342560Y-56325311D01*
X162324172Y-56283391D01*
X162188166Y-56075217D01*
X162106958Y-55987002D01*
X162019744Y-55892262D01*
X161823509Y-55739526D01*
X161823507Y-55739525D01*
X161823506Y-55739524D01*
X161604811Y-55621172D01*
X161604802Y-55621169D01*
X161369616Y-55540429D01*
X161126615Y-55499880D01*
X161063729Y-55469430D01*
X161027290Y-55409815D01*
X161028865Y-55339963D01*
X161059341Y-55289892D01*
X161358506Y-54990728D01*
X161358511Y-54990724D01*
X161368714Y-54980520D01*
X161368716Y-54980520D01*
X161480520Y-54868716D01*
X161559577Y-54731784D01*
X161600500Y-54579057D01*
X161600500Y-53955048D01*
X161620185Y-53888009D01*
X161665481Y-53845993D01*
X161823509Y-53760474D01*
X162019744Y-53607738D01*
X162188164Y-53424785D01*
X162324173Y-53216607D01*
X162342560Y-53174689D01*
X162387517Y-53121204D01*
X162454253Y-53100514D01*
X162456116Y-53100500D01*
X166043884Y-53100500D01*
X166110923Y-53120185D01*
G37*
%TD.AperFunction*%
%TA.AperFunction,NonConductor*%
G36*
X146261445Y-55593732D02*
G01*
X146300485Y-55638787D01*
X146390474Y-55815403D01*
X146425234Y-55863246D01*
X146506172Y-55974646D01*
X146645354Y-56113828D01*
X146729802Y-56175183D01*
X146772466Y-56230512D01*
X146778445Y-56300126D01*
X146745839Y-56361920D01*
X146685000Y-56396278D01*
X146656915Y-56399500D01*
X145723085Y-56399500D01*
X145656046Y-56379815D01*
X145610291Y-56327011D01*
X145600347Y-56257853D01*
X145629372Y-56194297D01*
X145650195Y-56175185D01*
X145734646Y-56113828D01*
X145873828Y-55974646D01*
X145989524Y-55815405D01*
X146078884Y-55640025D01*
X146079515Y-55638787D01*
X146127489Y-55587990D01*
X146195310Y-55571195D01*
X146261445Y-55593732D01*
G37*
%TD.AperFunction*%
%TA.AperFunction,NonConductor*%
G36*
X135305703Y-52909763D02*
G01*
X135329493Y-52937503D01*
X135370184Y-53002262D01*
X135497738Y-53129816D01*
X135569153Y-53174689D01*
X135635866Y-53216608D01*
X135650478Y-53225789D01*
X135778255Y-53270500D01*
X135820745Y-53285368D01*
X135820750Y-53285369D01*
X135999996Y-53305565D01*
X136000000Y-53305565D01*
X136000004Y-53305565D01*
X136179249Y-53285369D01*
X136179252Y-53285368D01*
X136179255Y-53285368D01*
X136349522Y-53225789D01*
X136502262Y-53129816D01*
X136502267Y-53129810D01*
X136505097Y-53127555D01*
X136507275Y-53126665D01*
X136508158Y-53126111D01*
X136508255Y-53126265D01*
X136569783Y-53101145D01*
X136582412Y-53100500D01*
X137543884Y-53100500D01*
X137610923Y-53120185D01*
X137656678Y-53172989D01*
X137657440Y-53174689D01*
X137675827Y-53216608D01*
X137811833Y-53424782D01*
X137811836Y-53424785D01*
X137980256Y-53607738D01*
X138176491Y-53760474D01*
X138395190Y-53878828D01*
X138630386Y-53959571D01*
X138875665Y-54000500D01*
X139124335Y-54000500D01*
X139369614Y-53959571D01*
X139604810Y-53878828D01*
X139823509Y-53760474D01*
X140001681Y-53621796D01*
X140066675Y-53596154D01*
X140135215Y-53609720D01*
X140185539Y-53658189D01*
X140201671Y-53726171D01*
X140195774Y-53757969D01*
X140160290Y-53867173D01*
X140129500Y-54061577D01*
X140129500Y-54258422D01*
X140160290Y-54452826D01*
X140221117Y-54640029D01*
X140291782Y-54778716D01*
X140310476Y-54815405D01*
X140426172Y-54974646D01*
X140565354Y-55113828D01*
X140724595Y-55229524D01*
X140807455Y-55271743D01*
X140899970Y-55318882D01*
X140899972Y-55318882D01*
X140899975Y-55318884D01*
X141000317Y-55351487D01*
X141087173Y-55379709D01*
X141281578Y-55410500D01*
X141281583Y-55410500D01*
X142478422Y-55410500D01*
X142672826Y-55379709D01*
X142721373Y-55363935D01*
X142860025Y-55318884D01*
X143035405Y-55229524D01*
X143194646Y-55113828D01*
X143333828Y-54974646D01*
X143445182Y-54821380D01*
X143500512Y-54778716D01*
X143570126Y-54772737D01*
X143631921Y-54805343D01*
X143666278Y-54866182D01*
X143669500Y-54894267D01*
X143669500Y-55258422D01*
X143700290Y-55452826D01*
X143761117Y-55640029D01*
X143811814Y-55739526D01*
X143850476Y-55815405D01*
X143966172Y-55974646D01*
X144105354Y-56113828D01*
X144189802Y-56175183D01*
X144232466Y-56230512D01*
X144238445Y-56300126D01*
X144205839Y-56361920D01*
X144145000Y-56396278D01*
X144116915Y-56399500D01*
X140456116Y-56399500D01*
X140389077Y-56379815D01*
X140343322Y-56327011D01*
X140342560Y-56325311D01*
X140324172Y-56283391D01*
X140188166Y-56075217D01*
X140106958Y-55987002D01*
X140019744Y-55892262D01*
X139823509Y-55739526D01*
X139823507Y-55739525D01*
X139823506Y-55739524D01*
X139604811Y-55621172D01*
X139604802Y-55621169D01*
X139369616Y-55540429D01*
X139124335Y-55499500D01*
X138875665Y-55499500D01*
X138630383Y-55540429D01*
X138395197Y-55621169D01*
X138395188Y-55621172D01*
X138176493Y-55739524D01*
X137980257Y-55892261D01*
X137811833Y-56075217D01*
X137675827Y-56283391D01*
X137657440Y-56325311D01*
X137612483Y-56378796D01*
X137545747Y-56399486D01*
X137543884Y-56399500D01*
X135224500Y-56399500D01*
X135157461Y-56379815D01*
X135111706Y-56327011D01*
X135100500Y-56275500D01*
X135100500Y-53003476D01*
X135120185Y-52936437D01*
X135172989Y-52890682D01*
X135242147Y-52880738D01*
X135305703Y-52909763D01*
G37*
%TD.AperFunction*%
%TA.AperFunction,NonConductor*%
G36*
X148462952Y-56028034D02*
G01*
X148507300Y-56056535D01*
X148716139Y-56265374D01*
X148749624Y-56326697D01*
X148744640Y-56396389D01*
X148702768Y-56452322D01*
X148637304Y-56476739D01*
X148569031Y-56461887D01*
X148566457Y-56460441D01*
X148531787Y-56440424D01*
X148531786Y-56440423D01*
X148531785Y-56440423D01*
X148379057Y-56399499D01*
X148263087Y-56399499D01*
X148196048Y-56379814D01*
X148150293Y-56327010D01*
X148140349Y-56257852D01*
X148169374Y-56194296D01*
X148190201Y-56175181D01*
X148274646Y-56113828D01*
X148331941Y-56056532D01*
X148393260Y-56023050D01*
X148462952Y-56028034D01*
G37*
%TD.AperFunction*%
%TA.AperFunction,NonConductor*%
G36*
X151341445Y-55593732D02*
G01*
X151380485Y-55638787D01*
X151470474Y-55815403D01*
X151505234Y-55863246D01*
X151586172Y-55974646D01*
X151725354Y-56113828D01*
X151884561Y-56229499D01*
X151888386Y-56232278D01*
X151931051Y-56287608D01*
X151939500Y-56332596D01*
X151939500Y-57060182D01*
X151919815Y-57127221D01*
X151867011Y-57172976D01*
X151797853Y-57182920D01*
X151734297Y-57153895D01*
X151710507Y-57126155D01*
X151629817Y-56997739D01*
X151502262Y-56870184D01*
X151349521Y-56774210D01*
X151179249Y-56714630D01*
X151092332Y-56704837D01*
X151027918Y-56677770D01*
X151018535Y-56669298D01*
X150980523Y-56631286D01*
X150980520Y-56631284D01*
X150868717Y-56519481D01*
X150868716Y-56519480D01*
X150781904Y-56469360D01*
X150781904Y-56469359D01*
X150781900Y-56469358D01*
X150731785Y-56440423D01*
X150731784Y-56440422D01*
X150715027Y-56435932D01*
X150655367Y-56399565D01*
X150624840Y-56336717D01*
X150633137Y-56267342D01*
X150674236Y-56215842D01*
X150814646Y-56113828D01*
X150953828Y-55974646D01*
X151069524Y-55815405D01*
X151158884Y-55640025D01*
X151159515Y-55638787D01*
X151207489Y-55587990D01*
X151275310Y-55571195D01*
X151341445Y-55593732D01*
G37*
%TD.AperFunction*%
%TA.AperFunction,NonConductor*%
G36*
X151855741Y-57908940D02*
G01*
X151894114Y-57967330D01*
X151899499Y-58003477D01*
X151899499Y-58089046D01*
X151899500Y-58089059D01*
X151899500Y-58417587D01*
X151879815Y-58484626D01*
X151872450Y-58494896D01*
X151870186Y-58497734D01*
X151774211Y-58650476D01*
X151714631Y-58820745D01*
X151714630Y-58820750D01*
X151694435Y-58999996D01*
X151694435Y-59000003D01*
X151714630Y-59179249D01*
X151714632Y-59179257D01*
X151743042Y-59260448D01*
X151746603Y-59330227D01*
X151711874Y-59390854D01*
X151649881Y-59423081D01*
X151580305Y-59416676D01*
X151538319Y-59389083D01*
X151084625Y-58935389D01*
X150610914Y-58461678D01*
X150577430Y-58400357D01*
X150582414Y-58330666D01*
X150624286Y-58274732D01*
X150689750Y-58250315D01*
X150739551Y-58256957D01*
X150820745Y-58285368D01*
X150820750Y-58285369D01*
X150999996Y-58305565D01*
X151000000Y-58305565D01*
X151000004Y-58305565D01*
X151179249Y-58285369D01*
X151179252Y-58285368D01*
X151179255Y-58285368D01*
X151349522Y-58225789D01*
X151502262Y-58129816D01*
X151629816Y-58002262D01*
X151670506Y-57937503D01*
X151722839Y-57891214D01*
X151791893Y-57880565D01*
X151855741Y-57908940D01*
G37*
%TD.AperFunction*%
%TA.AperFunction,NonConductor*%
G36*
X159425101Y-57026646D02*
G01*
X159481034Y-57068518D01*
X159505343Y-57132588D01*
X159514890Y-57247812D01*
X159514892Y-57247824D01*
X159576007Y-57489160D01*
X159573382Y-57558980D01*
X159543482Y-57607281D01*
X157287584Y-59863181D01*
X157226261Y-59896666D01*
X157199903Y-59899500D01*
X157003476Y-59899500D01*
X156936437Y-59879815D01*
X156890682Y-59827011D01*
X156880738Y-59757853D01*
X156909763Y-59694297D01*
X156937504Y-59670506D01*
X156950147Y-59662562D01*
X157002262Y-59629816D01*
X157129816Y-59502262D01*
X157225789Y-59349522D01*
X157285368Y-59179255D01*
X157300020Y-59049215D01*
X157305565Y-59000003D01*
X157305565Y-58999997D01*
X157298285Y-58935389D01*
X157310339Y-58866567D01*
X157357688Y-58815188D01*
X157425298Y-58797563D01*
X157435385Y-58798284D01*
X157461857Y-58801267D01*
X157499998Y-58805565D01*
X157500000Y-58805565D01*
X157500004Y-58805565D01*
X157679249Y-58785369D01*
X157679252Y-58785368D01*
X157679255Y-58785368D01*
X157849522Y-58725789D01*
X158002262Y-58629816D01*
X158129816Y-58502262D01*
X158225789Y-58349522D01*
X158285368Y-58179255D01*
X158295161Y-58092329D01*
X158322226Y-58027918D01*
X158330690Y-58018543D01*
X159294088Y-57055145D01*
X159355409Y-57021662D01*
X159425101Y-57026646D01*
G37*
%TD.AperFunction*%
%TA.AperFunction,NonConductor*%
G36*
X152912374Y-59780594D02*
G01*
X152944602Y-59842588D01*
X152946923Y-59866469D01*
X152946923Y-59869637D01*
X152927238Y-59936676D01*
X152910604Y-59957318D01*
X152870184Y-59997737D01*
X152774209Y-60150480D01*
X152716393Y-60315709D01*
X152675672Y-60372485D01*
X152610719Y-60398232D01*
X152542157Y-60384776D01*
X152511671Y-60362435D01*
X152110916Y-59961680D01*
X152077431Y-59900357D01*
X152082415Y-59830665D01*
X152124287Y-59774732D01*
X152189751Y-59750315D01*
X152239552Y-59756958D01*
X152320737Y-59785366D01*
X152320743Y-59785367D01*
X152320745Y-59785368D01*
X152320746Y-59785368D01*
X152320750Y-59785369D01*
X152499996Y-59805565D01*
X152500000Y-59805565D01*
X152500004Y-59805565D01*
X152679249Y-59785369D01*
X152679251Y-59785368D01*
X152679255Y-59785368D01*
X152679258Y-59785366D01*
X152679262Y-59785366D01*
X152781968Y-59749428D01*
X152851747Y-59745866D01*
X152912374Y-59780594D01*
G37*
%TD.AperFunction*%
%TA.AperFunction,NonConductor*%
G36*
X154420431Y-56227402D02*
G01*
X154424593Y-56229522D01*
X154424595Y-56229524D01*
X154474157Y-56254777D01*
X154599970Y-56318882D01*
X154599972Y-56318882D01*
X154599975Y-56318884D01*
X154657392Y-56337540D01*
X154787173Y-56379709D01*
X154981578Y-56410500D01*
X154981583Y-56410500D01*
X155178422Y-56410500D01*
X155372826Y-56379709D01*
X155389747Y-56374211D01*
X155560025Y-56318884D01*
X155719205Y-56237777D01*
X155787874Y-56224882D01*
X155852615Y-56251158D01*
X155892872Y-56308265D01*
X155899500Y-56348263D01*
X155899500Y-58417587D01*
X155879815Y-58484626D01*
X155872450Y-58494896D01*
X155870186Y-58497734D01*
X155774211Y-58650476D01*
X155714631Y-58820745D01*
X155714630Y-58820750D01*
X155694435Y-58999996D01*
X155694435Y-59000003D01*
X155714630Y-59179249D01*
X155714631Y-59179254D01*
X155774211Y-59349523D01*
X155820431Y-59423081D01*
X155870184Y-59502262D01*
X155997738Y-59629816D01*
X156049853Y-59662562D01*
X156062496Y-59670506D01*
X156108787Y-59722841D01*
X156119435Y-59791894D01*
X156091060Y-59855743D01*
X156032670Y-59894115D01*
X155996524Y-59899500D01*
X155879057Y-59899500D01*
X155720943Y-59899500D01*
X155568215Y-59940423D01*
X155568214Y-59940423D01*
X155568212Y-59940424D01*
X155568209Y-59940425D01*
X155533066Y-59960716D01*
X155533064Y-59960717D01*
X155431290Y-60019475D01*
X155431282Y-60019481D01*
X155319478Y-60131286D01*
X154403548Y-61047215D01*
X154342225Y-61080700D01*
X154275607Y-61076816D01*
X154265114Y-61073214D01*
X154208097Y-61032830D01*
X154181966Y-60968031D01*
X154195015Y-60899391D01*
X154200381Y-60889959D01*
X154225788Y-60849524D01*
X154285368Y-60679254D01*
X154285369Y-60679249D01*
X154305565Y-60500003D01*
X154305565Y-60499996D01*
X154285369Y-60320750D01*
X154285368Y-60320745D01*
X154283606Y-60315709D01*
X154225789Y-60150478D01*
X154213729Y-60131284D01*
X154166929Y-60056802D01*
X154147923Y-59990830D01*
X154147923Y-56482413D01*
X154167608Y-56415374D01*
X154174978Y-56405098D01*
X154177233Y-56402268D01*
X154177239Y-56402263D01*
X154259142Y-56271914D01*
X154311477Y-56225624D01*
X154380530Y-56214976D01*
X154420431Y-56227402D01*
G37*
%TD.AperFunction*%
%TA.AperFunction,NonConductor*%
G36*
X137610923Y-57620185D02*
G01*
X137656678Y-57672989D01*
X137657440Y-57674689D01*
X137675827Y-57716608D01*
X137811833Y-57924782D01*
X137844245Y-57959991D01*
X137980256Y-58107738D01*
X138176491Y-58260474D01*
X138395190Y-58378828D01*
X138630386Y-58459571D01*
X138875665Y-58500500D01*
X139124335Y-58500500D01*
X139369614Y-58459571D01*
X139604810Y-58378828D01*
X139823509Y-58260474D01*
X140019744Y-58107738D01*
X140188164Y-57924785D01*
X140324173Y-57716607D01*
X140342560Y-57674689D01*
X140387517Y-57621204D01*
X140454253Y-57600514D01*
X140456116Y-57600500D01*
X147999903Y-57600500D01*
X148066942Y-57620185D01*
X148087584Y-57636819D01*
X152343482Y-61892718D01*
X152376967Y-61954041D01*
X152376007Y-62010839D01*
X152314892Y-62252174D01*
X152314890Y-62252187D01*
X152294357Y-62499994D01*
X152294357Y-62500005D01*
X152314890Y-62747812D01*
X152314892Y-62747824D01*
X152375936Y-62988881D01*
X152475826Y-63216606D01*
X152611833Y-63424782D01*
X152611836Y-63424785D01*
X152780256Y-63607738D01*
X152976491Y-63760474D01*
X153195190Y-63878828D01*
X153430386Y-63959571D01*
X153675665Y-64000500D01*
X153924335Y-64000500D01*
X154169614Y-63959571D01*
X154404810Y-63878828D01*
X154623509Y-63760474D01*
X154819744Y-63607738D01*
X154988164Y-63424785D01*
X155124173Y-63216607D01*
X155224063Y-62988881D01*
X155285108Y-62747821D01*
X155305643Y-62500000D01*
X155285108Y-62252179D01*
X155224063Y-62011119D01*
X155224062Y-62011118D01*
X155223992Y-62010839D01*
X155226616Y-61941018D01*
X155256514Y-61892719D01*
X156012416Y-61136819D01*
X156073739Y-61103334D01*
X156100097Y-61100500D01*
X157413331Y-61100500D01*
X157413347Y-61100501D01*
X157420943Y-61100501D01*
X157586653Y-61100501D01*
X157586669Y-61100500D01*
X158417588Y-61100500D01*
X158484627Y-61120185D01*
X158494903Y-61127555D01*
X158497736Y-61129814D01*
X158497738Y-61129816D01*
X158650478Y-61225789D01*
X158741572Y-61257664D01*
X158820745Y-61285368D01*
X158820750Y-61285369D01*
X158999996Y-61305565D01*
X159000000Y-61305565D01*
X159000004Y-61305565D01*
X159179249Y-61285369D01*
X159179252Y-61285368D01*
X159179255Y-61285368D01*
X159349522Y-61225789D01*
X159502262Y-61129816D01*
X159629816Y-61002262D01*
X159725789Y-60849522D01*
X159785368Y-60679255D01*
X159805565Y-60500000D01*
X159792582Y-60384776D01*
X159785369Y-60320750D01*
X159785368Y-60320745D01*
X159783606Y-60315709D01*
X159725789Y-60150478D01*
X159629816Y-59997738D01*
X159502262Y-59870184D01*
X159399422Y-59805565D01*
X159349521Y-59774210D01*
X159332447Y-59768236D01*
X159275671Y-59727514D01*
X159249923Y-59662562D01*
X159263379Y-59594000D01*
X159285717Y-59563516D01*
X160396452Y-58452781D01*
X160457773Y-58419298D01*
X160524392Y-58423182D01*
X160596350Y-58447886D01*
X160630385Y-58459571D01*
X160875665Y-58500500D01*
X161124335Y-58500500D01*
X161369614Y-58459571D01*
X161604810Y-58378828D01*
X161823509Y-58260474D01*
X162019744Y-58107738D01*
X162188164Y-57924785D01*
X162324173Y-57716607D01*
X162342560Y-57674689D01*
X162387517Y-57621204D01*
X162454253Y-57600514D01*
X162456116Y-57600500D01*
X166043884Y-57600500D01*
X166110923Y-57620185D01*
X166156678Y-57672989D01*
X166157440Y-57674689D01*
X166175827Y-57716608D01*
X166311833Y-57924782D01*
X166344245Y-57959991D01*
X166480256Y-58107738D01*
X166676491Y-58260474D01*
X166895190Y-58378828D01*
X167130386Y-58459571D01*
X167375665Y-58500500D01*
X167624335Y-58500500D01*
X167869614Y-58459571D01*
X167888961Y-58452928D01*
X167958759Y-58449778D01*
X168019181Y-58484864D01*
X168051042Y-58547046D01*
X168044228Y-58616582D01*
X168040437Y-58625054D01*
X167740971Y-59232310D01*
X167738473Y-59237109D01*
X167321375Y-59997379D01*
X167318670Y-60002064D01*
X166868810Y-60743411D01*
X166865903Y-60747974D01*
X166384130Y-61468998D01*
X166381027Y-61473429D01*
X165868273Y-62172736D01*
X165864980Y-62177028D01*
X165322200Y-62853319D01*
X165318722Y-62857464D01*
X164746964Y-63509428D01*
X164743309Y-63513417D01*
X164143652Y-64139827D01*
X164139827Y-64143652D01*
X163513417Y-64743309D01*
X163509428Y-64746964D01*
X162857464Y-65318722D01*
X162853319Y-65322200D01*
X162177028Y-65864980D01*
X162172736Y-65868273D01*
X161473429Y-66381027D01*
X161468998Y-66384130D01*
X160747974Y-66865903D01*
X160743411Y-66868810D01*
X160002064Y-67318670D01*
X159997379Y-67321375D01*
X159237109Y-67738473D01*
X159232310Y-67740971D01*
X158454593Y-68124499D01*
X158449690Y-68126786D01*
X157655941Y-68476044D01*
X157650942Y-68478114D01*
X156842745Y-68792405D01*
X156837661Y-68794255D01*
X156016535Y-69072989D01*
X156011376Y-69074616D01*
X155178842Y-69317278D01*
X155173616Y-69318678D01*
X154331312Y-69524788D01*
X154326030Y-69525959D01*
X153475542Y-69695132D01*
X153470214Y-69696072D01*
X152613129Y-69827991D01*
X152607765Y-69828697D01*
X151745772Y-69923100D01*
X151740383Y-69923572D01*
X150875043Y-69980289D01*
X150869638Y-69980524D01*
X150002705Y-69999440D01*
X149997295Y-69999440D01*
X149130361Y-69980524D01*
X149124956Y-69980289D01*
X148259616Y-69923572D01*
X148254227Y-69923100D01*
X147783115Y-69871505D01*
X147392230Y-69828696D01*
X147386874Y-69827991D01*
X147276398Y-69810987D01*
X146529785Y-69696072D01*
X146524457Y-69695132D01*
X145673969Y-69525959D01*
X145668687Y-69524788D01*
X144826383Y-69318678D01*
X144821157Y-69317278D01*
X143988623Y-69074616D01*
X143983464Y-69072989D01*
X143162338Y-68794255D01*
X143157254Y-68792405D01*
X142349057Y-68478114D01*
X142344058Y-68476044D01*
X141550309Y-68126786D01*
X141545406Y-68124499D01*
X140767689Y-67740971D01*
X140762890Y-67738473D01*
X140002620Y-67321375D01*
X139997935Y-67318670D01*
X139256588Y-66868810D01*
X139252025Y-66865903D01*
X138531001Y-66384130D01*
X138526570Y-66381027D01*
X137827263Y-65868273D01*
X137822971Y-65864980D01*
X137146680Y-65322200D01*
X137142535Y-65318722D01*
X136490571Y-64746964D01*
X136486582Y-64743309D01*
X135860172Y-64143652D01*
X135856347Y-64139827D01*
X135256690Y-63513417D01*
X135253035Y-63509428D01*
X134681277Y-62857464D01*
X134677799Y-62853319D01*
X134135019Y-62177028D01*
X134131726Y-62172736D01*
X133926407Y-61892717D01*
X133618959Y-61473411D01*
X133615882Y-61469016D01*
X133604602Y-61452135D01*
X144699500Y-61452135D01*
X144699500Y-63547870D01*
X144699501Y-63547876D01*
X144705908Y-63607483D01*
X144756202Y-63742328D01*
X144756206Y-63742335D01*
X144842452Y-63857544D01*
X144842455Y-63857547D01*
X144957664Y-63943793D01*
X144957671Y-63943797D01*
X145092517Y-63994091D01*
X145092516Y-63994091D01*
X145099444Y-63994835D01*
X145152127Y-64000500D01*
X147247872Y-64000499D01*
X147307483Y-63994091D01*
X147442331Y-63943796D01*
X147557546Y-63857546D01*
X147643796Y-63742331D01*
X147694091Y-63607483D01*
X147700500Y-63547873D01*
X147700499Y-61452128D01*
X147694091Y-61392517D01*
X147654127Y-61285369D01*
X147643797Y-61257671D01*
X147643793Y-61257664D01*
X147557547Y-61142455D01*
X147557544Y-61142452D01*
X147442335Y-61056206D01*
X147442328Y-61056202D01*
X147307482Y-61005908D01*
X147307483Y-61005908D01*
X147247883Y-60999501D01*
X147247881Y-60999500D01*
X147247873Y-60999500D01*
X147247864Y-60999500D01*
X145152129Y-60999500D01*
X145152123Y-60999501D01*
X145092516Y-61005908D01*
X144957671Y-61056202D01*
X144957664Y-61056206D01*
X144842455Y-61142452D01*
X144842452Y-61142455D01*
X144756206Y-61257664D01*
X144756202Y-61257671D01*
X144705908Y-61392517D01*
X144699501Y-61452116D01*
X144699501Y-61452123D01*
X144699500Y-61452135D01*
X133604602Y-61452135D01*
X133134087Y-60747961D01*
X133131189Y-60743411D01*
X133092258Y-60679255D01*
X132681325Y-60002058D01*
X132678624Y-59997379D01*
X132647377Y-59940424D01*
X132261523Y-59237104D01*
X132259028Y-59232310D01*
X132168735Y-59049215D01*
X131959561Y-58625053D01*
X131947566Y-58556222D01*
X131974687Y-58491831D01*
X132032316Y-58452325D01*
X132102154Y-58450246D01*
X132111037Y-58452929D01*
X132130383Y-58459570D01*
X132130386Y-58459571D01*
X132375665Y-58500500D01*
X132624335Y-58500500D01*
X132869614Y-58459571D01*
X133104810Y-58378828D01*
X133104817Y-58378824D01*
X133104820Y-58378823D01*
X133186370Y-58334690D01*
X133204970Y-58324623D01*
X133273298Y-58310028D01*
X133338670Y-58334690D01*
X133380332Y-58390781D01*
X133385054Y-58460490D01*
X133368982Y-58499650D01*
X133274211Y-58650476D01*
X133214631Y-58820745D01*
X133214630Y-58820750D01*
X133194435Y-58999996D01*
X133194435Y-59000003D01*
X133214630Y-59179249D01*
X133214631Y-59179254D01*
X133274211Y-59349523D01*
X133320431Y-59423081D01*
X133370184Y-59502262D01*
X133497738Y-59629816D01*
X133549853Y-59662562D01*
X133632721Y-59714632D01*
X133650478Y-59725789D01*
X133739554Y-59756958D01*
X133820745Y-59785368D01*
X133820750Y-59785369D01*
X133999996Y-59805565D01*
X134000000Y-59805565D01*
X134000004Y-59805565D01*
X134179249Y-59785369D01*
X134179252Y-59785368D01*
X134179255Y-59785368D01*
X134349522Y-59725789D01*
X134502262Y-59629816D01*
X134629816Y-59502262D01*
X134725789Y-59349522D01*
X134785368Y-59179255D01*
X134795161Y-59092330D01*
X134822226Y-59027920D01*
X134830700Y-59018534D01*
X134980520Y-58868716D01*
X135059577Y-58731784D01*
X135100501Y-58579057D01*
X135100501Y-58420942D01*
X135100501Y-58413347D01*
X135100500Y-58413329D01*
X135100500Y-57724500D01*
X135120185Y-57657461D01*
X135172989Y-57611706D01*
X135224500Y-57600500D01*
X137543884Y-57600500D01*
X137610923Y-57620185D01*
G37*
%TD.AperFunction*%
M02*
