%TF.GenerationSoftware,KiCad,Pcbnew,8.0.5*%
%TF.CreationDate,2024-10-15T22:02:10+02:00*%
%TF.ProjectId,_autosave-pcb,5f617574-6f73-4617-9665-2d7063622e6b,rev?*%
%TF.SameCoordinates,Original*%
%TF.FileFunction,Soldermask,Top*%
%TF.FilePolarity,Negative*%
%FSLAX46Y46*%
G04 Gerber Fmt 4.6, Leading zero omitted, Abs format (unit mm)*
G04 Created by KiCad (PCBNEW 8.0.5) date 2024-10-15 22:02:10*
%MOMM*%
%LPD*%
G01*
G04 APERTURE LIST*
G04 Aperture macros list*
%AMRoundRect*
0 Rectangle with rounded corners*
0 $1 Rounding radius*
0 $2 $3 $4 $5 $6 $7 $8 $9 X,Y pos of 4 corners*
0 Add a 4 corners polygon primitive as box body*
4,1,4,$2,$3,$4,$5,$6,$7,$8,$9,$2,$3,0*
0 Add four circle primitives for the rounded corners*
1,1,$1+$1,$2,$3*
1,1,$1+$1,$4,$5*
1,1,$1+$1,$6,$7*
1,1,$1+$1,$8,$9*
0 Add four rect primitives between the rounded corners*
20,1,$1+$1,$2,$3,$4,$5,0*
20,1,$1+$1,$4,$5,$6,$7,0*
20,1,$1+$1,$6,$7,$8,$9,0*
20,1,$1+$1,$8,$9,$2,$3,0*%
G04 Aperture macros list end*
%ADD10C,0.150000*%
%ADD11C,0.000000*%
%ADD12RoundRect,0.250001X-0.462499X-0.624999X0.462499X-0.624999X0.462499X0.624999X-0.462499X0.624999X0*%
%ADD13RoundRect,0.250000X0.400000X0.625000X-0.400000X0.625000X-0.400000X-0.625000X0.400000X-0.625000X0*%
%ADD14RoundRect,0.250000X-0.400000X-0.625000X0.400000X-0.625000X0.400000X0.625000X-0.400000X0.625000X0*%
%ADD15C,2.000000*%
%ADD16C,3.200000*%
%ADD17R,2.000000X2.000000*%
%ADD18O,2.500000X1.500000*%
%ADD19O,1.500000X2.500000*%
G04 APERTURE END LIST*
D10*
G36*
X141937784Y-32582222D02*
G01*
X135172335Y-32582222D01*
X135172335Y-30578004D01*
X135394557Y-30578004D01*
X135736497Y-30578004D01*
X135736497Y-32360000D01*
X136314864Y-32360000D01*
X136314864Y-30578004D01*
X136658270Y-30578004D01*
X136658270Y-30140321D01*
X136730077Y-30140321D01*
X136988486Y-32360000D01*
X137707048Y-32360000D01*
X137714836Y-32305123D01*
X137729876Y-32198771D01*
X137744202Y-32096952D01*
X137757815Y-31999667D01*
X137776896Y-31862240D01*
X137794371Y-31735014D01*
X137810241Y-31617990D01*
X137824505Y-31511166D01*
X137841026Y-31384602D01*
X137854692Y-31276174D01*
X137867760Y-31166140D01*
X137877257Y-31250259D01*
X137891853Y-31374062D01*
X137906869Y-31495013D01*
X137922307Y-31613114D01*
X137938165Y-31728365D01*
X137954444Y-31840764D01*
X137971144Y-31950313D01*
X137988264Y-32057011D01*
X138005805Y-32160858D01*
X138023767Y-32261854D01*
X138042149Y-32360000D01*
X138764620Y-32360000D01*
X139125611Y-32360000D01*
X139703978Y-32360000D01*
X139930635Y-32360000D01*
X140436218Y-32360000D01*
X140436218Y-30892588D01*
X140649198Y-32360000D01*
X141007746Y-32360000D01*
X141209979Y-30861325D01*
X141209979Y-32360000D01*
X141715562Y-32360000D01*
X141715562Y-30140321D01*
X140961340Y-30140321D01*
X140829449Y-31176887D01*
X140749826Y-30608778D01*
X140742899Y-30558428D01*
X140727004Y-30446118D01*
X140711483Y-30341055D01*
X140696336Y-30243238D01*
X140679484Y-30140321D01*
X139930635Y-30140321D01*
X139930635Y-32360000D01*
X139703978Y-32360000D01*
X139703978Y-30140321D01*
X139125611Y-30140321D01*
X139125611Y-32360000D01*
X138764620Y-32360000D01*
X139021563Y-30140321D01*
X138459805Y-30140321D01*
X138445954Y-30236585D01*
X138432610Y-30333402D01*
X138419774Y-30430773D01*
X138407445Y-30528697D01*
X138395624Y-30627175D01*
X138384311Y-30726206D01*
X138373505Y-30825790D01*
X138363207Y-30925928D01*
X138353416Y-31026619D01*
X138344133Y-31127863D01*
X138335357Y-31229661D01*
X138327089Y-31332012D01*
X138319329Y-31434916D01*
X138312076Y-31538374D01*
X138305331Y-31642385D01*
X138299093Y-31746950D01*
X138236078Y-30869630D01*
X138229820Y-30792249D01*
X138221004Y-30684127D01*
X138212875Y-30585545D01*
X138203106Y-30468942D01*
X138194557Y-30369298D01*
X138184024Y-30251632D01*
X138172575Y-30140321D01*
X137570761Y-30140321D01*
X137555198Y-30256777D01*
X137540383Y-30370573D01*
X137526316Y-30481709D01*
X137512997Y-30590185D01*
X137500426Y-30696002D01*
X137488604Y-30799158D01*
X137477529Y-30899654D01*
X137462319Y-31045412D01*
X137448792Y-31185184D01*
X137436948Y-31318971D01*
X137426787Y-31446774D01*
X137418309Y-31568591D01*
X137411514Y-31684424D01*
X137350942Y-30912128D01*
X137291835Y-30140321D01*
X136730077Y-30140321D01*
X136658270Y-30140321D01*
X135394557Y-30140321D01*
X135394557Y-30578004D01*
X135172335Y-30578004D01*
X135172335Y-29918099D01*
X141937784Y-29918099D01*
X141937784Y-32582222D01*
G37*
D11*
%TO.C,G\u002A\u002A\u002A*%
G36*
X149357678Y-40785780D02*
G01*
X149600767Y-41040589D01*
X149745130Y-41412801D01*
X149784614Y-41859489D01*
X149713066Y-42337723D01*
X149524331Y-42804574D01*
X149360305Y-43051235D01*
X149074049Y-43273479D01*
X148723268Y-43357206D01*
X148384106Y-43299817D01*
X148132705Y-43098712D01*
X148129130Y-43093261D01*
X147936163Y-42637970D01*
X147889879Y-42144567D01*
X147973102Y-41659254D01*
X148168657Y-41228234D01*
X148459368Y-40897710D01*
X148828061Y-40713885D01*
X149022017Y-40691304D01*
X149357678Y-40785780D01*
G37*
G36*
X152067246Y-41086202D02*
G01*
X152367434Y-41455334D01*
X152399749Y-41503387D01*
X152648922Y-41970654D01*
X152782473Y-42422065D01*
X152792882Y-42808179D01*
X152672630Y-43079555D01*
X152643605Y-43106691D01*
X152319114Y-43257264D01*
X151920088Y-43290990D01*
X151577391Y-43203319D01*
X151271008Y-42929523D01*
X151069824Y-42525410D01*
X150985256Y-42060633D01*
X151028722Y-41604845D01*
X151211639Y-41227700D01*
X151246931Y-41187362D01*
X151531704Y-40958990D01*
X151796906Y-40923012D01*
X152067246Y-41086202D01*
G37*
G36*
X147115670Y-42056332D02*
G01*
X147281353Y-42192635D01*
X147505895Y-42506853D01*
X147610948Y-42864842D01*
X147601942Y-43211899D01*
X147484304Y-43493317D01*
X147263463Y-43654391D01*
X147134447Y-43673043D01*
X146931372Y-43593078D01*
X146868092Y-43505985D01*
X146876877Y-43286705D01*
X146935899Y-43179980D01*
X147017160Y-42936526D01*
X146932434Y-42690772D01*
X146714886Y-42535929D01*
X146705867Y-42533456D01*
X146532603Y-42413326D01*
X146516263Y-42218965D01*
X146624377Y-41991158D01*
X146835903Y-41936544D01*
X147115670Y-42056332D01*
G37*
G36*
X150756194Y-42874024D02*
G01*
X150987683Y-43082064D01*
X151190962Y-43345682D01*
X151311068Y-43596874D01*
X151314512Y-43733664D01*
X151164372Y-43870135D01*
X150931945Y-43873461D01*
X150709776Y-43745473D01*
X150688121Y-43721282D01*
X150564334Y-43605548D01*
X150477163Y-43671844D01*
X150448242Y-43721282D01*
X150269209Y-43875379D01*
X150056709Y-43865623D01*
X149994492Y-43820289D01*
X149939346Y-43664799D01*
X149920869Y-43450884D01*
X150014916Y-43121620D01*
X150253145Y-42878265D01*
X150551458Y-42789565D01*
X150756194Y-42874024D01*
G37*
G36*
X151099119Y-39059566D02*
G01*
X151667028Y-39152455D01*
X151703459Y-39162948D01*
X152200357Y-39406480D01*
X152727048Y-39833634D01*
X153256878Y-40414498D01*
X153763193Y-41119160D01*
X154219340Y-41917706D01*
X154295329Y-42071739D01*
X154466634Y-42463978D01*
X154562938Y-42810025D01*
X154603542Y-43205039D01*
X154608906Y-43617826D01*
X154573646Y-44319289D01*
X154467425Y-44854821D01*
X154274796Y-45272270D01*
X153980312Y-45619483D01*
X153955239Y-45642618D01*
X153673233Y-45970614D01*
X153528195Y-46357900D01*
X153501734Y-46505757D01*
X153359828Y-47014617D01*
X153102104Y-47342767D01*
X152708204Y-47508673D01*
X152363470Y-47538261D01*
X152002225Y-47517552D01*
X151774010Y-47434368D01*
X151593157Y-47257123D01*
X151589958Y-47253067D01*
X151412906Y-46994712D01*
X151306193Y-46780622D01*
X151229390Y-46669368D01*
X151056075Y-46629933D01*
X150727759Y-46649686D01*
X150709134Y-46651685D01*
X150327363Y-46724444D01*
X150058290Y-46876114D01*
X149858083Y-47083929D01*
X149419935Y-47481996D01*
X148943018Y-47702486D01*
X148464991Y-47738722D01*
X148023513Y-47584028D01*
X147837873Y-47442085D01*
X147527587Y-47015585D01*
X147429877Y-46696056D01*
X147350810Y-46396891D01*
X147189212Y-46214515D01*
X146938940Y-46086709D01*
X146506167Y-45795002D01*
X146099333Y-45315348D01*
X145743720Y-44680668D01*
X145606532Y-44351645D01*
X145426726Y-43579715D01*
X145429263Y-43480996D01*
X146015856Y-43480996D01*
X146196235Y-44215321D01*
X146596880Y-44938433D01*
X146814422Y-45219130D01*
X147052636Y-45461238D01*
X147206970Y-45504254D01*
X147291224Y-45342220D01*
X147318797Y-45001382D01*
X147375296Y-44608775D01*
X147521593Y-44392173D01*
X147745403Y-44368344D01*
X147775094Y-44378544D01*
X147878321Y-44453057D01*
X147923593Y-44608960D01*
X147920190Y-44900553D01*
X147902329Y-45123115D01*
X147894284Y-45664206D01*
X147957018Y-46192803D01*
X148077358Y-46649167D01*
X148242129Y-46973560D01*
X148330021Y-47062606D01*
X148476047Y-47165635D01*
X148588023Y-47193035D01*
X148753195Y-47143747D01*
X148966690Y-47054890D01*
X149327876Y-46816683D01*
X149539753Y-46455074D01*
X149609549Y-45950246D01*
X149565468Y-45413082D01*
X149506541Y-44906473D01*
X149514935Y-44579973D01*
X149598009Y-44401114D01*
X149763122Y-44337431D01*
X149809702Y-44335652D01*
X149985111Y-44390092D01*
X150117487Y-44574080D01*
X150220989Y-44918614D01*
X150305112Y-45420248D01*
X150405613Y-45850391D01*
X150563251Y-46070537D01*
X150782451Y-46085174D01*
X150902184Y-46026017D01*
X151017696Y-45864999D01*
X151096168Y-45534257D01*
X151135652Y-45152572D01*
X151169782Y-44752134D01*
X151213282Y-44524016D01*
X151287134Y-44419973D01*
X151412324Y-44391761D01*
X151466956Y-44390869D01*
X151596325Y-44398905D01*
X151678010Y-44450952D01*
X151723957Y-44588917D01*
X151746110Y-44854707D01*
X151756416Y-45290229D01*
X151758279Y-45412891D01*
X151793688Y-46074221D01*
X151882762Y-46540108D01*
X152034031Y-46831319D01*
X152256020Y-46968619D01*
X152404312Y-46986087D01*
X152647100Y-46918985D01*
X152815134Y-46703617D01*
X152916962Y-46318888D01*
X152961134Y-45743703D01*
X152963782Y-45605652D01*
X152977588Y-45148489D01*
X153011108Y-44870408D01*
X153072715Y-44729912D01*
X153148862Y-44688492D01*
X153335364Y-44745239D01*
X153496583Y-44902184D01*
X153669849Y-45149556D01*
X153855573Y-44714995D01*
X154032864Y-44030380D01*
X154020038Y-43290289D01*
X153820403Y-42545880D01*
X153697952Y-42275856D01*
X153186743Y-41362847D01*
X152686469Y-40658337D01*
X152187847Y-40150886D01*
X151732677Y-39853134D01*
X151395069Y-39699861D01*
X151116027Y-39618189D01*
X150809242Y-39594606D01*
X150388401Y-39615597D01*
X150273764Y-39624706D01*
X149184570Y-39786410D01*
X148262701Y-40083813D01*
X147495665Y-40524359D01*
X146870971Y-41115490D01*
X146376127Y-41864647D01*
X146316491Y-41982583D01*
X146055891Y-42736426D01*
X146015856Y-43480996D01*
X145429263Y-43480996D01*
X145446934Y-42793537D01*
X145650093Y-42019636D01*
X146019143Y-41284540D01*
X146537023Y-40614772D01*
X147186672Y-40036860D01*
X147951030Y-39577329D01*
X148813036Y-39262704D01*
X148892313Y-39243002D01*
X149641899Y-39106828D01*
X150400789Y-39045020D01*
X151099119Y-39059566D01*
G37*
%TD*%
D12*
%TO.C,BL1*%
X136012500Y-60000000D03*
X138987500Y-60000000D03*
%TD*%
D13*
%TO.C,R5*%
X160550000Y-65500000D03*
X157450000Y-65500000D03*
%TD*%
D14*
%TO.C,R4*%
X160937500Y-62500000D03*
X164037500Y-62500000D03*
%TD*%
D12*
%TO.C,BR1*%
X161000000Y-60000000D03*
X163975000Y-60000000D03*
%TD*%
D14*
%TO.C,R1*%
X135987500Y-37500000D03*
X139087500Y-37500000D03*
%TD*%
D12*
%TO.C,TR1*%
X161012500Y-40000000D03*
X163987500Y-40000000D03*
%TD*%
D15*
%TO.C,SBR1*%
X161000000Y-52500000D03*
X167500000Y-52500000D03*
X161000000Y-57000000D03*
X167500000Y-57000000D03*
%TD*%
%TO.C,STL1*%
X132500000Y-43000000D03*
X139000000Y-43000000D03*
X132500000Y-47500000D03*
X139000000Y-47500000D03*
%TD*%
D14*
%TO.C,R3*%
X135900000Y-62500000D03*
X139000000Y-62500000D03*
%TD*%
D16*
%TO.C,keychain1*%
X133000000Y-33000000D03*
%TD*%
D15*
%TO.C,SBL1*%
X132500000Y-52500000D03*
X139000000Y-52500000D03*
X132500000Y-57000000D03*
X139000000Y-57000000D03*
%TD*%
%TO.C,STR1*%
X161000000Y-43000000D03*
X167500000Y-43000000D03*
X161000000Y-47500000D03*
X167500000Y-47500000D03*
%TD*%
D17*
%TO.C,BZ1*%
X146200000Y-62500000D03*
D15*
X153800000Y-62500000D03*
%TD*%
D12*
%TO.C,TL1*%
X136050000Y-40000000D03*
X139025000Y-40000000D03*
%TD*%
D18*
%TO.C,U1*%
X158120000Y-33840000D03*
X158120000Y-36380000D03*
X158120000Y-38920000D03*
X158120000Y-41460000D03*
X158120000Y-44000000D03*
X158120000Y-46540000D03*
X158120000Y-49080000D03*
X158120000Y-51620000D03*
X158120000Y-54160000D03*
D19*
X155080000Y-54660000D03*
X152540000Y-54660000D03*
X150000000Y-54660000D03*
X147460000Y-54660000D03*
X144920000Y-54660000D03*
D18*
X141880000Y-54160000D03*
X141880000Y-51620000D03*
X141880000Y-49080000D03*
X141880000Y-46540000D03*
X141880000Y-44000000D03*
X141880000Y-41460000D03*
X141880000Y-38920000D03*
X141880000Y-36380000D03*
X141880000Y-33840000D03*
%TD*%
D14*
%TO.C,R2*%
X160950000Y-37500000D03*
X164050000Y-37500000D03*
%TD*%
M02*
