%TF.GenerationSoftware,KiCad,Pcbnew,8.0.5*%
%TF.CreationDate,2024-10-15T22:02:10+02:00*%
%TF.ProjectId,_autosave-pcb,5f617574-6f73-4617-9665-2d7063622e6b,rev?*%
%TF.SameCoordinates,Original*%
%TF.FileFunction,Soldermask,Bot*%
%TF.FilePolarity,Negative*%
%FSLAX46Y46*%
G04 Gerber Fmt 4.6, Leading zero omitted, Abs format (unit mm)*
G04 Created by KiCad (PCBNEW 8.0.5) date 2024-10-15 22:02:10*
%MOMM*%
%LPD*%
G01*
G04 APERTURE LIST*
%ADD10C,0.150000*%
%ADD11C,0.200000*%
%ADD12C,2.000000*%
%ADD13C,3.200000*%
%ADD14R,2.000000X2.000000*%
%ADD15O,2.500000X1.500000*%
%ADD16O,1.500000X2.500000*%
G04 APERTURE END LIST*
D10*
G36*
X153927122Y-49655112D02*
G01*
X153835995Y-49655112D01*
X153768888Y-49653487D01*
X153711529Y-49645269D01*
X153683270Y-49604944D01*
X153707401Y-49558587D01*
X153773526Y-49550747D01*
X153835995Y-49549696D01*
X153927122Y-49549696D01*
X153927122Y-49655112D01*
G37*
G36*
X154426805Y-47671105D02*
G01*
X154470709Y-47679529D01*
X154496110Y-47721441D01*
X154472932Y-47763671D01*
X154407504Y-47773494D01*
X154372279Y-47774149D01*
X153822342Y-47774149D01*
X153755273Y-47772265D01*
X153707084Y-47764306D01*
X153683270Y-47722394D01*
X153707084Y-47679529D01*
X153771794Y-47669788D01*
X153822342Y-47668733D01*
X154360531Y-47668733D01*
X154426805Y-47671105D01*
G37*
G36*
X153927122Y-45019382D02*
G01*
X153835995Y-45019382D01*
X153768888Y-45017758D01*
X153711529Y-45009539D01*
X153683270Y-44969215D01*
X153707401Y-44922858D01*
X153773526Y-44915018D01*
X153835995Y-44913967D01*
X153927122Y-44913967D01*
X153927122Y-45019382D01*
G37*
G36*
X154412065Y-42569200D02*
G01*
X154468487Y-42579274D01*
X154496110Y-42626902D01*
X154474519Y-42671036D01*
X154411515Y-42680491D01*
X154360849Y-42681514D01*
X154110011Y-42681514D01*
X154152466Y-42630512D01*
X154202256Y-42588657D01*
X154219554Y-42580862D01*
X154285509Y-42569462D01*
X154346243Y-42567209D01*
X154412065Y-42569200D01*
G37*
G36*
X154426805Y-39392836D02*
G01*
X154470709Y-39401260D01*
X154496110Y-39443172D01*
X154472932Y-39485401D01*
X154407504Y-39495224D01*
X154372279Y-39495879D01*
X153822342Y-39495879D01*
X153755273Y-39493995D01*
X153707084Y-39486036D01*
X153683270Y-39444124D01*
X153707084Y-39401260D01*
X153771794Y-39391518D01*
X153822342Y-39390464D01*
X154360531Y-39390464D01*
X154426805Y-39392836D01*
G37*
G36*
X154843765Y-50161206D02*
G01*
X153071443Y-50161206D01*
X153071443Y-49588116D01*
X153480060Y-49588116D01*
X153480781Y-49604944D01*
X153482795Y-49651979D01*
X153492618Y-49718751D01*
X153512209Y-49785948D01*
X153537213Y-49838636D01*
X153576561Y-49894585D01*
X153623166Y-49939000D01*
X153682810Y-49974534D01*
X153688668Y-49977072D01*
X153755111Y-49998002D01*
X153819070Y-50009165D01*
X153882914Y-50014863D01*
X153954111Y-50016762D01*
X154110011Y-50016762D01*
X154110011Y-49549696D01*
X154368469Y-49549696D01*
X154435068Y-49552554D01*
X154472932Y-49561127D01*
X154496110Y-49605897D01*
X154465629Y-49660827D01*
X154400592Y-49673147D01*
X154346878Y-49674798D01*
X154191295Y-49674798D01*
X154191295Y-50016762D01*
X154277342Y-50016762D01*
X154345852Y-50015111D01*
X154411532Y-50008903D01*
X154443720Y-50002791D01*
X154503572Y-49979771D01*
X154559328Y-49944262D01*
X154567551Y-49938018D01*
X154615556Y-49892234D01*
X154652766Y-49837438D01*
X154666299Y-49809107D01*
X154686421Y-49744944D01*
X154696708Y-49676322D01*
X154699321Y-49613200D01*
X154696127Y-49544363D01*
X154686545Y-49480736D01*
X154668628Y-49416763D01*
X154666616Y-49411260D01*
X154638457Y-49351175D01*
X154600292Y-49298276D01*
X154576442Y-49275045D01*
X154524245Y-49238251D01*
X154463465Y-49211507D01*
X154450706Y-49207732D01*
X154384453Y-49195603D01*
X154319511Y-49190480D01*
X154250671Y-49188999D01*
X153907436Y-49188999D01*
X153843054Y-49191004D01*
X153777140Y-49198208D01*
X153712760Y-49212574D01*
X153664219Y-49230911D01*
X153607832Y-49266066D01*
X153561349Y-49313903D01*
X153527688Y-49368395D01*
X153502572Y-49430918D01*
X153486758Y-49499023D01*
X153480479Y-49565089D01*
X153480060Y-49588116D01*
X153071443Y-49588116D01*
X153071443Y-48835921D01*
X153480060Y-48835921D01*
X153486177Y-48900873D01*
X153508777Y-48964460D01*
X153523560Y-48987694D01*
X153569294Y-49033781D01*
X153628997Y-49062487D01*
X153633103Y-49063580D01*
X153701383Y-49074681D01*
X153765783Y-49079051D01*
X153834793Y-49080659D01*
X153853776Y-49080726D01*
X154679000Y-49080726D01*
X154679000Y-48720028D01*
X153859174Y-48720028D01*
X153792105Y-48719222D01*
X153726501Y-48714989D01*
X153710259Y-48711772D01*
X153683270Y-48667320D01*
X153714069Y-48619058D01*
X153781269Y-48611099D01*
X153846731Y-48609369D01*
X153878542Y-48609215D01*
X154679000Y-48609215D01*
X154679000Y-48248517D01*
X153500381Y-48248517D01*
X153500381Y-48615248D01*
X153607066Y-48609215D01*
X153554509Y-48649893D01*
X153513827Y-48701589D01*
X153511812Y-48705105D01*
X153487998Y-48766226D01*
X153480091Y-48831314D01*
X153480060Y-48835921D01*
X153071443Y-48835921D01*
X153071443Y-47709693D01*
X153480060Y-47709693D01*
X153480609Y-47722394D01*
X153482898Y-47775360D01*
X153492709Y-47841902D01*
X153511595Y-47907291D01*
X153515939Y-47918301D01*
X153545930Y-47977969D01*
X153585373Y-48030013D01*
X153609607Y-48052610D01*
X153664322Y-48090405D01*
X153724531Y-48116262D01*
X153728357Y-48117383D01*
X153794133Y-48129321D01*
X153862868Y-48134011D01*
X153914422Y-48134846D01*
X154202726Y-48134846D01*
X154268126Y-48134072D01*
X154332934Y-48131288D01*
X154399042Y-48124963D01*
X154435465Y-48118653D01*
X154498375Y-48097712D01*
X154553527Y-48065642D01*
X154573902Y-48050070D01*
X154620512Y-48002319D01*
X154656117Y-47944717D01*
X154668839Y-47914808D01*
X154687414Y-47849410D01*
X154696909Y-47783342D01*
X154699321Y-47724934D01*
X154697261Y-47660489D01*
X154690142Y-47595659D01*
X154676437Y-47532582D01*
X154673284Y-47522041D01*
X154647522Y-47460787D01*
X154610051Y-47408416D01*
X154594223Y-47393130D01*
X154539926Y-47355986D01*
X154480436Y-47331641D01*
X154466581Y-47327721D01*
X154399844Y-47315725D01*
X154335960Y-47310362D01*
X154269222Y-47308209D01*
X154241780Y-47308036D01*
X153940140Y-47308036D01*
X153871895Y-47309737D01*
X153802310Y-47315849D01*
X153734747Y-47328039D01*
X153684223Y-47343597D01*
X153625015Y-47374980D01*
X153574436Y-47419795D01*
X153535943Y-47472191D01*
X153506474Y-47535359D01*
X153489283Y-47600800D01*
X153481425Y-47665802D01*
X153480060Y-47709693D01*
X153071443Y-47709693D01*
X153071443Y-47192460D01*
X153236208Y-47192460D01*
X154679000Y-47192460D01*
X154679000Y-46820966D01*
X153236208Y-46820966D01*
X153236208Y-47192460D01*
X153071443Y-47192460D01*
X153071443Y-46252296D01*
X153215887Y-46252296D01*
X153218926Y-46322167D01*
X153228042Y-46386477D01*
X153245902Y-46453165D01*
X153271700Y-46512590D01*
X153279390Y-46526312D01*
X153317419Y-46581185D01*
X153365505Y-46628428D01*
X153425491Y-46663706D01*
X153437196Y-46668241D01*
X153498554Y-46684664D01*
X153567053Y-46694751D01*
X153637766Y-46700092D01*
X153706383Y-46702083D01*
X153730898Y-46702216D01*
X153866159Y-46702216D01*
X153866159Y-46326277D01*
X153620085Y-46326277D01*
X153556013Y-46324851D01*
X153492117Y-46316368D01*
X153486411Y-46314211D01*
X153459739Y-46261186D01*
X153488204Y-46203847D01*
X153492126Y-46202128D01*
X153557002Y-46191789D01*
X153625198Y-46189757D01*
X153631833Y-46189745D01*
X154289408Y-46189745D01*
X154356711Y-46191487D01*
X154419825Y-46200629D01*
X154424034Y-46202128D01*
X154455468Y-46258329D01*
X154423399Y-46313259D01*
X154359437Y-46323785D01*
X154293247Y-46326163D01*
X154271627Y-46326277D01*
X154089690Y-46326277D01*
X154089690Y-46702216D01*
X154145891Y-46702216D01*
X154212856Y-46701440D01*
X154284803Y-46698464D01*
X154357144Y-46692169D01*
X154424527Y-46681255D01*
X154464359Y-46670464D01*
X154526054Y-46639555D01*
X154577452Y-46595698D01*
X154619892Y-46543396D01*
X154628832Y-46530122D01*
X154659671Y-46472810D01*
X154681698Y-46409149D01*
X154694915Y-46339136D01*
X154699252Y-46272666D01*
X154699321Y-46262774D01*
X154696510Y-46193304D01*
X154688077Y-46129365D01*
X154671556Y-46063064D01*
X154647693Y-46003986D01*
X154640580Y-45990345D01*
X154603794Y-45935858D01*
X154554554Y-45888689D01*
X154496508Y-45855598D01*
X154477377Y-45848416D01*
X154410457Y-45831686D01*
X154346878Y-45822459D01*
X154273211Y-45816544D01*
X154202038Y-45814111D01*
X154163672Y-45813807D01*
X153747726Y-45813807D01*
X153684169Y-45814308D01*
X153620537Y-45816109D01*
X153554503Y-45820202D01*
X153517210Y-45824285D01*
X153455516Y-45840026D01*
X153395813Y-45869706D01*
X153368930Y-45888105D01*
X153319829Y-45933828D01*
X153282272Y-45985781D01*
X153256847Y-46035433D01*
X153235247Y-46097131D01*
X153221647Y-46164349D01*
X153216247Y-46229564D01*
X153215887Y-46252296D01*
X153071443Y-46252296D01*
X153071443Y-44952387D01*
X153480060Y-44952387D01*
X153480781Y-44969215D01*
X153482795Y-45016250D01*
X153492618Y-45083022D01*
X153512209Y-45150219D01*
X153537213Y-45202906D01*
X153576561Y-45258856D01*
X153623166Y-45303271D01*
X153682810Y-45338805D01*
X153688668Y-45341343D01*
X153755111Y-45362273D01*
X153819070Y-45373436D01*
X153882914Y-45379134D01*
X153954111Y-45381033D01*
X154110011Y-45381033D01*
X154110011Y-44913967D01*
X154368469Y-44913967D01*
X154435068Y-44916825D01*
X154472932Y-44925398D01*
X154496110Y-44970167D01*
X154465629Y-45025098D01*
X154400592Y-45037417D01*
X154346878Y-45039068D01*
X154191295Y-45039068D01*
X154191295Y-45381033D01*
X154277342Y-45381033D01*
X154345852Y-45379382D01*
X154411532Y-45373174D01*
X154443720Y-45367062D01*
X154503572Y-45344042D01*
X154559328Y-45308532D01*
X154567551Y-45302289D01*
X154615556Y-45256505D01*
X154652766Y-45201708D01*
X154666299Y-45173377D01*
X154686421Y-45109214D01*
X154696708Y-45040592D01*
X154699321Y-44977470D01*
X154696127Y-44908634D01*
X154686545Y-44845007D01*
X154668628Y-44781033D01*
X154666616Y-44775530D01*
X154638457Y-44715445D01*
X154600292Y-44662547D01*
X154576442Y-44639316D01*
X154524245Y-44602521D01*
X154463465Y-44575778D01*
X154450706Y-44572003D01*
X154384453Y-44559874D01*
X154319511Y-44554751D01*
X154250671Y-44553269D01*
X153907436Y-44553269D01*
X153843054Y-44555275D01*
X153777140Y-44562478D01*
X153712760Y-44576845D01*
X153664219Y-44595181D01*
X153607832Y-44630337D01*
X153561349Y-44678173D01*
X153527688Y-44732666D01*
X153502572Y-44795189D01*
X153486758Y-44863294D01*
X153480479Y-44929360D01*
X153480060Y-44952387D01*
X153071443Y-44952387D01*
X153071443Y-43743922D01*
X153480060Y-43743922D01*
X153488474Y-43812446D01*
X153513717Y-43873230D01*
X153555788Y-43926275D01*
X153606404Y-43966341D01*
X153614687Y-43971581D01*
X153562230Y-44013775D01*
X153520323Y-44063840D01*
X153513717Y-44074456D01*
X153488474Y-44134704D01*
X153480060Y-44201144D01*
X153486311Y-44265739D01*
X153509406Y-44329813D01*
X153524512Y-44353552D01*
X153570354Y-44400551D01*
X153629094Y-44429614D01*
X153633103Y-44430708D01*
X153698678Y-44441809D01*
X153767093Y-44446498D01*
X153833077Y-44447837D01*
X153842028Y-44447854D01*
X154679000Y-44447854D01*
X154679000Y-44097634D01*
X153907119Y-44097634D01*
X153838595Y-44096979D01*
X153773200Y-44094319D01*
X153719467Y-44087156D01*
X153683270Y-44039529D01*
X153719150Y-43989996D01*
X153783923Y-43981662D01*
X153854074Y-43979274D01*
X153907119Y-43978883D01*
X154679000Y-43978883D01*
X154679000Y-43628664D01*
X153926805Y-43628664D01*
X153857350Y-43628253D01*
X153787654Y-43626520D01*
X153723068Y-43621129D01*
X153718197Y-43620091D01*
X153683270Y-43573416D01*
X153701686Y-43532139D01*
X153746138Y-43513405D01*
X153810439Y-43511973D01*
X153858221Y-43511818D01*
X154679000Y-43511818D01*
X154679000Y-43161915D01*
X153500381Y-43161915D01*
X153500381Y-43518168D01*
X153614687Y-43511818D01*
X153562230Y-43551590D01*
X153520323Y-43601083D01*
X153513717Y-43611835D01*
X153488474Y-43673910D01*
X153480093Y-43739313D01*
X153480060Y-43743922D01*
X153071443Y-43743922D01*
X153071443Y-42635792D01*
X153480060Y-42635792D01*
X153482326Y-42701313D01*
X153490698Y-42769713D01*
X153507819Y-42837279D01*
X153536711Y-42899770D01*
X153544516Y-42911713D01*
X153587486Y-42962602D01*
X153641414Y-43001820D01*
X153702321Y-43023479D01*
X153770706Y-43032534D01*
X153845600Y-43037529D01*
X153910723Y-43039998D01*
X153985537Y-43041553D01*
X154052364Y-43042139D01*
X154088103Y-43042212D01*
X154679000Y-43042212D01*
X154679000Y-42691357D01*
X154571679Y-42691357D01*
X154624534Y-42656144D01*
X154667569Y-42605945D01*
X154692344Y-42544883D01*
X154699321Y-42481479D01*
X154693017Y-42418267D01*
X154671764Y-42353501D01*
X154645978Y-42307798D01*
X154594116Y-42262786D01*
X154529415Y-42239855D01*
X154465235Y-42230667D01*
X154411969Y-42228737D01*
X154313856Y-42228737D01*
X154245396Y-42232052D01*
X154180004Y-42245109D01*
X154131602Y-42270649D01*
X154089511Y-42325244D01*
X154057301Y-42387108D01*
X154030513Y-42448837D01*
X154018567Y-42478939D01*
X153993871Y-42539694D01*
X153965980Y-42602641D01*
X153934932Y-42658365D01*
X153924265Y-42668814D01*
X153861099Y-42680720D01*
X153828057Y-42681514D01*
X153761188Y-42678840D01*
X153710577Y-42667544D01*
X153683270Y-42621821D01*
X153706449Y-42576099D01*
X153772987Y-42568077D01*
X153826152Y-42567209D01*
X153947443Y-42567209D01*
X153947443Y-42228737D01*
X153869969Y-42228737D01*
X153799625Y-42231248D01*
X153732835Y-42239931D01*
X153668486Y-42258535D01*
X153663902Y-42260488D01*
X153607654Y-42296819D01*
X153564480Y-42344015D01*
X153535625Y-42387812D01*
X153508765Y-42446067D01*
X153490696Y-42513314D01*
X153482014Y-42580637D01*
X153480060Y-42635792D01*
X153071443Y-42635792D01*
X153071443Y-41665782D01*
X153215887Y-41665782D01*
X153219063Y-41735327D01*
X153228589Y-41799494D01*
X153247253Y-41866242D01*
X153274212Y-41925965D01*
X153282248Y-41939798D01*
X153321381Y-41995056D01*
X153369517Y-42042373D01*
X153428125Y-42077303D01*
X153439418Y-42081727D01*
X153504236Y-42099141D01*
X153567700Y-42108428D01*
X153631695Y-42113169D01*
X153703591Y-42114749D01*
X153764554Y-42114749D01*
X153764554Y-41738810D01*
X153638818Y-41738810D01*
X153573113Y-41737756D01*
X153507230Y-41732221D01*
X153489903Y-41728015D01*
X153459739Y-41677212D01*
X153486093Y-41629902D01*
X153550886Y-41619260D01*
X153620720Y-41617519D01*
X154299886Y-41617519D01*
X154366538Y-41619563D01*
X154425304Y-41629902D01*
X154455468Y-41680070D01*
X154422447Y-41735635D01*
X154356339Y-41748460D01*
X154293218Y-41750558D01*
X154130332Y-41750558D01*
X154130332Y-41674672D01*
X153906801Y-41674672D01*
X153906801Y-42114749D01*
X154679000Y-42114749D01*
X154679000Y-41878200D01*
X154575489Y-41843273D01*
X154629856Y-41802859D01*
X154669238Y-41750062D01*
X154671062Y-41746430D01*
X154692256Y-41682769D01*
X154699210Y-41618469D01*
X154699321Y-41608629D01*
X154693993Y-41544966D01*
X154676028Y-41478682D01*
X154654233Y-41431137D01*
X154617188Y-41374803D01*
X154570304Y-41326371D01*
X154542150Y-41305719D01*
X154482313Y-41274350D01*
X154420046Y-41255259D01*
X154401808Y-41252059D01*
X154336291Y-41245674D01*
X154266003Y-41242604D01*
X154199504Y-41241621D01*
X154181452Y-41241581D01*
X153758521Y-41241581D01*
X153685901Y-41242362D01*
X153621161Y-41244706D01*
X153555592Y-41249416D01*
X153487051Y-41258597D01*
X153462279Y-41263807D01*
X153400595Y-41289135D01*
X153347709Y-41329222D01*
X153302709Y-41379191D01*
X153293043Y-41392083D01*
X153259288Y-41448839D01*
X153235176Y-41513374D01*
X153221990Y-41576223D01*
X153216189Y-41645029D01*
X153215887Y-41665782D01*
X153071443Y-41665782D01*
X153071443Y-40557652D01*
X153480060Y-40557652D01*
X153486177Y-40622604D01*
X153508777Y-40686191D01*
X153523560Y-40709424D01*
X153569294Y-40755512D01*
X153628997Y-40784217D01*
X153633103Y-40785310D01*
X153701383Y-40796412D01*
X153765783Y-40800782D01*
X153834793Y-40802389D01*
X153853776Y-40802456D01*
X154679000Y-40802456D01*
X154679000Y-40441758D01*
X153859174Y-40441758D01*
X153792105Y-40440952D01*
X153726501Y-40436720D01*
X153710259Y-40433503D01*
X153683270Y-40389051D01*
X153714069Y-40340788D01*
X153781269Y-40332830D01*
X153846731Y-40331099D01*
X153878542Y-40330945D01*
X154679000Y-40330945D01*
X154679000Y-39970248D01*
X153500381Y-39970248D01*
X153500381Y-40336978D01*
X153607066Y-40330945D01*
X153554509Y-40371624D01*
X153513827Y-40423320D01*
X153511812Y-40426835D01*
X153487998Y-40487957D01*
X153480091Y-40553045D01*
X153480060Y-40557652D01*
X153071443Y-40557652D01*
X153071443Y-39431424D01*
X153480060Y-39431424D01*
X153480609Y-39444124D01*
X153482898Y-39497091D01*
X153492709Y-39563633D01*
X153511595Y-39629021D01*
X153515939Y-39640031D01*
X153545930Y-39699699D01*
X153585373Y-39751743D01*
X153609607Y-39774340D01*
X153664322Y-39812135D01*
X153724531Y-39837993D01*
X153728357Y-39839114D01*
X153794133Y-39851052D01*
X153862868Y-39855741D01*
X153914422Y-39856577D01*
X154202726Y-39856577D01*
X154268126Y-39855802D01*
X154332934Y-39853019D01*
X154399042Y-39846693D01*
X154435465Y-39840384D01*
X154498375Y-39819443D01*
X154553527Y-39787372D01*
X154573902Y-39771800D01*
X154620512Y-39724050D01*
X154656117Y-39666447D01*
X154668839Y-39636539D01*
X154687414Y-39571140D01*
X154696909Y-39505073D01*
X154699321Y-39446664D01*
X154697261Y-39382219D01*
X154690142Y-39317389D01*
X154676437Y-39254313D01*
X154673284Y-39243772D01*
X154647522Y-39182517D01*
X154610051Y-39130147D01*
X154594223Y-39114860D01*
X154539926Y-39077717D01*
X154480436Y-39053372D01*
X154466581Y-39049452D01*
X154399844Y-39037456D01*
X154335960Y-39032092D01*
X154269222Y-39029939D01*
X154241780Y-39029766D01*
X153940140Y-39029766D01*
X153871895Y-39031468D01*
X153802310Y-39037580D01*
X153734747Y-39049770D01*
X153684223Y-39065328D01*
X153625015Y-39096711D01*
X153574436Y-39141525D01*
X153535943Y-39193922D01*
X153506474Y-39257090D01*
X153489283Y-39322531D01*
X153481425Y-39387533D01*
X153480060Y-39431424D01*
X153071443Y-39431424D01*
X153071443Y-38220419D01*
X153480060Y-38220419D01*
X153488474Y-38288942D01*
X153513717Y-38349727D01*
X153555788Y-38402772D01*
X153606404Y-38442837D01*
X153614687Y-38448077D01*
X153562230Y-38490272D01*
X153520323Y-38540337D01*
X153513717Y-38550952D01*
X153488474Y-38611201D01*
X153480060Y-38677641D01*
X153486311Y-38742236D01*
X153509406Y-38806310D01*
X153524512Y-38830049D01*
X153570354Y-38877048D01*
X153629094Y-38906111D01*
X153633103Y-38907205D01*
X153698678Y-38918306D01*
X153767093Y-38922995D01*
X153833077Y-38924334D01*
X153842028Y-38924351D01*
X154679000Y-38924351D01*
X154679000Y-38574131D01*
X153907119Y-38574131D01*
X153838595Y-38573476D01*
X153773200Y-38570816D01*
X153719467Y-38563653D01*
X153683270Y-38516026D01*
X153719150Y-38466493D01*
X153783923Y-38458159D01*
X153854074Y-38455771D01*
X153907119Y-38455380D01*
X154679000Y-38455380D01*
X154679000Y-38105160D01*
X153926805Y-38105160D01*
X153857350Y-38104750D01*
X153787654Y-38103017D01*
X153723068Y-38097626D01*
X153718197Y-38096588D01*
X153683270Y-38049913D01*
X153701686Y-38008636D01*
X153746138Y-37989902D01*
X153810439Y-37988470D01*
X153858221Y-37988315D01*
X154679000Y-37988315D01*
X154679000Y-37638412D01*
X153500381Y-37638412D01*
X153500381Y-37994665D01*
X153614687Y-37988315D01*
X153562230Y-38028087D01*
X153520323Y-38077580D01*
X153513717Y-38088332D01*
X153488474Y-38150406D01*
X153480093Y-38215810D01*
X153480060Y-38220419D01*
X153071443Y-38220419D01*
X153071443Y-37512041D01*
X153236208Y-37512041D01*
X153419097Y-37512041D01*
X153500381Y-37512041D01*
X154679000Y-37512041D01*
X154679000Y-37140548D01*
X153500381Y-37140548D01*
X153500381Y-37512041D01*
X153419097Y-37512041D01*
X153419097Y-37140548D01*
X153236208Y-37140548D01*
X153236208Y-37512041D01*
X153071443Y-37512041D01*
X153071443Y-36586800D01*
X153215887Y-36586800D01*
X153218844Y-36657289D01*
X153227715Y-36722380D01*
X153244763Y-36789155D01*
X153263197Y-36836368D01*
X153295153Y-36894041D01*
X153339804Y-36945241D01*
X153382265Y-36972899D01*
X153443455Y-36992061D01*
X153511157Y-37001823D01*
X153574788Y-37005734D01*
X153626117Y-37006556D01*
X153683270Y-37006556D01*
X153683270Y-36657289D01*
X153575950Y-36657289D01*
X153511656Y-36653525D01*
X153480378Y-36643953D01*
X153459739Y-36599183D01*
X153485775Y-36548063D01*
X153548390Y-36531026D01*
X153564202Y-36530600D01*
X153629481Y-36536829D01*
X153665807Y-36550286D01*
X153713468Y-36596822D01*
X153750722Y-36651244D01*
X153754076Y-36656654D01*
X153792009Y-36716461D01*
X153828018Y-36770463D01*
X153870321Y-36829804D01*
X153909617Y-36880074D01*
X153952801Y-36928427D01*
X154003644Y-36972582D01*
X154065448Y-37004047D01*
X154135694Y-37023370D01*
X154208977Y-37033604D01*
X154280571Y-37037418D01*
X154306236Y-37037673D01*
X154377141Y-37035410D01*
X154445002Y-37027457D01*
X154510820Y-37009959D01*
X154530085Y-37001476D01*
X154584615Y-36960957D01*
X154624863Y-36909317D01*
X154650741Y-36861769D01*
X154674224Y-36800857D01*
X154690022Y-36734570D01*
X154697613Y-36671137D01*
X154699321Y-36620775D01*
X154696586Y-36556779D01*
X154686763Y-36488850D01*
X154669795Y-36426478D01*
X154642168Y-36362952D01*
X154607558Y-36308768D01*
X154563329Y-36262232D01*
X154507658Y-36227660D01*
X154496745Y-36223245D01*
X154434123Y-36205831D01*
X154365355Y-36195673D01*
X154294361Y-36191029D01*
X154245273Y-36190223D01*
X154150653Y-36190223D01*
X154150653Y-36539491D01*
X154327192Y-36539491D01*
X154390926Y-36542700D01*
X154432290Y-36554096D01*
X154455468Y-36606486D01*
X154426257Y-36662052D01*
X154363064Y-36679586D01*
X154339258Y-36680467D01*
X154274774Y-36677705D01*
X154210440Y-36665426D01*
X154173197Y-36645541D01*
X154129544Y-36594429D01*
X154091468Y-36540455D01*
X154056436Y-36487050D01*
X154045556Y-36469955D01*
X154008815Y-36413083D01*
X153972445Y-36359174D01*
X153932221Y-36304363D01*
X153915057Y-36283890D01*
X153865921Y-36242375D01*
X153805582Y-36210520D01*
X153801069Y-36208639D01*
X153735283Y-36189315D01*
X153669141Y-36180658D01*
X153615004Y-36178793D01*
X153547812Y-36180813D01*
X153481327Y-36188072D01*
X153413681Y-36204568D01*
X153376550Y-36221022D01*
X153324517Y-36260255D01*
X153281772Y-36314134D01*
X153258434Y-36358189D01*
X153235997Y-36421171D01*
X153222909Y-36484430D01*
X153216552Y-36553918D01*
X153215887Y-36586800D01*
X153071443Y-36586800D01*
X153071443Y-36034349D01*
X154843765Y-36034349D01*
X154843765Y-50161206D01*
G37*
D11*
G36*
X145435928Y-49682153D02*
G01*
X145476099Y-49688067D01*
X145493684Y-49715667D01*
X145475610Y-49743022D01*
X145424955Y-49749053D01*
X145377180Y-49749861D01*
X144991032Y-49749861D01*
X144939728Y-49748412D01*
X144902616Y-49742289D01*
X144884054Y-49713713D01*
X144899930Y-49687335D01*
X144949812Y-49681605D01*
X144991032Y-49680984D01*
X145386217Y-49680984D01*
X145435928Y-49682153D01*
G37*
G36*
X145329769Y-46676078D02*
G01*
X145353733Y-46680461D01*
X145368632Y-46705618D01*
X145349825Y-46734683D01*
X145300528Y-46740929D01*
X145255059Y-46741766D01*
X144972958Y-46741766D01*
X144923682Y-46740301D01*
X144897976Y-46735904D01*
X144884054Y-46710503D01*
X144900662Y-46682659D01*
X144950465Y-46674752D01*
X144972958Y-46674355D01*
X145278995Y-46674355D01*
X145329769Y-46676078D01*
G37*
G36*
X145249987Y-45637561D02*
G01*
X145295294Y-45655994D01*
X145297801Y-45657572D01*
X145330838Y-45693709D01*
X145337369Y-45724983D01*
X145325061Y-45773164D01*
X145305861Y-45798500D01*
X145264782Y-45825962D01*
X145218896Y-45844662D01*
X145172260Y-45859072D01*
X145121656Y-45871575D01*
X145072182Y-45880505D01*
X145017873Y-45886281D01*
X144976622Y-45887649D01*
X144925881Y-45881604D01*
X144886496Y-45863469D01*
X144856774Y-45824580D01*
X144852791Y-45798500D01*
X144865692Y-45748639D01*
X144899809Y-45710324D01*
X144942456Y-45684480D01*
X144961967Y-45675890D01*
X145010525Y-45658760D01*
X145060883Y-45645837D01*
X145113040Y-45637121D01*
X145166998Y-45632613D01*
X145198639Y-45631926D01*
X145249987Y-45637561D01*
G37*
G36*
X145056001Y-44940231D02*
G01*
X144993719Y-44940231D01*
X144943413Y-44939142D01*
X144902372Y-44933636D01*
X144884054Y-44909456D01*
X144899441Y-44880391D01*
X144950509Y-44875322D01*
X144993719Y-44874774D01*
X145056001Y-44874774D01*
X145056001Y-44940231D01*
G37*
G36*
X146923579Y-43743684D02*
G01*
X146458053Y-43751500D01*
X146923579Y-43639148D01*
X146923579Y-43743684D01*
G37*
G36*
X145435928Y-43656194D02*
G01*
X145476099Y-43662108D01*
X145493684Y-43689707D01*
X145475610Y-43717063D01*
X145424955Y-43723093D01*
X145377180Y-43723901D01*
X144991032Y-43723901D01*
X144939728Y-43722452D01*
X144902616Y-43716330D01*
X144884054Y-43687753D01*
X144899930Y-43661375D01*
X144949812Y-43655645D01*
X144991032Y-43655025D01*
X145386217Y-43655025D01*
X145435928Y-43656194D01*
G37*
G36*
X145446438Y-42933080D02*
G01*
X145477320Y-42938416D01*
X145493684Y-42964306D01*
X145478785Y-42990440D01*
X145429418Y-42996719D01*
X145406245Y-42997035D01*
X144983217Y-42997035D01*
X144933235Y-42995819D01*
X144899197Y-42990684D01*
X144884054Y-42965039D01*
X144899441Y-42938416D01*
X144948842Y-42932119D01*
X144983217Y-42931578D01*
X145397208Y-42931578D01*
X145446438Y-42933080D01*
G37*
G36*
X145056001Y-41898919D02*
G01*
X144993719Y-41898919D01*
X144943413Y-41897830D01*
X144902372Y-41892324D01*
X144884054Y-41868144D01*
X144899441Y-41839079D01*
X144950509Y-41834010D01*
X144993719Y-41833462D01*
X145056001Y-41833462D01*
X145056001Y-41898919D01*
G37*
G36*
X147094993Y-41771698D02*
G01*
X147145179Y-41775705D01*
X147156587Y-41778750D01*
X147173684Y-41812700D01*
X147153168Y-41846406D01*
X147103365Y-41853752D01*
X147050586Y-41854954D01*
X146488827Y-41854954D01*
X146435902Y-41854088D01*
X146386352Y-41849344D01*
X146380383Y-41847627D01*
X146360844Y-41813921D01*
X146381849Y-41779483D01*
X146433483Y-41772137D01*
X146483517Y-41770943D01*
X146488827Y-41770935D01*
X147042037Y-41770935D01*
X147094993Y-41771698D01*
G37*
G36*
X145435259Y-39950418D02*
G01*
X145475610Y-39956944D01*
X145493684Y-39987230D01*
X145480251Y-40014829D01*
X145428548Y-40021012D01*
X145397452Y-40021424D01*
X145220132Y-40021424D01*
X145253184Y-39983777D01*
X145291695Y-39959142D01*
X145340571Y-39950781D01*
X145386217Y-39949128D01*
X145435259Y-39950418D01*
G37*
G36*
X145435259Y-37821597D02*
G01*
X145475610Y-37828123D01*
X145493684Y-37858409D01*
X145480251Y-37886009D01*
X145428548Y-37892191D01*
X145397452Y-37892603D01*
X145220132Y-37892603D01*
X145253184Y-37854957D01*
X145291695Y-37830321D01*
X145340571Y-37821960D01*
X145386217Y-37820307D01*
X145435259Y-37821597D01*
G37*
G36*
X145056001Y-36765911D02*
G01*
X144993719Y-36765911D01*
X144943413Y-36764823D01*
X144902372Y-36759317D01*
X144884054Y-36735137D01*
X144899441Y-36706072D01*
X144950509Y-36701003D01*
X144993719Y-36700454D01*
X145056001Y-36700454D01*
X145056001Y-36765911D01*
G37*
G36*
X145435259Y-35975121D02*
G01*
X145475610Y-35981647D01*
X145493684Y-36011933D01*
X145480251Y-36039533D01*
X145428548Y-36045715D01*
X145397452Y-36046127D01*
X145220132Y-36046127D01*
X145253184Y-36008481D01*
X145291695Y-35983846D01*
X145340571Y-35975484D01*
X145386217Y-35973832D01*
X145435259Y-35975121D01*
G37*
G36*
X145329769Y-35270914D02*
G01*
X145353733Y-35275297D01*
X145368632Y-35300454D01*
X145349825Y-35329519D01*
X145300528Y-35335765D01*
X145255059Y-35336602D01*
X144972958Y-35336602D01*
X144923682Y-35335137D01*
X144897976Y-35330740D01*
X144884054Y-35305339D01*
X144900662Y-35277495D01*
X144950465Y-35269588D01*
X144972958Y-35269191D01*
X145278995Y-35269191D01*
X145329769Y-35270914D01*
G37*
G36*
X147456742Y-50154063D02*
G01*
X144397786Y-50154063D01*
X144397786Y-49680984D01*
X144524528Y-49680984D01*
X144779030Y-49680984D01*
X144751940Y-49713713D01*
X144747579Y-49718982D01*
X144732868Y-49746441D01*
X144716669Y-49795152D01*
X144712107Y-49841452D01*
X144716186Y-49892958D01*
X144729527Y-49940799D01*
X144730669Y-49943545D01*
X144756223Y-49986238D01*
X144782937Y-50010468D01*
X144826440Y-50032928D01*
X144848639Y-50038312D01*
X144897670Y-50041792D01*
X144951428Y-50042839D01*
X144981263Y-50042952D01*
X145389148Y-50042952D01*
X145441692Y-50041851D01*
X145490875Y-50038044D01*
X145540334Y-50029030D01*
X145584835Y-50007660D01*
X145621139Y-49972705D01*
X145628262Y-49963329D01*
X145652457Y-49918353D01*
X145664317Y-49867169D01*
X145665631Y-49841452D01*
X145660075Y-49792420D01*
X145643405Y-49746930D01*
X145616773Y-49705372D01*
X145588695Y-49676832D01*
X145650000Y-49661445D01*
X145650000Y-49387893D01*
X144524528Y-49387893D01*
X144524528Y-49680984D01*
X144397786Y-49680984D01*
X144397786Y-48946058D01*
X144727739Y-48946058D01*
X145355198Y-48946058D01*
X145407399Y-48946483D01*
X145458037Y-48948597D01*
X145477076Y-48951431D01*
X145493684Y-48980252D01*
X145476587Y-49010049D01*
X145427480Y-49013999D01*
X145374620Y-49014858D01*
X145348360Y-49014934D01*
X144727739Y-49014934D01*
X144727739Y-49308026D01*
X145650000Y-49308026D01*
X145650000Y-49009561D01*
X145595533Y-49012980D01*
X145629514Y-48975519D01*
X145641451Y-48955339D01*
X145659586Y-48908139D01*
X145665607Y-48858011D01*
X145665631Y-48854467D01*
X145661882Y-48805583D01*
X145648240Y-48757895D01*
X145642916Y-48746756D01*
X145612374Y-48705505D01*
X145582100Y-48683252D01*
X145536283Y-48664400D01*
X145503942Y-48657851D01*
X145453954Y-48654512D01*
X145400215Y-48653272D01*
X145346406Y-48652966D01*
X144727739Y-48652966D01*
X144727739Y-48946058D01*
X144397786Y-48946058D01*
X144397786Y-48217481D01*
X144524528Y-48217481D01*
X144769260Y-48217481D01*
X144741008Y-48258957D01*
X144729692Y-48283915D01*
X144715971Y-48331243D01*
X144712107Y-48375751D01*
X144716667Y-48424872D01*
X144732043Y-48472533D01*
X144750697Y-48504222D01*
X144783788Y-48540789D01*
X144826779Y-48565852D01*
X144839113Y-48569435D01*
X144887576Y-48576728D01*
X144938485Y-48579989D01*
X144994214Y-48581298D01*
X145017655Y-48581403D01*
X145650000Y-48581403D01*
X145650000Y-48288312D01*
X145001046Y-48288312D01*
X144950557Y-48287350D01*
X144903349Y-48281473D01*
X144884054Y-48252896D01*
X144904326Y-48225053D01*
X144954491Y-48218221D01*
X144992254Y-48217481D01*
X145650000Y-48217481D01*
X145650000Y-47924390D01*
X144524528Y-47924390D01*
X144524528Y-48217481D01*
X144397786Y-48217481D01*
X144397786Y-47512841D01*
X144602686Y-47512841D01*
X144602686Y-47806665D01*
X144743370Y-47806665D01*
X144743370Y-47881403D01*
X144899685Y-47881403D01*
X144899685Y-47806665D01*
X145388904Y-47806665D01*
X145440334Y-47807502D01*
X145485624Y-47813748D01*
X145493298Y-47864618D01*
X145493684Y-47893127D01*
X145650000Y-47893127D01*
X145650000Y-47773448D01*
X145649362Y-47723961D01*
X145646851Y-47674968D01*
X145641939Y-47635939D01*
X145624329Y-47589324D01*
X145603349Y-47561201D01*
X145564253Y-47531236D01*
X145534228Y-47520656D01*
X145481481Y-47515314D01*
X145427527Y-47513459D01*
X145374717Y-47512871D01*
X145357885Y-47512841D01*
X144899685Y-47512841D01*
X144899685Y-47453001D01*
X144743370Y-47453001D01*
X144743370Y-47512841D01*
X144602686Y-47512841D01*
X144397786Y-47512841D01*
X144397786Y-47416853D01*
X144524528Y-47416853D01*
X144680844Y-47416853D01*
X144727739Y-47416853D01*
X145650000Y-47416853D01*
X145650000Y-47115458D01*
X144727739Y-47115458D01*
X144727739Y-47416853D01*
X144680844Y-47416853D01*
X144680844Y-47115458D01*
X144524528Y-47115458D01*
X144524528Y-47416853D01*
X144397786Y-47416853D01*
X144397786Y-46577879D01*
X144712107Y-46577879D01*
X144717044Y-46626565D01*
X144733195Y-46673765D01*
X144734577Y-46676553D01*
X144756215Y-46710503D01*
X144761209Y-46718338D01*
X144789288Y-46746162D01*
X144727739Y-46763748D01*
X144727739Y-47035590D01*
X145433600Y-47035590D01*
X145483337Y-47035350D01*
X145532573Y-47034461D01*
X145581965Y-47032358D01*
X145618492Y-47028751D01*
X145665285Y-47011956D01*
X145705890Y-46983426D01*
X145708862Y-46980880D01*
X145743810Y-46942142D01*
X145769416Y-46897154D01*
X145781402Y-46866818D01*
X145794540Y-46817798D01*
X145802203Y-46767643D01*
X145805707Y-46718260D01*
X145806315Y-46685102D01*
X145804118Y-46628678D01*
X145797526Y-46577163D01*
X145784612Y-46524300D01*
X145765958Y-46477848D01*
X145760397Y-46467237D01*
X145726918Y-46426744D01*
X145684313Y-46401423D01*
X145637116Y-46387507D01*
X145580662Y-46381281D01*
X145571842Y-46381019D01*
X145571842Y-46666051D01*
X145620629Y-46676253D01*
X145634368Y-46702199D01*
X145617515Y-46737858D01*
X145567232Y-46746101D01*
X145539357Y-46746651D01*
X145483914Y-46746651D01*
X145511841Y-46706099D01*
X145523237Y-46682171D01*
X145537259Y-46634970D01*
X145540579Y-46596441D01*
X145536913Y-46546665D01*
X145523131Y-46495874D01*
X145509560Y-46468947D01*
X145478558Y-46430832D01*
X145437249Y-46403588D01*
X145427983Y-46399826D01*
X145380411Y-46387808D01*
X145329706Y-46382424D01*
X145286810Y-46381264D01*
X144960502Y-46381264D01*
X144906591Y-46383589D01*
X144853480Y-46391943D01*
X144804568Y-46408603D01*
X144770725Y-46429868D01*
X144737352Y-46469397D01*
X144719034Y-46515650D01*
X144712336Y-46565680D01*
X144712107Y-46577879D01*
X144397786Y-46577879D01*
X144397786Y-45843929D01*
X144508897Y-45843929D01*
X144511026Y-45901171D01*
X144517415Y-45954377D01*
X144528062Y-46003547D01*
X144545867Y-46055811D01*
X144569469Y-46102582D01*
X144598249Y-46145018D01*
X144631586Y-46184274D01*
X144669482Y-46220351D01*
X144711935Y-46253250D01*
X144738241Y-46270622D01*
X144788021Y-46296888D01*
X144834578Y-46314268D01*
X144884724Y-46326907D01*
X144938459Y-46334807D01*
X144995784Y-46337967D01*
X145005687Y-46338033D01*
X145057287Y-46336159D01*
X145106086Y-46330537D01*
X145163146Y-46318241D01*
X145215828Y-46300088D01*
X145264134Y-46276080D01*
X145308063Y-46246216D01*
X145340055Y-46218109D01*
X145375307Y-46180674D01*
X145409722Y-46135657D01*
X145435534Y-46090537D01*
X145454773Y-46037766D01*
X145462301Y-45984856D01*
X145462421Y-45977286D01*
X145454621Y-45925489D01*
X145424671Y-45883357D01*
X145382554Y-45864934D01*
X145417419Y-45827992D01*
X145442393Y-45791906D01*
X145459116Y-45744942D01*
X145462421Y-45707153D01*
X145457368Y-45656687D01*
X145439605Y-45606261D01*
X145409051Y-45562560D01*
X145381577Y-45537160D01*
X145337842Y-45509271D01*
X145287482Y-45489350D01*
X145237983Y-45478455D01*
X145183411Y-45473662D01*
X145166887Y-45473413D01*
X145114295Y-45475560D01*
X145063528Y-45482000D01*
X145014585Y-45492733D01*
X144967467Y-45507760D01*
X144922173Y-45527080D01*
X144878704Y-45550693D01*
X144861828Y-45561340D01*
X144816258Y-45595796D01*
X144780117Y-45633033D01*
X144749868Y-45679993D01*
X144732453Y-45730740D01*
X144727739Y-45777251D01*
X144730544Y-45798500D01*
X144734211Y-45826283D01*
X144753628Y-45870307D01*
X144784257Y-45909832D01*
X144810537Y-45930635D01*
X144727739Y-45939672D01*
X144727739Y-46091836D01*
X145294382Y-46003420D01*
X145317829Y-46000733D01*
X145337369Y-46018319D01*
X145324195Y-46066986D01*
X145300000Y-46103559D01*
X145263312Y-46139568D01*
X145222697Y-46167078D01*
X145187648Y-46185381D01*
X145138279Y-46204057D01*
X145089565Y-46214951D01*
X145036793Y-46220243D01*
X145012037Y-46220796D01*
X144960659Y-46218280D01*
X144903209Y-46208617D01*
X144850343Y-46191707D01*
X144802063Y-46167550D01*
X144758369Y-46136145D01*
X144738241Y-46117726D01*
X144702798Y-46076790D01*
X144674688Y-46031286D01*
X144653911Y-45981215D01*
X144640467Y-45926575D01*
X144634866Y-45877552D01*
X144633949Y-45846616D01*
X144637193Y-45787295D01*
X144646925Y-45731302D01*
X144663144Y-45678636D01*
X144685851Y-45629297D01*
X144715046Y-45583286D01*
X144750728Y-45540602D01*
X144766817Y-45524460D01*
X144810527Y-45487941D01*
X144858614Y-45457612D01*
X144911077Y-45433473D01*
X144967917Y-45415523D01*
X145016540Y-45405620D01*
X145067965Y-45399678D01*
X145122191Y-45397698D01*
X145174413Y-45399629D01*
X145223857Y-45405422D01*
X145281755Y-45418094D01*
X145335312Y-45436801D01*
X145384528Y-45461543D01*
X145429402Y-45492319D01*
X145462177Y-45521284D01*
X145498273Y-45561645D01*
X145528251Y-45605334D01*
X145552111Y-45652349D01*
X145569853Y-45702692D01*
X145581478Y-45756362D01*
X145586984Y-45813360D01*
X145587473Y-45837090D01*
X145585039Y-45889643D01*
X145577736Y-45940689D01*
X145565564Y-45990227D01*
X145556699Y-46017097D01*
X145536700Y-46064543D01*
X145511602Y-46110984D01*
X145481402Y-46156420D01*
X145462421Y-46181229D01*
X145462421Y-46343894D01*
X145501321Y-46311708D01*
X145536810Y-46277887D01*
X145574895Y-46235145D01*
X145608068Y-46190051D01*
X145636330Y-46142604D01*
X145652442Y-46109665D01*
X145672861Y-46059393D01*
X145689055Y-46008778D01*
X145701025Y-45957819D01*
X145708770Y-45906516D01*
X145712291Y-45854871D01*
X145712526Y-45837579D01*
X145710015Y-45779438D01*
X145702481Y-45723716D01*
X145689926Y-45670414D01*
X145672348Y-45619531D01*
X145649748Y-45571068D01*
X145622125Y-45525024D01*
X145589481Y-45481400D01*
X145551814Y-45440196D01*
X145509991Y-45402701D01*
X145465001Y-45370205D01*
X145416843Y-45342709D01*
X145365518Y-45320212D01*
X145311025Y-45302714D01*
X145253364Y-45290215D01*
X145192536Y-45282716D01*
X145128541Y-45280217D01*
X145064767Y-45282545D01*
X145003504Y-45289529D01*
X144944752Y-45301168D01*
X144888511Y-45317464D01*
X144834782Y-45338415D01*
X144783563Y-45364023D01*
X144734856Y-45394286D01*
X144688660Y-45429205D01*
X144646528Y-45468330D01*
X144610013Y-45511087D01*
X144579117Y-45557478D01*
X144553838Y-45607502D01*
X144534176Y-45661159D01*
X144520132Y-45718450D01*
X144511706Y-45779373D01*
X144508897Y-45843929D01*
X144397786Y-45843929D01*
X144397786Y-44896511D01*
X144712107Y-44896511D01*
X144712666Y-44909456D01*
X144714269Y-44946587D01*
X144722035Y-44999007D01*
X144735450Y-45046299D01*
X144757292Y-45093371D01*
X144788395Y-45137511D01*
X144825222Y-45172540D01*
X144867774Y-45198457D01*
X144876971Y-45202548D01*
X144923511Y-45217778D01*
X144972664Y-45227132D01*
X145021685Y-45232086D01*
X145076315Y-45234024D01*
X145084577Y-45234055D01*
X145212316Y-45234055D01*
X145212316Y-44874774D01*
X145403314Y-44874774D01*
X145452346Y-44876605D01*
X145478785Y-44882101D01*
X145493684Y-44910189D01*
X145473168Y-44946093D01*
X145423485Y-44954467D01*
X145386706Y-44955374D01*
X145259211Y-44955374D01*
X145259211Y-45234055D01*
X145333217Y-45234055D01*
X145382137Y-45232982D01*
X145430955Y-45228860D01*
X145463398Y-45223064D01*
X145510720Y-45204868D01*
X145554832Y-45176725D01*
X145561339Y-45171773D01*
X145599336Y-45135482D01*
X145628787Y-45092096D01*
X145639497Y-45069679D01*
X145655422Y-45019075D01*
X145663079Y-44970399D01*
X145665606Y-44921532D01*
X145665631Y-44915806D01*
X145663103Y-44861939D01*
X145655518Y-44812080D01*
X145641334Y-44761862D01*
X145639741Y-44757537D01*
X145617576Y-44710104D01*
X145587363Y-44668254D01*
X145568422Y-44649826D01*
X145526989Y-44620594D01*
X145482189Y-44600432D01*
X145468771Y-44596337D01*
X145416856Y-44586849D01*
X145366223Y-44582841D01*
X145312700Y-44581682D01*
X145048674Y-44581682D01*
X144998378Y-44583272D01*
X144946736Y-44588981D01*
X144896083Y-44600367D01*
X144857676Y-44614899D01*
X144813073Y-44642729D01*
X144776320Y-44680544D01*
X144749720Y-44723587D01*
X144729885Y-44772903D01*
X144718315Y-44820959D01*
X144712695Y-44872492D01*
X144712107Y-44896511D01*
X144397786Y-44896511D01*
X144397786Y-44546023D01*
X144711618Y-44546023D01*
X145056001Y-44546023D01*
X145058223Y-44495346D01*
X145068416Y-44444753D01*
X145074808Y-44430496D01*
X145109665Y-44395869D01*
X145127564Y-44389463D01*
X145180039Y-44384028D01*
X145231566Y-44382365D01*
X145282034Y-44381899D01*
X145289986Y-44381892D01*
X145650000Y-44381892D01*
X145650000Y-44088800D01*
X144727739Y-44088800D01*
X144727739Y-44382624D01*
X144866224Y-44363085D01*
X144816361Y-44386260D01*
X144776133Y-44414571D01*
X144741376Y-44454089D01*
X144719733Y-44500596D01*
X144711618Y-44546023D01*
X144397786Y-44546023D01*
X144397786Y-43655025D01*
X144524528Y-43655025D01*
X144779030Y-43655025D01*
X144751940Y-43687753D01*
X144747579Y-43693022D01*
X144732868Y-43720482D01*
X144716669Y-43769192D01*
X144712107Y-43815492D01*
X144716186Y-43866998D01*
X144729527Y-43914839D01*
X144730669Y-43917586D01*
X144756223Y-43960279D01*
X144782937Y-43984508D01*
X144826440Y-44006968D01*
X144848639Y-44012352D01*
X144897670Y-44015833D01*
X144951428Y-44016879D01*
X144981263Y-44016993D01*
X145389148Y-44016993D01*
X145441692Y-44015892D01*
X145490875Y-44012085D01*
X145540334Y-44003071D01*
X145584835Y-43981701D01*
X145621139Y-43946746D01*
X145628262Y-43937370D01*
X145652457Y-43892393D01*
X145664317Y-43841209D01*
X145665631Y-43815492D01*
X145660075Y-43766461D01*
X145643405Y-43720970D01*
X145616773Y-43679413D01*
X145593500Y-43655757D01*
X146204528Y-43655757D01*
X146204528Y-43751500D01*
X146204528Y-44036776D01*
X146923579Y-44036776D01*
X146923579Y-44115666D01*
X147126789Y-44115666D01*
X147126789Y-44036776D01*
X147330000Y-44036776D01*
X147330000Y-43743684D01*
X147126789Y-43743684D01*
X147126789Y-43413956D01*
X146930174Y-43413956D01*
X146204528Y-43655757D01*
X145593500Y-43655757D01*
X145588695Y-43650873D01*
X145650000Y-43635485D01*
X145650000Y-43361933D01*
X144524528Y-43361933D01*
X144524528Y-43655025D01*
X144397786Y-43655025D01*
X144397786Y-42955269D01*
X144712107Y-42955269D01*
X144712533Y-42965039D01*
X144714348Y-43006626D01*
X144722095Y-43058795D01*
X144735376Y-43105811D01*
X144740439Y-43118912D01*
X144764012Y-43165990D01*
X144795209Y-43207068D01*
X144814445Y-43224913D01*
X144854970Y-43253243D01*
X144899635Y-43273429D01*
X144908722Y-43276204D01*
X144960341Y-43285721D01*
X145013951Y-43289460D01*
X145054047Y-43290126D01*
X145275819Y-43290126D01*
X145326483Y-43289518D01*
X145376827Y-43287335D01*
X145428424Y-43282374D01*
X145457048Y-43277425D01*
X145506555Y-43260869D01*
X145550099Y-43235366D01*
X145566224Y-43222959D01*
X145600731Y-43188338D01*
X145627682Y-43147122D01*
X145641451Y-43115981D01*
X145652990Y-43076657D01*
X146188897Y-43076657D01*
X146191014Y-43127336D01*
X146199142Y-43182909D01*
X146213368Y-43232763D01*
X146237669Y-43283698D01*
X146270269Y-43326850D01*
X146275603Y-43332379D01*
X146315627Y-43366354D01*
X146360046Y-43391985D01*
X146408860Y-43409271D01*
X146462067Y-43418211D01*
X146494445Y-43419574D01*
X146544942Y-43416551D01*
X146596782Y-43407484D01*
X146649966Y-43392371D01*
X146697604Y-43374189D01*
X146704494Y-43371214D01*
X146754001Y-43346919D01*
X146807786Y-43317124D01*
X146859014Y-43287036D01*
X146902219Y-43260824D01*
X146949523Y-43231486D01*
X147000928Y-43199023D01*
X147056433Y-43163434D01*
X147116038Y-43124719D01*
X147158053Y-43097173D01*
X147158053Y-43394905D01*
X147330000Y-43394905D01*
X147330000Y-42768667D01*
X147194933Y-42768667D01*
X147137896Y-42801842D01*
X147083654Y-42833284D01*
X147032207Y-42862994D01*
X146983556Y-42890971D01*
X146937701Y-42917216D01*
X146894640Y-42941728D01*
X146835292Y-42975247D01*
X146782232Y-43004869D01*
X146735463Y-43030591D01*
X146682888Y-43058824D01*
X146632893Y-43084370D01*
X146617787Y-43091556D01*
X146572075Y-43111351D01*
X146525642Y-43128020D01*
X146476316Y-43139927D01*
X146447550Y-43142358D01*
X146398764Y-43136468D01*
X146381605Y-43128681D01*
X146360844Y-43087648D01*
X146383558Y-43046615D01*
X146431396Y-43034861D01*
X146479057Y-43032937D01*
X146595317Y-43032937D01*
X146595317Y-42768667D01*
X146547934Y-42768667D01*
X146494105Y-42769621D01*
X146443489Y-42772874D01*
X146401877Y-42778436D01*
X146354927Y-42792715D01*
X146311833Y-42815853D01*
X146295387Y-42827285D01*
X146256795Y-42862667D01*
X146226749Y-42905709D01*
X146215764Y-42928157D01*
X146199392Y-42978235D01*
X146191022Y-43030053D01*
X146188897Y-43076657D01*
X145652990Y-43076657D01*
X145655218Y-43069064D01*
X145663270Y-43017645D01*
X145665631Y-42966993D01*
X145664008Y-42916714D01*
X145658398Y-42866014D01*
X145647599Y-42816526D01*
X145645115Y-42808235D01*
X145624740Y-42759808D01*
X145594954Y-42718294D01*
X145582344Y-42706141D01*
X145542193Y-42678105D01*
X145495684Y-42658110D01*
X145481228Y-42653873D01*
X145428860Y-42644497D01*
X145379036Y-42640304D01*
X145327158Y-42638621D01*
X145305861Y-42638486D01*
X145073831Y-42638486D01*
X145020670Y-42639830D01*
X144966326Y-42644658D01*
X144913363Y-42654286D01*
X144873551Y-42666574D01*
X144826750Y-42691392D01*
X144786759Y-42726888D01*
X144756315Y-42768423D01*
X144734945Y-42812926D01*
X144720569Y-42863727D01*
X144713661Y-42914170D01*
X144712107Y-42955269D01*
X144397786Y-42955269D01*
X144397786Y-42565213D01*
X144524528Y-42565213D01*
X145650000Y-42565213D01*
X145650000Y-42520516D01*
X146173265Y-42520516D01*
X146173265Y-42744731D01*
X147345631Y-42410607D01*
X147345631Y-42184438D01*
X146173265Y-42520516D01*
X145650000Y-42520516D01*
X145650000Y-42263818D01*
X144524528Y-42263818D01*
X144524528Y-42565213D01*
X144397786Y-42565213D01*
X144397786Y-41855199D01*
X144712107Y-41855199D01*
X144712666Y-41868144D01*
X144714269Y-41905275D01*
X144722035Y-41957695D01*
X144735450Y-42004987D01*
X144757292Y-42052059D01*
X144788395Y-42096199D01*
X144825222Y-42131228D01*
X144867774Y-42157146D01*
X144876971Y-42161236D01*
X144923511Y-42176466D01*
X144972664Y-42185820D01*
X145021685Y-42190774D01*
X145076315Y-42192712D01*
X145084577Y-42192743D01*
X145212316Y-42192743D01*
X145212316Y-41833462D01*
X145403314Y-41833462D01*
X145452346Y-41835294D01*
X145478785Y-41840789D01*
X145493684Y-41868877D01*
X145473168Y-41904781D01*
X145423485Y-41913155D01*
X145386706Y-41914062D01*
X145259211Y-41914062D01*
X145259211Y-42192743D01*
X145333217Y-42192743D01*
X145382137Y-42191670D01*
X145430955Y-42187548D01*
X145463398Y-42181752D01*
X145510720Y-42163556D01*
X145554832Y-42135413D01*
X145561339Y-42130461D01*
X145599336Y-42094170D01*
X145628787Y-42050784D01*
X145639497Y-42028368D01*
X145655422Y-41977763D01*
X145663079Y-41929087D01*
X145665606Y-41880220D01*
X145665631Y-41874495D01*
X145663103Y-41820628D01*
X145661154Y-41807815D01*
X146188897Y-41807815D01*
X146189204Y-41813921D01*
X146191447Y-41858614D01*
X146200263Y-41911432D01*
X146215375Y-41960433D01*
X146221137Y-41974389D01*
X146245063Y-42020742D01*
X146275179Y-42061368D01*
X146300516Y-42085031D01*
X146343746Y-42112887D01*
X146391370Y-42131487D01*
X146405785Y-42135101D01*
X146458896Y-42142989D01*
X146511217Y-42146516D01*
X146566709Y-42147932D01*
X146589699Y-42148046D01*
X146956308Y-42148046D01*
X147008113Y-42147368D01*
X147059419Y-42144933D01*
X147111703Y-42139399D01*
X147140467Y-42133879D01*
X147186687Y-42117489D01*
X147230488Y-42090940D01*
X147249888Y-42075261D01*
X147284154Y-42039346D01*
X147312207Y-41994624D01*
X147323405Y-41968039D01*
X147336949Y-41919083D01*
X147343873Y-41870587D01*
X147345631Y-41828332D01*
X147343796Y-41774337D01*
X147338289Y-41725558D01*
X147327866Y-41677477D01*
X147322428Y-41660048D01*
X147301167Y-41613119D01*
X147269841Y-41570884D01*
X147249399Y-41551849D01*
X147208150Y-41522975D01*
X147162015Y-41500535D01*
X147145108Y-41494696D01*
X147095431Y-41484426D01*
X147046588Y-41479835D01*
X146994835Y-41477991D01*
X146973405Y-41477843D01*
X146589699Y-41477843D01*
X146535100Y-41478796D01*
X146485789Y-41481656D01*
X146434946Y-41487401D01*
X146385655Y-41497144D01*
X146359623Y-41504954D01*
X146314237Y-41527251D01*
X146274863Y-41559947D01*
X146244565Y-41598265D01*
X146235547Y-41612909D01*
X146212997Y-41661012D01*
X146199147Y-41708181D01*
X146191129Y-41759503D01*
X146188897Y-41807815D01*
X145661154Y-41807815D01*
X145655518Y-41770768D01*
X145641334Y-41720550D01*
X145639741Y-41716225D01*
X145617576Y-41668792D01*
X145587363Y-41626942D01*
X145568422Y-41608514D01*
X145526989Y-41579282D01*
X145482189Y-41559120D01*
X145468771Y-41555025D01*
X145416856Y-41545537D01*
X145366223Y-41541530D01*
X145312700Y-41540370D01*
X145048674Y-41540370D01*
X144998378Y-41541960D01*
X144946736Y-41547669D01*
X144896083Y-41559055D01*
X144857676Y-41573587D01*
X144813073Y-41601417D01*
X144776320Y-41639232D01*
X144749720Y-41682275D01*
X144729885Y-41731591D01*
X144718315Y-41779647D01*
X144712695Y-41831180D01*
X144712107Y-41855199D01*
X144397786Y-41855199D01*
X144397786Y-41137125D01*
X144602686Y-41137125D01*
X144602686Y-41430950D01*
X144743370Y-41430950D01*
X144743370Y-41505688D01*
X144899685Y-41505688D01*
X144899685Y-41430950D01*
X145388904Y-41430950D01*
X145440334Y-41431786D01*
X145485624Y-41438033D01*
X145493298Y-41488903D01*
X145493684Y-41517411D01*
X145650000Y-41517411D01*
X145650000Y-41397732D01*
X145649362Y-41348245D01*
X145646851Y-41299253D01*
X145641939Y-41260224D01*
X145624329Y-41213609D01*
X145624301Y-41213572D01*
X146204528Y-41213572D01*
X146204528Y-41388939D01*
X147330000Y-41388939D01*
X147330000Y-41095603D01*
X146719637Y-41095603D01*
X146668040Y-41095323D01*
X146616505Y-41094138D01*
X146567622Y-41090102D01*
X146566008Y-41089741D01*
X146529616Y-41058967D01*
X146519544Y-41008718D01*
X146517269Y-40956401D01*
X146517159Y-40939288D01*
X146517159Y-40904117D01*
X146381849Y-40904117D01*
X146369568Y-40953725D01*
X146354463Y-41000211D01*
X146331611Y-41053929D01*
X146304346Y-41102769D01*
X146272668Y-41146732D01*
X146236578Y-41185817D01*
X146204528Y-41213572D01*
X145624301Y-41213572D01*
X145603349Y-41185485D01*
X145564253Y-41155521D01*
X145534228Y-41144941D01*
X145481481Y-41139598D01*
X145427527Y-41137744D01*
X145374717Y-41137156D01*
X145357885Y-41137125D01*
X144899685Y-41137125D01*
X144899685Y-41077286D01*
X144743370Y-41077286D01*
X144743370Y-41137125D01*
X144602686Y-41137125D01*
X144397786Y-41137125D01*
X144397786Y-40850629D01*
X144712107Y-40850629D01*
X144717053Y-40902538D01*
X144733574Y-40950246D01*
X144747278Y-40972261D01*
X144783939Y-41009223D01*
X144828436Y-41031266D01*
X144834961Y-41033078D01*
X144883825Y-41041413D01*
X144932915Y-41045139D01*
X144985503Y-41046635D01*
X145007397Y-41046756D01*
X145650000Y-41046756D01*
X145650000Y-40753664D01*
X145011549Y-40753664D01*
X144960911Y-40753139D01*
X144910551Y-40750117D01*
X144901395Y-40748291D01*
X144884054Y-40720936D01*
X144904570Y-40690405D01*
X144957317Y-40685103D01*
X145008111Y-40684111D01*
X145026448Y-40684055D01*
X145650000Y-40684055D01*
X145650000Y-40390963D01*
X144727739Y-40390963D01*
X144727739Y-40689184D01*
X144787334Y-40685765D01*
X144753289Y-40720901D01*
X144737508Y-40746337D01*
X144719276Y-40791878D01*
X144712206Y-40843323D01*
X144712107Y-40850629D01*
X144397786Y-40850629D01*
X144397786Y-39994069D01*
X144712107Y-39994069D01*
X144713902Y-40045386D01*
X144720532Y-40099069D01*
X144734091Y-40152264D01*
X144756972Y-40201709D01*
X144763154Y-40211201D01*
X144797300Y-40251529D01*
X144840040Y-40282557D01*
X144888206Y-40299617D01*
X144941813Y-40306819D01*
X144990860Y-40310311D01*
X145039866Y-40312420D01*
X145096266Y-40313803D01*
X145146709Y-40314385D01*
X145187648Y-40314515D01*
X145650000Y-40314515D01*
X145650000Y-40028996D01*
X145591625Y-40028996D01*
X145627346Y-39994374D01*
X145639986Y-39975262D01*
X145659220Y-39929283D01*
X145665606Y-39878969D01*
X145665631Y-39875367D01*
X145660552Y-39825034D01*
X145645313Y-39777471D01*
X145622644Y-39736637D01*
X145586022Y-39703149D01*
X145536381Y-39683614D01*
X145486844Y-39675366D01*
X145436775Y-39673134D01*
X145361304Y-39673134D01*
X145307090Y-39675800D01*
X145255154Y-39686300D01*
X145216468Y-39706839D01*
X145185431Y-39745765D01*
X145160123Y-39792631D01*
X145139238Y-39839555D01*
X145126831Y-39870482D01*
X145108327Y-39916269D01*
X145087635Y-39963614D01*
X145063713Y-40007145D01*
X145057711Y-40012876D01*
X145009250Y-40021015D01*
X144987613Y-40021424D01*
X144938072Y-40019648D01*
X144902128Y-40012143D01*
X144884054Y-39983322D01*
X144898709Y-39954746D01*
X144949804Y-39949573D01*
X144986147Y-39949128D01*
X145087264Y-39949128D01*
X145087264Y-39673134D01*
X145019853Y-39673134D01*
X144970516Y-39674706D01*
X144917088Y-39681094D01*
X144868896Y-39693795D01*
X144857676Y-39698291D01*
X144816368Y-39724383D01*
X144781882Y-39760671D01*
X144756071Y-39799163D01*
X144734819Y-39845093D01*
X144720522Y-39897978D01*
X144713653Y-39950826D01*
X144712107Y-39994069D01*
X144397786Y-39994069D01*
X144397786Y-39301885D01*
X144712107Y-39301885D01*
X144715053Y-39355221D01*
X144723892Y-39404589D01*
X144740878Y-39455383D01*
X144759246Y-39491417D01*
X144787713Y-39531738D01*
X144823920Y-39566705D01*
X144869313Y-39593212D01*
X144878192Y-39596686D01*
X144929464Y-39610467D01*
X144979686Y-39617818D01*
X145030343Y-39621569D01*
X145087264Y-39622820D01*
X145087264Y-39345604D01*
X144972226Y-39345604D01*
X144923050Y-39343208D01*
X144901151Y-39338033D01*
X144884054Y-39311410D01*
X144898220Y-39285520D01*
X144947486Y-39279009D01*
X144971004Y-39278682D01*
X145403314Y-39278682D01*
X145452315Y-39282879D01*
X145472191Y-39289428D01*
X145493684Y-39319714D01*
X145470969Y-39351222D01*
X145420540Y-39358975D01*
X145377669Y-39360014D01*
X145259211Y-39360014D01*
X145259211Y-39622820D01*
X145313998Y-39622041D01*
X145366473Y-39620180D01*
X145417438Y-39616488D01*
X145432379Y-39614760D01*
X145481713Y-39602084D01*
X145528612Y-39579095D01*
X145546929Y-39567377D01*
X145586874Y-39534083D01*
X145618782Y-39493921D01*
X145635589Y-39463329D01*
X145652693Y-39415675D01*
X145662081Y-39366292D01*
X145665514Y-39316912D01*
X145665631Y-39305304D01*
X145663668Y-39255282D01*
X145656615Y-39203838D01*
X145642550Y-39153263D01*
X145624598Y-39114795D01*
X145595628Y-39074580D01*
X145556432Y-39039711D01*
X145509560Y-39014655D01*
X145457463Y-38999328D01*
X145407370Y-38991153D01*
X145357403Y-38986981D01*
X145301709Y-38985590D01*
X145044521Y-38985590D01*
X144989658Y-38987086D01*
X144936331Y-38992345D01*
X144887501Y-39002630D01*
X144867201Y-39009526D01*
X144823661Y-39035286D01*
X144787068Y-39072296D01*
X144759490Y-39112108D01*
X144736585Y-39158817D01*
X144721176Y-39210743D01*
X144713773Y-39261278D01*
X144712107Y-39301885D01*
X144397786Y-39301885D01*
X144397786Y-38721808D01*
X144712107Y-38721808D01*
X144717053Y-38773717D01*
X144733574Y-38821425D01*
X144747278Y-38843441D01*
X144783939Y-38880403D01*
X144828436Y-38902445D01*
X144834961Y-38904257D01*
X144883825Y-38912592D01*
X144932915Y-38916319D01*
X144985503Y-38917815D01*
X145007397Y-38917935D01*
X145650000Y-38917935D01*
X145650000Y-38624843D01*
X145011549Y-38624843D01*
X144960911Y-38624319D01*
X144910551Y-38621296D01*
X144901395Y-38619470D01*
X144884054Y-38592115D01*
X144904570Y-38561585D01*
X144957317Y-38556282D01*
X145008111Y-38555290D01*
X145026448Y-38555234D01*
X145650000Y-38555234D01*
X145650000Y-38262143D01*
X144727739Y-38262143D01*
X144727739Y-38560363D01*
X144787334Y-38556944D01*
X144753289Y-38592081D01*
X144737508Y-38617516D01*
X144719276Y-38663058D01*
X144712206Y-38714503D01*
X144712107Y-38721808D01*
X144397786Y-38721808D01*
X144397786Y-37865248D01*
X144712107Y-37865248D01*
X144713902Y-37916565D01*
X144720532Y-37970249D01*
X144734091Y-38023444D01*
X144756972Y-38072888D01*
X144763154Y-38082380D01*
X144797300Y-38122709D01*
X144840040Y-38153737D01*
X144888206Y-38170796D01*
X144941813Y-38177998D01*
X144990860Y-38181490D01*
X145039866Y-38183600D01*
X145096266Y-38184982D01*
X145146709Y-38185564D01*
X145187648Y-38185695D01*
X145650000Y-38185695D01*
X145650000Y-37900175D01*
X145591625Y-37900175D01*
X145627346Y-37865553D01*
X145639986Y-37846441D01*
X145659220Y-37800463D01*
X145665606Y-37750149D01*
X145665631Y-37746546D01*
X145660552Y-37696213D01*
X145645313Y-37648651D01*
X145622644Y-37607816D01*
X145586022Y-37574328D01*
X145536381Y-37554794D01*
X145486844Y-37546546D01*
X145436775Y-37544313D01*
X145361304Y-37544313D01*
X145307090Y-37546979D01*
X145255154Y-37557479D01*
X145216468Y-37578019D01*
X145185431Y-37616945D01*
X145160123Y-37663811D01*
X145139238Y-37710734D01*
X145126831Y-37741661D01*
X145108327Y-37787448D01*
X145087635Y-37834793D01*
X145063713Y-37878324D01*
X145057711Y-37884055D01*
X145009250Y-37892194D01*
X144987613Y-37892603D01*
X144938072Y-37890827D01*
X144902128Y-37883322D01*
X144884054Y-37854501D01*
X144898709Y-37825925D01*
X144949804Y-37820752D01*
X144986147Y-37820307D01*
X145087264Y-37820307D01*
X145087264Y-37544313D01*
X145019853Y-37544313D01*
X144970516Y-37545885D01*
X144917088Y-37552273D01*
X144868896Y-37564974D01*
X144857676Y-37569470D01*
X144816368Y-37595562D01*
X144781882Y-37631851D01*
X144756071Y-37670342D01*
X144734819Y-37716272D01*
X144720522Y-37769158D01*
X144713653Y-37822006D01*
X144712107Y-37865248D01*
X144397786Y-37865248D01*
X144397786Y-37145220D01*
X144602686Y-37145220D01*
X144602686Y-37439044D01*
X144743370Y-37439044D01*
X144743370Y-37513783D01*
X144899685Y-37513783D01*
X144899685Y-37439044D01*
X145388904Y-37439044D01*
X145440334Y-37439881D01*
X145485624Y-37446127D01*
X145493298Y-37496997D01*
X145493684Y-37525506D01*
X145650000Y-37525506D01*
X145650000Y-37405827D01*
X145649362Y-37356340D01*
X145646851Y-37307348D01*
X145641939Y-37268319D01*
X145624329Y-37221704D01*
X145603349Y-37193580D01*
X145564253Y-37163616D01*
X145534228Y-37153036D01*
X145481481Y-37147693D01*
X145427527Y-37145839D01*
X145374717Y-37145251D01*
X145357885Y-37145220D01*
X144899685Y-37145220D01*
X144899685Y-37085381D01*
X144743370Y-37085381D01*
X144743370Y-37145220D01*
X144602686Y-37145220D01*
X144397786Y-37145220D01*
X144397786Y-36722192D01*
X144712107Y-36722192D01*
X144712666Y-36735137D01*
X144714269Y-36772267D01*
X144722035Y-36824688D01*
X144735450Y-36871979D01*
X144757292Y-36919051D01*
X144788395Y-36963192D01*
X144825222Y-36998220D01*
X144867774Y-37024138D01*
X144876971Y-37028228D01*
X144923511Y-37043459D01*
X144972664Y-37052812D01*
X145021685Y-37057766D01*
X145076315Y-37059705D01*
X145084577Y-37059735D01*
X145212316Y-37059735D01*
X145212316Y-36700454D01*
X145403314Y-36700454D01*
X145452346Y-36702286D01*
X145478785Y-36707781D01*
X145493684Y-36735869D01*
X145473168Y-36771773D01*
X145423485Y-36780148D01*
X145386706Y-36781054D01*
X145259211Y-36781054D01*
X145259211Y-37059735D01*
X145333217Y-37059735D01*
X145382137Y-37058662D01*
X145430955Y-37054540D01*
X145463398Y-37048744D01*
X145510720Y-37030548D01*
X145554832Y-37002405D01*
X145561339Y-36997453D01*
X145599336Y-36961162D01*
X145628787Y-36917777D01*
X145639497Y-36895360D01*
X145655422Y-36844756D01*
X145663079Y-36796079D01*
X145665606Y-36747212D01*
X145665631Y-36741487D01*
X145663103Y-36687620D01*
X145655518Y-36637760D01*
X145641334Y-36587542D01*
X145639741Y-36583217D01*
X145617576Y-36535785D01*
X145587363Y-36493934D01*
X145568422Y-36475506D01*
X145526989Y-36446275D01*
X145482189Y-36426112D01*
X145468771Y-36422017D01*
X145416856Y-36412529D01*
X145366223Y-36408522D01*
X145312700Y-36407363D01*
X145048674Y-36407363D01*
X144998378Y-36408952D01*
X144946736Y-36414661D01*
X144896083Y-36426047D01*
X144857676Y-36440580D01*
X144813073Y-36468409D01*
X144776320Y-36506225D01*
X144749720Y-36549268D01*
X144729885Y-36598584D01*
X144718315Y-36646639D01*
X144712695Y-36698172D01*
X144712107Y-36722192D01*
X144397786Y-36722192D01*
X144397786Y-36018772D01*
X144712107Y-36018772D01*
X144713902Y-36070089D01*
X144720532Y-36123773D01*
X144734091Y-36176968D01*
X144756972Y-36226412D01*
X144763154Y-36235904D01*
X144797300Y-36276233D01*
X144840040Y-36307261D01*
X144888206Y-36324320D01*
X144941813Y-36331522D01*
X144990860Y-36335014D01*
X145039866Y-36337124D01*
X145096266Y-36338506D01*
X145146709Y-36339088D01*
X145187648Y-36339219D01*
X145650000Y-36339219D01*
X145650000Y-36053699D01*
X145591625Y-36053699D01*
X145627346Y-36019078D01*
X145639986Y-35999966D01*
X145659220Y-35953987D01*
X145665606Y-35903673D01*
X145665631Y-35900070D01*
X145660552Y-35849737D01*
X145645313Y-35802175D01*
X145622644Y-35761340D01*
X145586022Y-35727852D01*
X145536381Y-35708318D01*
X145486844Y-35700070D01*
X145436775Y-35697837D01*
X145361304Y-35697837D01*
X145307090Y-35700503D01*
X145255154Y-35711003D01*
X145216468Y-35731543D01*
X145185431Y-35770469D01*
X145160123Y-35817335D01*
X145139238Y-35864258D01*
X145126831Y-35895185D01*
X145108327Y-35940972D01*
X145087635Y-35988317D01*
X145063713Y-36031849D01*
X145057711Y-36037579D01*
X145009250Y-36045718D01*
X144987613Y-36046127D01*
X144938072Y-36044351D01*
X144902128Y-36036846D01*
X144884054Y-36008026D01*
X144898709Y-35979449D01*
X144949804Y-35974276D01*
X144986147Y-35973832D01*
X145087264Y-35973832D01*
X145087264Y-35697837D01*
X145019853Y-35697837D01*
X144970516Y-35699409D01*
X144917088Y-35705797D01*
X144868896Y-35718498D01*
X144857676Y-35722994D01*
X144816368Y-35749086D01*
X144781882Y-35785375D01*
X144756071Y-35823866D01*
X144734819Y-35869797D01*
X144720522Y-35922682D01*
X144713653Y-35975530D01*
X144712107Y-36018772D01*
X144397786Y-36018772D01*
X144397786Y-35172715D01*
X144712107Y-35172715D01*
X144717044Y-35221401D01*
X144733195Y-35268601D01*
X144734577Y-35271389D01*
X144756215Y-35305339D01*
X144761209Y-35313174D01*
X144789288Y-35340998D01*
X144727739Y-35358584D01*
X144727739Y-35630426D01*
X145433600Y-35630426D01*
X145483337Y-35630186D01*
X145532573Y-35629297D01*
X145581965Y-35627194D01*
X145618492Y-35623587D01*
X145665285Y-35606792D01*
X145705890Y-35578262D01*
X145708862Y-35575716D01*
X145743810Y-35536978D01*
X145769416Y-35491990D01*
X145781402Y-35461654D01*
X145794540Y-35412634D01*
X145802203Y-35362479D01*
X145805707Y-35313096D01*
X145806315Y-35279938D01*
X145804118Y-35223514D01*
X145797526Y-35171999D01*
X145784612Y-35119136D01*
X145765958Y-35072684D01*
X145760397Y-35062073D01*
X145726918Y-35021580D01*
X145684313Y-34996259D01*
X145637116Y-34982343D01*
X145580662Y-34976117D01*
X145571842Y-34975855D01*
X145571842Y-35260887D01*
X145620629Y-35271089D01*
X145634368Y-35297035D01*
X145617515Y-35332694D01*
X145567232Y-35340937D01*
X145539357Y-35341487D01*
X145483914Y-35341487D01*
X145511841Y-35300935D01*
X145523237Y-35277007D01*
X145537259Y-35229806D01*
X145540579Y-35191277D01*
X145536913Y-35141501D01*
X145523131Y-35090710D01*
X145509560Y-35063783D01*
X145478558Y-35025668D01*
X145437249Y-34998424D01*
X145427983Y-34994662D01*
X145380411Y-34982644D01*
X145329706Y-34977260D01*
X145286810Y-34976100D01*
X144960502Y-34976100D01*
X144906591Y-34978425D01*
X144853480Y-34986779D01*
X144804568Y-35003439D01*
X144770725Y-35024704D01*
X144737352Y-35064233D01*
X144719034Y-35110486D01*
X144712336Y-35160516D01*
X144712107Y-35172715D01*
X144397786Y-35172715D01*
X144397786Y-34864744D01*
X147456742Y-34864744D01*
X147456742Y-50154063D01*
G37*
D12*
%TO.C,SBR1*%
X161000000Y-52500000D03*
X167500000Y-52500000D03*
X161000000Y-57000000D03*
X167500000Y-57000000D03*
%TD*%
%TO.C,STL1*%
X132500000Y-43000000D03*
X139000000Y-43000000D03*
X132500000Y-47500000D03*
X139000000Y-47500000D03*
%TD*%
D13*
%TO.C,keychain1*%
X133000000Y-33000000D03*
%TD*%
D12*
%TO.C,SBL1*%
X132500000Y-52500000D03*
X139000000Y-52500000D03*
X132500000Y-57000000D03*
X139000000Y-57000000D03*
%TD*%
%TO.C,STR1*%
X161000000Y-43000000D03*
X167500000Y-43000000D03*
X161000000Y-47500000D03*
X167500000Y-47500000D03*
%TD*%
D14*
%TO.C,BZ1*%
X146200000Y-62500000D03*
D12*
X153800000Y-62500000D03*
%TD*%
D15*
%TO.C,U1*%
X158120000Y-33840000D03*
X158120000Y-36380000D03*
X158120000Y-38920000D03*
X158120000Y-41460000D03*
X158120000Y-44000000D03*
X158120000Y-46540000D03*
X158120000Y-49080000D03*
X158120000Y-51620000D03*
X158120000Y-54160000D03*
D16*
X155080000Y-54660000D03*
X152540000Y-54660000D03*
X150000000Y-54660000D03*
X147460000Y-54660000D03*
X144920000Y-54660000D03*
D15*
X141880000Y-54160000D03*
X141880000Y-51620000D03*
X141880000Y-49080000D03*
X141880000Y-46540000D03*
X141880000Y-44000000D03*
X141880000Y-41460000D03*
X141880000Y-38920000D03*
X141880000Y-36380000D03*
X141880000Y-33840000D03*
%TD*%
M02*
