%TF.GenerationSoftware,KiCad,Pcbnew,8.0.5*%
%TF.CreationDate,2024-10-15T22:02:10+02:00*%
%TF.ProjectId,_autosave-pcb,5f617574-6f73-4617-9665-2d7063622e6b,rev?*%
%TF.SameCoordinates,Original*%
%TF.FileFunction,Legend,Bot*%
%TF.FilePolarity,Positive*%
%FSLAX46Y46*%
G04 Gerber Fmt 4.6, Leading zero omitted, Abs format (unit mm)*
G04 Created by KiCad (PCBNEW 8.0.5) date 2024-10-15 22:02:10*
%MOMM*%
%LPD*%
G01*
G04 APERTURE LIST*
%ADD10C,0.000000*%
G04 APERTURE END LIST*
D10*
%TO.C,G\u002A\u002A\u002A*%
G36*
X149478181Y-65889221D02*
G01*
X149452196Y-66262141D01*
X149370737Y-66416000D01*
X149158973Y-66575585D01*
X149031988Y-66560715D01*
X148835458Y-66347437D01*
X148944927Y-65927816D01*
X149049094Y-65784916D01*
X149302326Y-65702802D01*
X149478181Y-65889221D01*
G37*
G36*
X147590565Y-57454075D02*
G01*
X148056472Y-57810447D01*
X148067016Y-57820435D01*
X148449765Y-58420639D01*
X148455984Y-59077962D01*
X148084500Y-59712694D01*
X147982119Y-59819691D01*
X147613286Y-60116691D01*
X147306434Y-60099430D01*
X146919362Y-59775585D01*
X146613407Y-59295054D01*
X146553021Y-58596632D01*
X146842364Y-57868548D01*
X146912391Y-57765446D01*
X147242729Y-57437470D01*
X147590565Y-57454075D01*
G37*
G36*
X148892666Y-67259233D02*
G01*
X148988473Y-67480582D01*
X148794137Y-67886014D01*
X148789898Y-67892502D01*
X148606379Y-68233908D01*
X148608164Y-68375585D01*
X148650420Y-68392405D01*
X148612838Y-68586142D01*
X148437452Y-68722559D01*
X148148388Y-68654423D01*
X147960962Y-68341542D01*
X147956967Y-68315126D01*
X148043029Y-67946472D01*
X148298935Y-67561325D01*
X148615802Y-67287845D01*
X148884749Y-67254192D01*
X148892666Y-67259233D01*
G37*
G36*
X151000497Y-57179150D02*
G01*
X151373274Y-57398250D01*
X151735383Y-57867998D01*
X152009578Y-58463493D01*
X152118615Y-59059836D01*
X152035765Y-59538522D01*
X151788365Y-60009836D01*
X151406658Y-60304534D01*
X150929070Y-60312253D01*
X150382253Y-59940722D01*
X150162531Y-59670000D01*
X149939737Y-59061618D01*
X149929845Y-58399383D01*
X150110428Y-57791897D01*
X150459055Y-57347763D01*
X150953300Y-57175585D01*
X151000497Y-57179150D01*
G37*
G36*
X153746486Y-58122708D02*
G01*
X153795798Y-58347034D01*
X153489205Y-58654197D01*
X153320338Y-58781425D01*
X153144168Y-59041388D01*
X153260580Y-59355780D01*
X153378882Y-59611660D01*
X153374258Y-59854022D01*
X153203145Y-59950329D01*
X152886981Y-59861701D01*
X152627196Y-59527996D01*
X152519362Y-59040195D01*
X152524020Y-58970515D01*
X152702214Y-58568964D01*
X153048260Y-58231827D01*
X153437802Y-58052083D01*
X153746486Y-58122708D01*
G37*
G36*
X153423828Y-65994355D02*
G01*
X154097328Y-66380695D01*
X154334610Y-66542709D01*
X154781723Y-66918120D01*
X154979757Y-67198504D01*
X154905169Y-67335403D01*
X154534420Y-67280363D01*
X154459280Y-67265225D01*
X154224688Y-67351765D01*
X153975551Y-67680773D01*
X153682289Y-68300240D01*
X153315320Y-69258152D01*
X153257132Y-69408018D01*
X153074406Y-69680484D01*
X152876497Y-69612719D01*
X152852706Y-69585453D01*
X152790073Y-69320814D01*
X152888886Y-68845804D01*
X153162528Y-68089131D01*
X153676561Y-66793544D01*
X153176581Y-66465945D01*
X152851005Y-66173124D01*
X152882384Y-65932563D01*
X153009709Y-65880791D01*
X153423828Y-65994355D01*
G37*
G36*
X145803152Y-65162390D02*
G01*
X145919362Y-65589083D01*
X145925365Y-65738632D01*
X146024480Y-65872907D01*
X146331543Y-65727279D01*
X146407335Y-65682519D01*
X146732600Y-65583257D01*
X146981543Y-65775585D01*
X147144349Y-65933446D01*
X147469362Y-66075585D01*
X147555359Y-66075830D01*
X147687765Y-66102470D01*
X147725561Y-66222100D01*
X147655748Y-66504513D01*
X147465326Y-67019503D01*
X147141293Y-67836862D01*
X147119632Y-67889339D01*
X146888427Y-68244496D01*
X146694863Y-68247987D01*
X146588616Y-67943715D01*
X146619362Y-67375585D01*
X146657823Y-66847431D01*
X146569172Y-66534334D01*
X146384608Y-66537047D01*
X146145738Y-66897566D01*
X146001802Y-67146349D01*
X145725655Y-67314618D01*
X145477965Y-67112993D01*
X145304101Y-66559686D01*
X145188839Y-65875585D01*
X144966437Y-66406157D01*
X144727582Y-66852853D01*
X144450198Y-67093479D01*
X144225009Y-66984720D01*
X144204855Y-66754126D01*
X144368209Y-66291274D01*
X144684324Y-65764916D01*
X145086284Y-65305520D01*
X145497369Y-65066706D01*
X145803152Y-65162390D01*
G37*
G36*
X150219186Y-66608136D02*
G01*
X150119903Y-66974574D01*
X150039857Y-67166681D01*
X149943326Y-67623965D01*
X149925049Y-68081483D01*
X149984811Y-68408358D01*
X150122393Y-68473712D01*
X150155462Y-68447617D01*
X150376420Y-68137483D01*
X150618202Y-67647515D01*
X150711207Y-67443136D01*
X150953047Y-67102215D01*
X151129011Y-67127668D01*
X151213627Y-67495360D01*
X151181421Y-68181156D01*
X151144630Y-68620461D01*
X151180959Y-69062471D01*
X151328202Y-69129077D01*
X151571655Y-68821133D01*
X151896611Y-68139498D01*
X152156104Y-67579103D01*
X152372673Y-67298332D01*
X152550217Y-67326439D01*
X152602112Y-67442205D01*
X152580810Y-67870236D01*
X152425755Y-68448708D01*
X152177612Y-69044774D01*
X151877049Y-69525585D01*
X151530369Y-69746655D01*
X151073358Y-69703792D01*
X150712451Y-69362671D01*
X150679249Y-69302629D01*
X150463694Y-69075593D01*
X150205415Y-69187160D01*
X150085712Y-69266340D01*
X149767072Y-69266887D01*
X149517464Y-68986929D01*
X149358073Y-68514200D01*
X149310083Y-67936435D01*
X149394680Y-67341370D01*
X149633047Y-66816740D01*
X149798752Y-66623310D01*
X150077829Y-66479926D01*
X150219186Y-66608136D01*
G37*
G36*
X162389981Y-59544274D02*
G01*
X163093852Y-60267397D01*
X164112969Y-60958870D01*
X164183223Y-60998964D01*
X164790995Y-61372259D01*
X165226195Y-61685899D01*
X165398641Y-61875585D01*
X165378123Y-61911520D01*
X165082104Y-62015128D01*
X164500914Y-62109088D01*
X163719362Y-62178123D01*
X163186074Y-62218961D01*
X162039004Y-62408638D01*
X161183441Y-62763474D01*
X160547975Y-63339704D01*
X160061195Y-64193561D01*
X159651691Y-65381278D01*
X159431557Y-65994233D01*
X158977580Y-66781029D01*
X158268991Y-67631278D01*
X157634495Y-68254547D01*
X157043812Y-68685708D01*
X156638528Y-68796319D01*
X156438010Y-68591142D01*
X156461626Y-68074941D01*
X156728741Y-67252478D01*
X156974768Y-66482076D01*
X157018029Y-65760114D01*
X156818137Y-65042943D01*
X156351108Y-64246839D01*
X155592953Y-63288076D01*
X154476514Y-61980257D01*
X153970967Y-62377921D01*
X153965350Y-62382327D01*
X153537937Y-62660221D01*
X153216129Y-62775585D01*
X153141941Y-62795065D01*
X152825439Y-63032045D01*
X152450965Y-63451929D01*
X152403894Y-63512048D01*
X151794199Y-64064518D01*
X151145769Y-64299948D01*
X150540432Y-64186861D01*
X150526998Y-64179775D01*
X150167466Y-64115949D01*
X149813538Y-64382020D01*
X149670958Y-64510814D01*
X149134999Y-64738291D01*
X148561070Y-64731094D01*
X148122413Y-64479260D01*
X148017038Y-64364222D01*
X147794485Y-64289174D01*
X147453423Y-64479260D01*
X147096677Y-64659777D01*
X146555103Y-64775585D01*
X146527921Y-64774861D01*
X146035443Y-64588444D01*
X145506285Y-64148535D01*
X145048029Y-63565148D01*
X144768253Y-62948299D01*
X144616487Y-62362612D01*
X143670294Y-63487988D01*
X143171237Y-64146965D01*
X142742713Y-64834848D01*
X142493654Y-65382526D01*
X142421689Y-65648982D01*
X142373392Y-66101983D01*
X142466217Y-66590525D01*
X142719355Y-67275566D01*
X142959653Y-67978861D01*
X143003653Y-68501706D01*
X142796280Y-68731414D01*
X142334161Y-68680281D01*
X142073004Y-68543472D01*
X141551077Y-68087777D01*
X140980305Y-67432325D01*
X140437113Y-66677514D01*
X139997926Y-65923738D01*
X139739170Y-65271393D01*
X139672778Y-65019805D01*
X139280104Y-63942384D01*
X138750066Y-63166938D01*
X138021025Y-62646035D01*
X137031338Y-62332241D01*
X135719362Y-62178123D01*
X135426556Y-62157610D01*
X134705897Y-62078053D01*
X134215470Y-61978952D01*
X134040084Y-61875585D01*
X134043175Y-61863382D01*
X134247491Y-61657638D01*
X134705078Y-61334701D01*
X135325756Y-60958870D01*
X135821511Y-60654480D01*
X136685991Y-59956464D01*
X144376409Y-59956464D01*
X144406050Y-60674961D01*
X144501373Y-61083533D01*
X144632052Y-61261173D01*
X144836013Y-61161766D01*
X144909028Y-61105502D01*
X145196344Y-61028763D01*
X145340678Y-61313189D01*
X145347166Y-61966868D01*
X145351816Y-62403162D01*
X145541864Y-63177175D01*
X145922559Y-63778784D01*
X146437643Y-64098044D01*
X146738346Y-64128973D01*
X147092468Y-64051556D01*
X147271113Y-63889127D01*
X147162856Y-63702465D01*
X147129702Y-63668889D01*
X147066038Y-63328797D01*
X147123595Y-62752438D01*
X147145453Y-62614243D01*
X147180474Y-61919420D01*
X147108483Y-61337650D01*
X147090406Y-61272325D01*
X147043455Y-60843620D01*
X147220740Y-60647381D01*
X147475413Y-60591766D01*
X147711337Y-60734913D01*
X147804812Y-61180238D01*
X147773193Y-61969260D01*
X147736978Y-62646779D01*
X147799760Y-63229825D01*
X147996776Y-63669182D01*
X148182580Y-63892267D01*
X148665323Y-64152888D01*
X149157481Y-64107093D01*
X149533896Y-63748429D01*
X149620069Y-63477670D01*
X149690217Y-62840766D01*
X149681454Y-62048429D01*
X149655747Y-61554774D01*
X149665777Y-61065485D01*
X149750614Y-60833958D01*
X149926551Y-60775585D01*
X150213045Y-60810339D01*
X150400922Y-61027173D01*
X150280854Y-61480233D01*
X150192368Y-61722546D01*
X150134366Y-62371155D01*
X150288457Y-62968241D01*
X150603544Y-63426704D01*
X151028528Y-63659444D01*
X151512312Y-63579358D01*
X151521545Y-63574310D01*
X151893581Y-63176087D01*
X152154711Y-62551439D01*
X152258557Y-61865184D01*
X152158739Y-61282137D01*
X152034960Y-60876729D01*
X152157245Y-60652172D01*
X152310305Y-60626400D01*
X152592117Y-60823719D01*
X152823413Y-61225579D01*
X152919362Y-61713810D01*
X152923478Y-61842661D01*
X153023591Y-62125134D01*
X153293027Y-62100409D01*
X153778926Y-61771660D01*
X154217674Y-61218338D01*
X154530531Y-60303798D01*
X154579398Y-60077609D01*
X154667331Y-59469484D01*
X154617571Y-59005683D01*
X154418713Y-58502464D01*
X154337696Y-58345156D01*
X153793592Y-57592336D01*
X153072710Y-56902645D01*
X152292507Y-56374837D01*
X151570440Y-56107672D01*
X151031435Y-56081806D01*
X150173768Y-56136356D01*
X149185951Y-56261077D01*
X148200478Y-56435460D01*
X147349842Y-56639000D01*
X146766536Y-56851190D01*
X146583666Y-56964020D01*
X146025476Y-57441974D01*
X145420187Y-58095497D01*
X144876057Y-58801091D01*
X144501345Y-59435259D01*
X144376409Y-59956464D01*
X136685991Y-59956464D01*
X136700856Y-59944461D01*
X137258394Y-59218520D01*
X137479514Y-58511676D01*
X137349609Y-57858949D01*
X136854070Y-57295359D01*
X136759798Y-57228346D01*
X136416715Y-57047760D01*
X135979300Y-56940439D01*
X135345845Y-56888881D01*
X134414638Y-56875585D01*
X133954684Y-56872096D01*
X133027897Y-56826374D01*
X132469343Y-56717461D01*
X132257952Y-56532461D01*
X132372654Y-56258475D01*
X132792377Y-55882607D01*
X132800162Y-55876648D01*
X133541082Y-55080015D01*
X134099770Y-54010941D01*
X134420595Y-52775585D01*
X134451818Y-52530343D01*
X134452743Y-52019071D01*
X134292788Y-51572461D01*
X133920297Y-51008012D01*
X133291395Y-50140440D01*
X132155379Y-50208012D01*
X131815982Y-50218686D01*
X131226033Y-50156251D01*
X130995891Y-49984185D01*
X131138004Y-49723150D01*
X131664821Y-49393807D01*
X131751207Y-49349814D01*
X132150229Y-49101358D01*
X132314821Y-48917045D01*
X132427555Y-48687779D01*
X132719592Y-48237646D01*
X133127574Y-47664469D01*
X133560232Y-47044932D01*
X134362608Y-45602408D01*
X134934016Y-44037168D01*
X135326251Y-42220982D01*
X135420670Y-41378435D01*
X135354485Y-40700941D01*
X135074561Y-40162681D01*
X134543691Y-39640988D01*
X134250913Y-39378413D01*
X134169717Y-39195676D01*
X134359756Y-39073276D01*
X134434662Y-39053346D01*
X134914208Y-39119523D01*
X135542145Y-39395638D01*
X136212860Y-39817352D01*
X136820736Y-40320323D01*
X137260159Y-40840210D01*
X137442629Y-41123597D01*
X137685018Y-41423508D01*
X137877520Y-41456809D01*
X138120810Y-41274275D01*
X138334783Y-41116532D01*
X138667499Y-41044582D01*
X138805662Y-41240742D01*
X138660403Y-41644104D01*
X138641170Y-41674860D01*
X138412731Y-42191340D01*
X138243066Y-42811766D01*
X138218853Y-43305017D01*
X138443221Y-43894823D01*
X138934309Y-44232368D01*
X139635947Y-44259278D01*
X140179103Y-44249845D01*
X140467743Y-44472373D01*
X140434718Y-44907687D01*
X140294271Y-45103192D01*
X140037433Y-44990582D01*
X139922334Y-44916154D01*
X139670874Y-44950204D01*
X139339800Y-45295029D01*
X139311518Y-45331451D01*
X139033620Y-45749865D01*
X138919362Y-46036808D01*
X138864455Y-46218029D01*
X138626940Y-46567212D01*
X138491612Y-46783900D01*
X138437106Y-47230864D01*
X138596607Y-47613411D01*
X138930885Y-47775585D01*
X139021281Y-47778709D01*
X139362714Y-47922398D01*
X139407071Y-48297193D01*
X139158977Y-48926426D01*
X138724435Y-49811493D01*
X138399016Y-50556075D01*
X138215578Y-51081755D01*
X138200271Y-51323159D01*
X138238949Y-51334354D01*
X138531437Y-51241807D01*
X138982449Y-50998398D01*
X139115964Y-50918476D01*
X139591142Y-50674025D01*
X139899246Y-50575585D01*
X139989586Y-50585270D01*
X140215814Y-50798110D01*
X140209368Y-51210828D01*
X139964275Y-51718486D01*
X139932423Y-51764344D01*
X139529451Y-52524417D01*
X139368317Y-53214349D01*
X139428860Y-53773308D01*
X139690918Y-54140457D01*
X140134331Y-54254963D01*
X140738937Y-54055991D01*
X141153494Y-53853307D01*
X141508133Y-53817510D01*
X141678910Y-54094566D01*
X141726450Y-54725585D01*
X141731070Y-55065152D01*
X141759185Y-55422076D01*
X141835168Y-55457213D01*
X141985656Y-55221531D01*
X142060458Y-55114968D01*
X142433983Y-54769798D01*
X142960898Y-54404113D01*
X143525121Y-54085950D01*
X144010573Y-53883347D01*
X144301172Y-53864342D01*
X144341345Y-53919518D01*
X144397966Y-54276382D01*
X144375165Y-54822425D01*
X144347238Y-55325686D01*
X144460934Y-55788791D01*
X144800558Y-56237163D01*
X145321725Y-56798742D01*
X146191355Y-56174221D01*
X147154079Y-55652417D01*
X148390174Y-55322020D01*
X149261569Y-55219927D01*
X150757245Y-55266236D01*
X152115555Y-55589546D01*
X153247370Y-56174221D01*
X154117000Y-56798742D01*
X154638167Y-56237163D01*
X154924134Y-55882256D01*
X155082578Y-55440299D01*
X155063560Y-54822425D01*
X155044746Y-54601038D01*
X155053634Y-54109671D01*
X155137553Y-53864342D01*
X155212812Y-53845735D01*
X155587257Y-53938971D01*
X156114586Y-54191207D01*
X156678718Y-54534405D01*
X157163572Y-54900525D01*
X157453069Y-55221531D01*
X157544229Y-55377840D01*
X157651662Y-55475414D01*
X157698798Y-55274985D01*
X157712275Y-54725585D01*
X157737852Y-54224463D01*
X157870363Y-53858349D01*
X158170799Y-53815894D01*
X158699788Y-54055991D01*
X158735799Y-54075516D01*
X159329380Y-54252806D01*
X159763742Y-54119875D01*
X160017804Y-53738959D01*
X160070487Y-53172297D01*
X159900709Y-52482126D01*
X159487391Y-51730685D01*
X159396590Y-51591211D01*
X159207566Y-51095168D01*
X159256733Y-50722529D01*
X159539479Y-50575585D01*
X159595803Y-50583213D01*
X159964512Y-50727951D01*
X160456276Y-50998398D01*
X160610064Y-51089505D01*
X161024586Y-51290509D01*
X161238454Y-51323159D01*
X161224552Y-51087130D01*
X161043240Y-50564902D01*
X160719589Y-49822876D01*
X160279748Y-48926426D01*
X160215576Y-48797238D01*
X160018197Y-48214099D01*
X160114077Y-47881325D01*
X160507840Y-47775585D01*
X160710890Y-47723037D01*
X160953941Y-47420413D01*
X161000649Y-46983152D01*
X160811785Y-46567212D01*
X160641719Y-46340371D01*
X160519362Y-46036808D01*
X160518414Y-46021659D01*
X160386320Y-45716722D01*
X160098925Y-45295029D01*
X159972907Y-45143204D01*
X159668791Y-44906349D01*
X159416731Y-44977769D01*
X159404593Y-44987583D01*
X159119503Y-45060071D01*
X158958725Y-44843823D01*
X159003752Y-44444145D01*
X159033566Y-44380390D01*
X159279246Y-44219906D01*
X159781986Y-44255377D01*
X160273929Y-44278265D01*
X160851414Y-44045373D01*
X161176556Y-43538262D01*
X161195659Y-42811766D01*
X161185812Y-42761158D01*
X161007307Y-42139054D01*
X160778322Y-41644104D01*
X160663939Y-41418104D01*
X160673053Y-41111868D01*
X160920667Y-41043622D01*
X161317915Y-41274275D01*
X161458942Y-41394508D01*
X161662853Y-41469329D01*
X161869169Y-41301488D01*
X162178566Y-40840210D01*
X162255178Y-40727974D01*
X162740601Y-40206289D01*
X163371307Y-39715636D01*
X164041680Y-39320355D01*
X164646106Y-39084788D01*
X165078969Y-39073276D01*
X165254502Y-39172576D01*
X165222888Y-39338027D01*
X164895034Y-39640988D01*
X164400477Y-40117641D01*
X164099847Y-40649487D01*
X164016248Y-41309712D01*
X164112474Y-42220982D01*
X164263832Y-43047351D01*
X164727380Y-44739004D01*
X165392556Y-46235301D01*
X166311151Y-47664469D01*
X166718351Y-48236501D01*
X167010707Y-48687006D01*
X167123904Y-48917045D01*
X167130306Y-48941110D01*
X167346731Y-49144073D01*
X167773904Y-49393807D01*
X168034998Y-49534445D01*
X168404110Y-49838544D01*
X168393573Y-50065946D01*
X168015836Y-50195989D01*
X167283346Y-50208012D01*
X166147330Y-50140440D01*
X165518428Y-51008012D01*
X165350787Y-51244741D01*
X165063926Y-51743693D01*
X164970259Y-52193141D01*
X165018130Y-52775585D01*
X165019897Y-52787851D01*
X165343260Y-54022120D01*
X165903954Y-55089092D01*
X166646348Y-55882607D01*
X166842888Y-56040353D01*
X167147554Y-56375428D01*
X167139077Y-56613592D01*
X166796387Y-56767741D01*
X166098414Y-56850773D01*
X165024087Y-56875585D01*
X164723686Y-56876487D01*
X163887302Y-56898862D01*
X163319809Y-56964464D01*
X162919497Y-57090795D01*
X162584655Y-57295359D01*
X162315941Y-57535204D01*
X161986417Y-58143159D01*
X162015967Y-58824522D01*
X162351117Y-59469484D01*
X162389981Y-59544274D01*
G37*
%TD*%
M02*
