M48
; DRILL file {KiCad 8.0.5} date 2024-10-15T22:02:13+0200
; FORMAT={-:-/ absolute / inch / decimal}
; #@! TF.CreationDate,2024-10-15T22:02:13+02:00
; #@! TF.GenerationSoftware,Kicad,Pcbnew,8.0.5
; #@! TF.FileFunction,Plated,1,2,PTH
FMAT,2
INCH
; #@! TA.AperFunction,Plated,PTH,ViaDrill
T1C0.0118
; #@! TA.AperFunction,Plated,PTH,ComponentDrill
T2C0.0394
; #@! TA.AperFunction,Plated,PTH,ComponentDrill
T3C0.0433
%
G90
G05
T1
X5.2717Y-2.0669
X5.2756Y-2.3228
X5.315Y-1.6339
X5.3543Y-2.0669
X5.9449Y-2.2638
X6.0039Y-2.3228
X6.0433Y-2.3819
X6.0452Y-2.2008
X6.1614Y-2.3228
X6.185Y-1.9875
X6.2008Y-2.248
X6.2008Y-2.2835
X6.2598Y-2.3819
X6.378Y-1.7913
X6.3976Y-1.7323
X6.437Y-1.6929
T2
X5.6055Y-1.3323
X5.6055Y-1.4323
X5.6055Y-1.5323
X5.6055Y-1.6323
X5.6055Y-1.7323
X5.6055Y-1.8323
X5.6055Y-1.9323
X5.6055Y-2.0323
X5.6055Y-2.1323
X5.7055Y-2.1323
X5.7559Y-2.4606
X5.8055Y-2.1323
X5.9055Y-2.1323
X6.0055Y-2.1323
X6.0551Y-2.4606
X6.1055Y-2.1323
X6.2055Y-1.3323
X6.2055Y-1.4323
X6.2055Y-1.5323
X6.2055Y-1.6323
X6.2055Y-1.7323
X6.2055Y-1.8323
X6.2055Y-1.9323
X6.2055Y-2.0323
X6.2055Y-2.1323
T3
X5.2165Y-1.6929
X5.2165Y-1.8701
X5.2165Y-2.0669
X5.2165Y-2.2441
X5.4724Y-1.6929
X5.4724Y-1.8701
X5.4724Y-2.0669
X5.4724Y-2.2441
X6.3386Y-1.6929
X6.3386Y-1.8701
X6.3386Y-2.0669
X6.3386Y-2.2441
X6.5945Y-1.6929
X6.5945Y-1.8701
X6.5945Y-2.0669
X6.5945Y-2.2441
M30
